NewsreaderCaption-Light.ufo
<glyph name="exclam" format="2">
	<unicode hex="0021"/>
	<advance width="613.6533333333"/>
	<outline>
		<contour>
			<point x="381.4533333333" y="1402.8" type="line" smooth="yes"/>
			<point x="381.4533333333" y="1423.52"/>
			<point x="357.08" y="1433.6266666667"/>
			<point x="306.8266666667" y="1433.6266666667" type="curve" smooth="yes"/>
			<point x="256.5733333333" y="1433.6266666667"/>
			<point x="232.2" y="1423.52"/>
			<point x="232.2" y="1402.8" type="curve" smooth="yes"/>
			<point x="232.2" y="1333.56" type="line" smooth="yes"/>
			<point x="232.2" y="1234.4"/>
			<point x="258.4090010515" y="669.2266666667"/>
			<point x="267.3866666667" y="410.56" type="curve"/>
			<point x="346.2666666667" y="410.56" type="line"/>
			<point x="354.8709989485" y="669.2266666667"/>
			<point x="381.4533333333" y="1234.4"/>
			<point x="381.4533333333" y="1333.56" type="curve" smooth="yes"/>
		</contour>
		<contour>
			<point x="306.8266666667" y="225.0666666667" type="curve" smooth="yes"/>
			<point x="232.5066666667" y="225.0666666667"/>
			<point x="183.6666666667" y="185.48"/>
			<point x="183.6666666667" y="105.5333333333" type="curve" smooth="yes"/>
			<point x="183.6666666667" y="25.5866666667"/>
			<point x="232.5066666667" y="-14"/>
			<point x="306.8266666667" y="-14" type="curve" smooth="yes"/>
			<point x="381.1466666667" y="-14"/>
			<point x="429.9866666667" y="25.5866666667"/>
			<point x="429.9866666667" y="105.5333333333" type="curve" smooth="yes"/>
			<point x="429.9866666667" y="185.48"/>
			<point x="381.1466666667" y="225.0666666667"/>
		</contour>
	</outline>
</glyph>
<glyph name="ampersand" format="2">
	<unicode hex="0026"/>
	<advance width="1612.64"/>
	<outline>
		<contour>
			<point x="625.08" y="763.8666666667" type="line"/>
			<point x="902.0266666667" y="871.4"/>
			<point x="1000.0266666667" y="992.4"/>
			<point x="1000.0266666667" y="1162.7466666667" type="curve" smooth="yes"/>
			<point x="1000.0266666667" y="1321.1333333333"/>
			<point x="901.0666666667" y="1434"/>
			<point x="663.5066666667" y="1434" type="curve" smooth="yes"/>
			<point x="414.0933333333" y="1434"/>
			<point x="298.8666666667" y="1309.28"/>
			<point x="298.8666666667" y="1143.4266666667" type="curve" smooth="yes"/>
			<point x="298.8666666667" y="1015.8"/>
			<point x="333.12" y="934.7066666667"/>
			<point x="498.8" y="762.7733333333" type="curve" smooth="yes"/>
			<point x="1232.0666666667" y="0" type="line"/>
			<point x="1533.7866666667" y="0" type="line"/>
			<point x="1533.7866666667" y="69.5333333333" type="line"/>
			<point x="1309.1333333333" y="94.8666666667" type="line"/>
			<point x="596.32" y="837.5733333333" type="line" smooth="yes"/>
			<point x="456.2933333333" y="982.8533333333"/>
			<point x="417.4" y="1057.36"/>
			<point x="417.4" y="1158.52" type="curve" smooth="yes"/>
			<point x="417.4" y="1278.2"/>
			<point x="506.1866666667" y="1347.4933333333"/>
			<point x="660.12" y="1347.4933333333" type="curve" smooth="yes"/>
			<point x="824.08" y="1347.4933333333"/>
			<point x="888.7066666667" y="1271.9466666667"/>
			<point x="888.7066666667" y="1152.64" type="curve" smooth="yes"/>
			<point x="888.7066666667" y="1010.84"/>
			<point x="802.5466666667" y="919.6933333333"/>
			<point x="595.84" y="825.5333333333" type="curve"/>
			<point x="520.8666666667" y="799.72" type="line"/>
			<point x="238.3466666667" y="693.3066666667"/>
			<point x="148.92" y="555.84"/>
			<point x="148.92" y="349.7333333333" type="curve" smooth="yes"/>
			<point x="148.92" y="120.7466666667"/>
			<point x="276.6666666667" y="-20"/>
			<point x="612.4533333333" y="-20" type="curve" smooth="yes"/>
			<point x="833.48" y="-20"/>
			<point x="987.48" y="48.5333333333"/>
			<point x="1107.1866666667" y="187.64" type="curve"/>
			<point x="1135.52" y="220.2266666667" type="line"/>
			<point x="1228.7733333333" y="340.6133333333"/>
			<point x="1307.1333333333" y="517.0266666667"/>
			<point x="1363.9333333333" y="771.7466666667" type="curve"/>
			<point x="1539.76" y="794.4666666667" type="line"/>
			<point x="1539.76" y="864" type="line"/>
			<point x="1067.8" y="864" type="line"/>
			<point x="1067.8" y="794.4666666667" type="line"/>
			<point x="1247.88" y="771.7466666667" type="line"/>
			<point x="1216.6533333333" y="542.3733333333"/>
			<point x="1155.1466666667" y="387.3066666667"/>
			<point x="1078.2533333333" y="282.8933333333" type="curve"/>
			<point x="1047.92" y="247.3066666667" type="line"/>
			<point x="943.0266666667" y="126.12"/>
			<point x="812.7333333333" y="73.48"/>
			<point x="634.1466666667" y="73.48" type="curve" smooth="yes"/>
			<point x="387.2533333333" y="73.48"/>
			<point x="275.4533333333" y="181.9866666667"/>
			<point x="275.4533333333" y="378.04" type="curve" smooth="yes"/>
			<point x="275.4533333333" y="536.3733333333"/>
			<point x="334.48" y="643.7733333333"/>
			<point x="546.24" y="734.1866666667" type="curve"/>
		</contour>
	</outline>
</glyph>
<glyph name="quotesingle" format="2">
	<unicode hex="0027"/>
	<advance width="428.8533333333"/>
	<outline>
		<contour>
			<point x="167.3733333333" y="955.28" type="line"/>
			<point x="261.48" y="955.28" type="line"/>
			<point x="285.32" y="1386.5333333333" type="line"/>
			<point x="285.32" y="1414" type="line"/>
			<point x="143.5333333333" y="1414" type="line"/>
			<point x="143.5333333333" y="1386.5333333333" type="line"/>
		</contour>
	</outline>
</glyph>
<glyph name="parenleft" format="2">
	<unicode hex="0028"/>
	<advance width="669.3866666667"/>
	<outline>
		<contour>
			<point x="241.9333333333" y="621" type="curve" smooth="yes"/>
			<point x="241.9333333333" y="948.5466666667"/>
			<point x="346.9733333333" y="1178.8"/>
			<point x="602.3733333333" y="1422.4533333333" type="curve"/>
			<point x="545.5733333333" y="1484" type="line"/>
			<point x="215.5066666667" y="1176.8666666667"/>
			<point x="114.4" y="932.6266666667"/>
			<point x="114.4" y="621" type="curve" smooth="yes"/>
			<point x="114.4" y="309.3733333333"/>
			<point x="215.5066666667" y="65.1333333333"/>
			<point x="545.5733333333" y="-242" type="curve"/>
			<point x="602.3733333333" y="-180.4533333333" type="line"/>
			<point x="346.9733333333" y="63.2"/>
			<point x="241.9333333333" y="293.4533333333"/>
		</contour>
	</outline>
</glyph>
<glyph name="parenright" format="2">
	<unicode hex="0029"/>
	<advance width="669.3866666667"/>
	<outline>
		<contour>
			<point x="427.4533333333" y="621.3733333333" type="curve" smooth="yes"/>
			<point x="427.4533333333" y="293.8266666667"/>
			<point x="322.4133333333" y="63.5733333333"/>
			<point x="67.0133333333" y="-180.08" type="curve"/>
			<point x="123.8133333333" y="-241.6266666667" type="line"/>
			<point x="453.88" y="65.5066666667"/>
			<point x="554.9866666667" y="309.7466666667"/>
			<point x="554.9866666667" y="621.3733333333" type="curve" smooth="yes"/>
			<point x="554.9866666667" y="933"/>
			<point x="453.88" y="1177.24"/>
			<point x="123.8133333333" y="1484.3733333333" type="curve"/>
			<point x="67.0133333333" y="1422.8266666667" type="line"/>
			<point x="322.4133333333" y="1179.1733333333"/>
			<point x="427.4533333333" y="948.92"/>
		</contour>
	</outline>
</glyph>
<glyph name="asterisk" format="2">
	<unicode hex="002A"/>
	<advance width="886.7733333333"/>
	<outline>
		<contour>
			<point x="596.6266666667" y="803.0666666667" type="line"/>
			<point x="511.36" y="1054.3466666667" type="line"/>
			<point x="775.1466666667" y="1075.08" type="line"/>
			<point x="771.28" y="1144.9733333333" type="line"/>
			<point x="505.3733333333" y="1141.4666666667" type="line"/>
			<point x="567.4" y="1398.12" type="line"/>
			<point x="499.2533333333" y="1416.72" type="line"/>
			<point x="422" y="1162.8133333333" type="line"/>
			<point x="195.1066666667" y="1300.3466666667" type="line"/>
			<point x="157.7866666667" y="1242.8133333333" type="line"/>
			<point x="375.0666666667" y="1089.8" type="line"/>
			<point x="173.6533333333" y="917.2933333333" type="line"/>
			<point x="217.3333333333" y="863.3733333333" type="line"/>
			<point x="429.48" y="1022.1466666667" type="line"/>
			<point x="531.6" y="777.36" type="line"/>
		</contour>
	</outline>
</glyph>
<glyph name="plus" format="2">
	<unicode hex="002B"/>
	<advance width="1140"/>
	<outline>
		<contour>
			<point x="519.64" y="933.08" type="line"/>
			<point x="519.64" y="94.28" type="line"/>
			<point x="620.36" y="94.28" type="line"/>
			<point x="620.36" y="933.08" type="line"/>
		</contour>
		<contour>
			<point x="989.4" y="564.04" type="line"/>
			<point x="150.6" y="564.04" type="line"/>
			<point x="150.6" y="463.32" type="line"/>
			<point x="989.4" y="463.32" type="line"/>
		</contour>
	</outline>
</glyph>
<glyph name="comma" format="2">
	<unicode hex="002C"/>
	<advance width="519.1466666667"/>
	<outline>
		<contour>
			<point x="73.2933333333" y="-290.2666666667" type="curve"/>
			<point x="115.1333333333" y="-339.5866666667" type="line"/>
			<point x="316.7733333333" y="-180.0133333333"/>
			<point x="382.12" y="-47.9066666667"/>
			<point x="382.12" y="86.7733333333" type="curve" smooth="yes"/>
			<point x="382.12" y="183.4666666667"/>
			<point x="338.4" y="225.0666666667"/>
			<point x="256.5866666667" y="225.0666666667" type="curve" smooth="yes"/>
			<point x="177.3866666667" y="225.0666666667"/>
			<point x="132.7866666667" y="182.2266666667"/>
			<point x="132.7866666667" y="107.52" type="curve" smooth="yes"/>
			<point x="132.7866666667" y="72.4133333333"/>
			<point x="244.5066666667" y="32.2933333333"/>
			<point x="244.5066666667" y="-47.92" type="curve" smooth="yes"/>
			<point x="244.5066666667" y="-117.4"/>
			<point x="202.76" y="-181.0133333333"/>
		</contour>
	</outline>
</glyph>
<glyph name="hyphen" format="2">
  <advance width="744.3066666666666"/>
  <unicode hex="002D"/>
  <outline>
    <contour>
      <point x="137.84" y="577.5466666666667" type="line"/>
      <point x="137.84" y="466.4533333333334" type="line"/>
      <point x="606.4666666666667" y="466.4533333333334" type="line"/>
      <point x="606.4666666666667" y="577.5466666666667" type="line"/>
    </contour>
  </outline>
</glyph>
<glyph name="period" format="2">
	<unicode hex="002E"/>
	<advance width="514.1333333333"/>
	<outline>
		<contour>
			<point x="257.0666666667" y="225.0666666667" type="curve" smooth="yes"/>
			<point x="182.7466666667" y="225.0666666667"/>
			<point x="133.9066666667" y="185.48"/>
			<point x="133.9066666667" y="105.5333333333" type="curve" smooth="yes"/>
			<point x="133.9066666667" y="25.5866666667"/>
			<point x="182.7466666667" y="-14"/>
			<point x="257.0666666667" y="-14" type="curve" smooth="yes"/>
			<point x="331.3866666667" y="-14"/>
			<point x="380.2266666667" y="25.5866666667"/>
			<point x="380.2266666667" y="105.5333333333" type="curve" smooth="yes"/>
			<point x="380.2266666667" y="185.48"/>
			<point x="331.3866666667" y="225.0666666667"/>
		</contour>
	</outline>
</glyph>
<glyph name="slash" format="2">
	<unicode hex="002F"/>
	<advance width="837.1066666667"/>
	<outline>
		<contour>
			<point x="69.52" y="0" type="line"/>
			<point x="180.2133333333" y="0" type="line"/>
			<point x="770.5866666667" y="1414" type="line"/>
			<point x="659.52" y="1414" type="line"/>
		</contour>
	</outline>
</glyph>
<glyph name="zero" format="2">
  <advance width="1300.0"/>
  <unicode hex="0030"/>
  <outline>
    <contour>
      <point x="653.3733333333333" y="78.85333333333332" type="curve" smooth="yes"/>
      <point x="383.7699346405229" y="78.85333333333332"/>
      <point x="236.78666666666666" y="310.58666666666664"/>
      <point x="236.78666666666666" y="739.0" type="curve" smooth="yes"/>
      <point x="236.78666666666666" y="1125.5466666666669"/>
      <point x="381.13866666666667" y="1335.1466666666668"/>
      <point x="646.3733333333333" y="1335.1466666666668" type="curve" smooth="yes"/>
      <point x="915.9767320261437" y="1335.1466666666668"/>
      <point x="1062.96" y="1103.4133333333334"/>
      <point x="1062.96" y="675.0" type="curve" smooth="yes"/>
      <point x="1062.96" y="288.4533333333333"/>
      <point x="918.6080000000001" y="78.85333333333332"/>
    </contour>
    <contour>
      <point x="660.88" y="1434.0" type="curve" smooth="yes"/>
      <point x="290.8801384083045" y="1434.0"/>
      <point x="104.76" y="1166.5333333333333"/>
      <point x="104.76" y="692.5333333333333" type="curve" smooth="yes"/>
      <point x="104.76" y="249.53333333333333"/>
      <point x="299.6049197860962" y="-20.0"/>
      <point x="638.8666666666667" y="-20.0" type="curve" smooth="yes"/>
      <point x="1008.8665282583622" y="-20.0"/>
      <point x="1194.9866666666667" y="247.46666666666664"/>
      <point x="1194.9866666666667" y="721.4666666666667" type="curve" smooth="yes"/>
      <point x="1194.9866666666667" y="1164.4666666666667"/>
      <point x="1000.1417468805704" y="1434.0"/>
    </contour>
  </outline>
</glyph>
<glyph name="one" format="2">
  <advance width="1300.0"/>
  <unicode hex="0031"/>
  <outline>
    <contour>
      <point x="672.36" y="103.58666666666667" type="line"/>
      <point x="325.12" y="71.90666666666667" type="line"/>
      <point x="325.12" y="0.0" type="line"/>
      <point x="1132.0133333333333" y="0.0" type="line"/>
      <point x="1132.0133333333333" y="71.90666666666667" type="line"/>
      <point x="798.8933333333334" y="103.58666666666667" type="line"/>
      <point x="798.8933333333334" y="1434.0" type="line"/>
      <point x="706.5466666666667" y="1434.0" type="line"/>
      <point x="208.12" y="1193.0133333333333" type="line"/>
      <point x="240.94666666666666" y="1110.1733333333332" type="line"/>
      <point x="710.4133333333333" y="1306.0933333333335" type="line"/>
      <point x="672.36" y="1347.7066666666667" type="line"/>
    </contour>
  </outline>
</glyph>
<glyph name="colon" format="2">
  <advance width="563.8666666666667"/>
  <unicode hex="003A"/>
  <outline>
    <contour>
      <point x="281.93333333333334" y="225.06666666666666" type="curve" smooth="yes"/>
      <point x="207.61333333333332" y="225.06666666666666"/>
      <point x="158.77333333333334" y="185.48"/>
      <point x="158.77333333333334" y="105.53333333333333" type="curve" smooth="yes"/>
      <point x="158.77333333333334" y="25.586666666666666"/>
      <point x="207.61333333333332" y="-14.0"/>
      <point x="281.93333333333334" y="-14.0" type="curve" smooth="yes"/>
      <point x="356.25333333333333" y="-14.0"/>
      <point x="405.09333333333336" y="25.586666666666666"/>
      <point x="405.09333333333336" y="105.53333333333333" type="curve" smooth="yes"/>
      <point x="405.09333333333336" y="185.48"/>
      <point x="356.25333333333333" y="225.06666666666666"/>
    </contour>
    <contour>
      <point x="281.93333333333334" y="1038.0" type="curve" smooth="yes"/>
      <point x="207.61333333333332" y="1038.0"/>
      <point x="158.77333333333334" y="998.4133333333333"/>
      <point x="158.77333333333334" y="918.4666666666667" type="curve" smooth="yes"/>
      <point x="158.77333333333334" y="838.52"/>
      <point x="207.61333333333332" y="798.9333333333333"/>
      <point x="281.93333333333334" y="798.9333333333333" type="curve" smooth="yes"/>
      <point x="356.25333333333333" y="798.9333333333333"/>
      <point x="405.09333333333336" y="838.52"/>
      <point x="405.09333333333336" y="918.4666666666667" type="curve" smooth="yes"/>
      <point x="405.09333333333336" y="998.4133333333333"/>
      <point x="356.25333333333333" y="1038.0"/>
    </contour>
  </outline>
</glyph>
<glyph name="semicolon" format="2">
  <advance width="599.1733333333333"/>
  <unicode hex="003B"/>
  <outline>
    <contour>
      <point x="119.56" y="-290.26666666666665" type="curve"/>
      <point x="161.4" y="-339.58666666666664" type="line"/>
      <point x="363.04" y="-180.01333333333332"/>
      <point x="428.38666666666666" y="-47.906666666666666"/>
      <point x="428.38666666666666" y="86.77333333333333" type="curve" smooth="yes"/>
      <point x="428.38666666666666" y="183.46666666666664"/>
      <point x="384.66666666666663" y="225.06666666666666"/>
      <point x="302.85333333333335" y="225.06666666666666" type="curve" smooth="yes"/>
      <point x="223.65333333333334" y="225.06666666666666"/>
      <point x="179.05333333333334" y="182.22666666666666"/>
      <point x="179.05333333333334" y="107.52" type="curve" smooth="yes"/>
      <point x="179.0533333333333" y="72.41333333333334"/>
      <point x="290.77333333333337" y="32.29333333333334"/>
      <point x="290.77333333333337" y="-47.92" type="curve" smooth="yes"/>
      <point x="290.77333333333337" y="-117.39999999999999"/>
      <point x="249.02666666666667" y="-181.01333333333332"/>
    </contour>
    <contour>
      <point x="305.2266666666667" y="1038.0" type="curve" smooth="yes"/>
      <point x="230.90666666666667" y="1038.0"/>
      <point x="182.06666666666666" y="998.4133333333333"/>
      <point x="182.06666666666666" y="918.4666666666667" type="curve" smooth="yes"/>
      <point x="182.06666666666666" y="838.52"/>
      <point x="230.90666666666667" y="798.9333333333333"/>
      <point x="305.2266666666667" y="798.9333333333333" type="curve" smooth="yes"/>
      <point x="379.5466666666667" y="798.9333333333333"/>
      <point x="428.38666666666666" y="838.52"/>
      <point x="428.38666666666666" y="918.4666666666667" type="curve" smooth="yes"/>
      <point x="428.38666666666666" y="998.4133333333333"/>
      <point x="379.5466666666667" y="1038.0"/>
    </contour>
  </outline>
</glyph>
<glyph name="less" format="2">
	<unicode hex="003C"/>
	<advance width="1140"/>
	<outline>
		<contour>
			<point x="203.7733333333" y="493.5466666667" type="line"/>
			<point x="984.2666666667" y="827.7866666667" type="line"/>
			<point x="984.2666666667" y="937.3733333333" type="line"/>
			<point x="129.6" y="562.92" type="line"/>
			<point x="129.6" y="464.44" type="line"/>
			<point x="984.2666666667" y="89.9866666667" type="line"/>
			<point x="984.2666666667" y="200.6933333333" type="line"/>
			<point x="203.7733333333" y="539.8133333333" type="line"/>
		</contour>
	</outline>
</glyph>
<glyph name="greater" format="2">
  <advance width="1140.0"/>
  <unicode hex="003E"/>
  <outline>
    <contour>
      <point x="936.2266666666667" y="493.5466666666667" type="line"/>
      <point x="936.2266666666667" y="539.8133333333333" type="line"/>
      <point x="155.73333333333335" y="200.69333333333336" type="line"/>
      <point x="155.73333333333335" y="89.98666666666668" type="line"/>
      <point x="1010.4" y="464.44000000000005" type="line"/>
      <point x="1010.4" y="562.9200000000001" type="line"/>
      <point x="155.73333333333335" y="937.3733333333333" type="line"/>
      <point x="155.73333333333335" y="827.7866666666667" type="line"/>
    </contour>
  </outline>
</glyph>
<glyph name="question" format="2">
	<unicode hex="003F"/>
	<advance width="1070.0666666667"/>
	<outline>
		<contour>
			<point x="441.5066666667" y="1434" type="curve" smooth="yes"/>
			<point x="148.4666666667" y="1434"/>
			<point x="62.88" y="1360.5733333333"/>
			<point x="62.88" y="1290.3733333333" type="curve" smooth="yes"/>
			<point x="62.88" y="1235.04"/>
			<point x="98.84" y="1205.5733333333"/>
			<point x="153.9066666667" y="1205.5733333333" type="curve" smooth="yes"/>
			<point x="199.8533333333" y="1205.5733333333"/>
			<point x="241.1733333333" y="1343.2666666667"/>
			<point x="464.4" y="1343.2666666667" type="curve" smooth="yes"/>
			<point x="717.0933333333" y="1343.2666666667"/>
			<point x="835.4" y="1200.0666666667"/>
			<point x="835.4" y="1040.0133333333" type="curve" smooth="yes"/>
			<point x="835.4" y="872.12"/>
			<point x="738.1466666667" y="784.5733333333"/>
			<point x="408.1466666667" y="777.56" type="curve"/>
			<point x="438.64" y="410.56" type="line"/>
			<point x="512.4933333333" y="410.56" type="line"/>
			<point x="521.08" y="732.1333333333" type="line"/>
			<point x="474.8666666667" y="667.1866666667" type="line"/>
			<point x="832.16" y="680.2"/>
			<point x="958.2666666667" y="806.52"/>
			<point x="958.2666666667" y="1039.88" type="curve" smooth="yes"/>
			<point x="958.2666666667" y="1250.5866666667"/>
			<point x="783.2266666667" y="1434"/>
		</contour>
		<contour>
			<point x="475.0666666667" y="225.0666666667" type="curve" smooth="yes"/>
			<point x="400.7466666667" y="225.0666666667"/>
			<point x="351.9066666667" y="185.48"/>
			<point x="351.9066666667" y="105.5333333333" type="curve" smooth="yes"/>
			<point x="351.9066666667" y="25.5866666667"/>
			<point x="400.7466666667" y="-14"/>
			<point x="475.0666666667" y="-14" type="curve" smooth="yes"/>
			<point x="549.3866666667" y="-14"/>
			<point x="598.2266666667" y="25.5866666667"/>
			<point x="598.2266666667" y="105.5333333333" type="curve" smooth="yes"/>
			<point x="598.2266666667" y="185.48"/>
			<point x="549.3866666667" y="225.0666666667"/>
		</contour>
	</outline>
</glyph>
<glyph name="at" format="2">
	<unicode hex="0040"/>
	<advance width="1916.5066666667"/>
	<outline>
		<contour>
			<point x="1335.68" y="206.4" type="curve" smooth="yes"/>
			<point x="1592.2666666667" y="206.4"/>
			<point x="1805.92" y="437.9333333333"/>
			<point x="1805.92" y="814.8" type="curve" smooth="yes"/>
			<point x="1805.92" y="1248.8133333333"/>
			<point x="1523.9333333333" y="1434"/>
			<point x="1075.0933333333" y="1434" type="curve" smooth="yes"/>
			<point x="480.2533333333" y="1434"/>
			<point x="115.7733333333" y="1039.3333333333"/>
			<point x="115.7733333333" y="508.64" type="curve" smooth="yes"/>
			<point x="115.7733333333" y="-37.9066666667"/>
			<point x="430.7866666667" y="-242"/>
			<point x="934.3333333333" y="-242" type="curve" smooth="yes"/>
			<point x="1204.0933333333" y="-242"/>
			<point x="1408.08" y="-173.24"/>
			<point x="1590.1733333333" y="-52.24" type="curve"/>
			<point x="1550.72" y="12.16" type="line"/>
			<point x="1364.0933333333" y="-102.1066666667"/>
			<point x="1175.36" y="-161.36"/>
			<point x="950.68" y="-161.36" type="curve" smooth="yes"/>
			<point x="466.5466666667" y="-161.36"/>
			<point x="216.28" y="46.8"/>
			<point x="216.28" y="507.6133333333" type="curve" smooth="yes"/>
			<point x="216.28" y="1004.6533333333"/>
			<point x="529.2933333333" y="1355.8533333333"/>
			<point x="1072.9866666667" y="1355.8533333333" type="curve" smooth="yes"/>
			<point x="1462.7333333333" y="1355.8533333333"/>
			<point x="1712.16" y="1206.3866666667"/>
			<point x="1712.16" y="786.6933333333" type="curve" smooth="yes"/>
			<point x="1712.16" y="476.9733333333"/>
			<point x="1536.2" y="284.1733333333"/>
			<point x="1357.52" y="284.1733333333" type="curve" smooth="yes"/>
			<point x="1272.7333333333" y="284.1733333333"/>
			<point x="1228.7066666667" y="313.3066666667"/>
			<point x="1228.7066666667" y="388.5733333333" type="curve" smooth="yes"/>
			<point x="1228.7066666667" y="418.8266666667"/>
			<point x="1234.96" y="454.3333333333"/>
			<point x="1249.2133333333" y="497.84" type="curve" smooth="yes"/>
			<point x="1409.36" y="1000.8666666667" type="line"/>
			<point x="1301.52" y="1000.8666666667" type="line"/>
			<point x="1247.4533333333" y="868.1466666667" type="line"/>
			<point x="1204.8266666667" y="739.2533333333" type="line" smooth="yes"/>
			<point x="1126.32" y="505.4533333333"/>
			<point x="947.6" y="299.3733333333"/>
			<point x="803.8933333333" y="299.3733333333" type="curve" smooth="yes"/>
			<point x="706.8266666667" y="299.3733333333"/>
			<point x="668.3066666667" y="343.0266666667"/>
			<point x="668.3066666667" y="431.9466666667" type="curve" smooth="yes"/>
			<point x="668.3066666667" y="629.2533333333"/>
			<point x="853.3466666667" y="937.4666666667"/>
			<point x="1065.5866666667" y="937.4666666667" type="curve" smooth="yes"/>
			<point x="1152.6266666667" y="937.4666666667"/>
			<point x="1217.4266666667" y="898.2"/>
			<point x="1262.9466666667" y="816.68" type="curve"/>
			<point x="1277.0666666667" y="844.92" type="line"/>
			<point x="1230.8133333333" y="951.12"/>
			<point x="1161.0666666667" y="1017.9866666667"/>
			<point x="1044.56" y="1017.9866666667" type="curve" smooth="yes"/>
			<point x="754.1333333333" y="1017.9866666667"/>
			<point x="535.04" y="662.0533333333"/>
			<point x="535.04" y="418.0933333333" type="curve" smooth="yes"/>
			<point x="535.04" y="292.12"/>
			<point x="607.28" y="209.0133333333"/>
			<point x="755.2666666667" y="209.0133333333" type="curve" smooth="yes"/>
			<point x="888" y="209.0133333333"/>
			<point x="1003.7866666667" y="292.52"/>
			<point x="1164.8" y="548.6266666667" type="curve"/>
			<point x="1175.5333333333" y="548.6266666667" type="line"/>
			<point x="1155.28" y="492.24" type="line" smooth="yes"/>
			<point x="1139.0266666667" y="445.8533333333"/>
			<point x="1130.4" y="403.9733333333"/>
			<point x="1130.4" y="368.72" type="curve" smooth="yes"/>
			<point x="1130.4" y="263.9590839952"/>
			<point x="1200.7256471242" y="206.4"/>
		</contour>
	</outline>
</glyph>
<glyph name="A" format="2">
	<unicode hex="0041"/>
	<advance width="1610.7733333333"/>
	<outline>
		<contour>
			<point x="438.24" y="500.96" type="line"/>
			<point x="1136.8133333333" y="500.96" type="line"/>
			<point x="1136.8133333333" y="601.8133333333" type="line"/>
			<point x="438.24" y="601.8133333333" type="line"/>
		</contour>
		<contour>
			<point x="1408.3733333333" y="97.7333333333" type="line"/>
			<point x="864.0533333333" y="1421.4666666667" type="line"/>
			<point x="705.7066666667" y="1421.4666666667" type="line"/>
			<point x="208.2933333333" y="98.36" type="line"/>
			<point x="22.7466666667" y="71.5333333333" type="line"/>
			<point x="22.7466666667" y="0" type="line"/>
			<point x="518.8933333333" y="0" type="line"/>
			<point x="518.8933333333" y="71.5333333333" type="line"/>
			<point x="321.6133333333" y="97.7333333333" type="line"/>
			<point x="783.6" y="1358.56" type="line"/>
			<point x="752.1466666667" y="1358.56" type="line"/>
			<point x="1264.0133333333" y="98.36" type="line"/>
			<point x="1054.2" y="71.5333333333" type="line"/>
			<point x="1054.2" y="0" type="line"/>
			<point x="1603.7733333333" y="0" type="line"/>
			<point x="1603.7733333333" y="71.5333333333" type="line"/>
		</contour>
	</outline>
	<anchor name="UCtop" x="782.2933333333" y="1414"/>
	<anchor name="right" x="1468.84" y="0"/>
	<anchor name="bottom" x="802.28" y="0"/>
</glyph>
<glyph name="B" format="2">
	<unicode hex="0042"/>
	<advance width="1388.9066666667"/>
	<outline>
		<contour>
			<point x="392.1466666667" y="1313.1466666667" type="line"/>
			<point x="732.64" y="1313.1466666667" type="line" smooth="yes"/>
			<point x="974.9066666667" y="1313.1466666667"/>
			<point x="1072.36" y="1231.6133333333"/>
			<point x="1072.36" y="1070.1733333333" type="curve" smooth="yes"/>
			<point x="1072.36" y="879.4666666667"/>
			<point x="955.7733333333" y="806.1866666667"/>
			<point x="784.3466666667" y="806.1866666667" type="curve" smooth="yes"/>
			<point x="392.8933333333" y="806.1866666667" type="line"/>
			<point x="385.8933333333" y="705.3333333333" type="line"/>
			<point x="783.2266666667" y="705.3333333333" type="line" smooth="yes"/>
			<point x="1034.8266666667" y="705.3333333333"/>
			<point x="1127.6133333333" y="595.04"/>
			<point x="1127.6133333333" y="405.8266666667" type="curve" smooth="yes"/>
			<point x="1127.6133333333" y="176.64"/>
			<point x="1027.3466666667" y="100.8533333333"/>
			<point x="740.5066666667" y="100.8533333333" type="curve" smooth="yes"/>
			<point x="388.3866666667" y="100.8533333333" type="line"/>
			<point x="384" y="0" type="line"/>
			<point x="768.5733333333" y="0" type="line" smooth="yes"/>
			<point x="1145.5733333333" y="0"/>
			<point x="1261.5066666667" y="160"/>
			<point x="1261.5066666667" y="413.4666666667" type="curve" smooth="yes"/>
			<point x="1261.5066666667" y="628"/>
			<point x="1125.3733333333" y="761.88"/>
			<point x="876.36" y="774" type="curve"/>
			<point x="876.36" y="755" type="line"/>
			<point x="1081.36" y="771.12"/>
			<point x="1197.5066666667" y="887.24"/>
			<point x="1197.5066666667" y="1081" type="curve" smooth="yes"/>
			<point x="1197.5066666667" y="1287.0133333333"/>
			<point x="1085.3866666667" y="1414"/>
			<point x="751.9866666667" y="1414" type="curve" smooth="yes"/>
			<point x="383.3733333333" y="1414" type="line"/>
		</contour>
		<contour>
			<point x="109.2266666667" y="0" type="line"/>
			<point x="448.68" y="0" type="line"/>
			<point x="448.68" y="1414" type="line"/>
			<point x="109.2266666667" y="1414" type="line"/>
			<point x="109.2266666667" y="1342.4666666667" type="line"/>
			<point x="317.16" y="1315.64" type="line"/>
			<point x="317.16" y="98.36" type="line"/>
			<point x="109.2266666667" y="71.5333333333" type="line"/>
		</contour>
	</outline>
	<anchor name="UCtop" x="702.7333333333" y="1414"/>
	<anchor name="bottom" x="732.7333333333" y="0"/>
</glyph>
<glyph name="C" format="2">
	<unicode hex="0043"/>
	<advance width="1506"/>
	<outline>
		<contour>
			<point x="905.9333333333" y="82.72" type="curve" smooth="yes"/>
			<point x="517.24" y="82.72"/>
			<point x="264.44" y="278.7066666667"/>
			<point x="269.6666666667" y="704.1466666667" type="curve" smooth="yes"/>
			<point x="274.1466666667" y="1132.9866666667"/>
			<point x="496.56" y="1328.5333333333"/>
			<point x="882.8" y="1328.5333333333" type="curve" smooth="yes"/>
			<point x="1030.6133333333" y="1328.5333333333"/>
			<point x="1138.1733333333" y="1302.1333333333"/>
			<point x="1284.3733333333" y="1222.2" type="curve"/>
			<point x="1220.9733333333" y="1321.12" type="line"/>
			<point x="1275.7866666667" y="979.4266666667" type="line"/>
			<point x="1369.6266666667" y="979.4266666667" type="line"/>
			<point x="1369.6266666667" y="1471.4666666667" type="line"/>
			<point x="1295.8666666667" y="1471.4666666667" type="line"/>
			<point x="1240.0666666667" y="1349.6933333333" type="line"/>
			<point x="1301.4266666667" y="1358.3333333333" type="line"/>
			<point x="1188.3547631149" y="1405.2204541604"/>
			<point x="1055.8533333333" y="1434"/>
			<point x="891.1733333333" y="1434" type="curve" smooth="yes"/>
			<point x="426.6533333333" y="1434"/>
			<point x="132.0102862029" y="1173.7592766928"/>
			<point x="129.7733333333" y="706.2666666667" type="curve" smooth="yes"/>
			<point x="127.5333333333" y="209.84"/>
			<point x="408.52" y="-20"/>
			<point x="906.7066666667" y="-20" type="curve" smooth="yes"/>
			<point x="1062.4933333333" y="-20"/>
			<point x="1223.0666666667" y="12.24"/>
			<point x="1332.96" y="58.7333333333" type="curve"/>
			<point x="1383.6133333333" y="413.2933333333" type="line"/>
			<point x="1296.8666666667" y="413.2933333333" type="line"/>
			<point x="1176.7866666667" y="56.5333333333" type="line"/>
			<point x="1283.32" y="154.2266666667" type="line"/>
			<point x="1173.2" y="105.2133333333"/>
			<point x="1020.7866666667" y="82.72"/>
		</contour>
	</outline>
	<anchor name="UCtop" x="837.9733333333" y="1414"/>
	<anchor name="bottom" x="837.9733333333" y="0"/>
	<anchor name="right" x="1276.0133333333" y="0"/>
</glyph>
<glyph name="D" format="2">
	<unicode hex="0044"/>
	<advance width="1627.7333333333"/>
	<outline>
		<contour>
			<point x="1358.6933333333" y="713.3466666667" type="curve" smooth="yes"/>
			<point x="1358.6933333333" y="280.0133333333"/>
			<point x="1141.9866666667" y="100.8533333333"/>
			<point x="736.0933333333" y="100.8533333333" type="curve" smooth="yes"/>
			<point x="370.1733333333" y="100.8533333333" type="line"/>
			<point x="370.1733333333" y="0" type="line"/>
			<point x="753.3733333333" y="0" type="line" smooth="yes"/>
			<point x="1209.24" y="0"/>
			<point x="1495.7066666667" y="228.8"/>
			<point x="1495.7066666667" y="717.8266666667" type="curve" smooth="yes"/>
			<point x="1495.7066666667" y="1192.6666666667"/>
			<point x="1226.04" y="1414"/>
			<point x="756.7333333333" y="1414" type="curve" smooth="yes"/>
			<point x="370.1733333333" y="1414" type="line"/>
			<point x="370.1733333333" y="1313.1466666667" type="line"/>
			<point x="716.3066666667" y="1313.1466666667" type="line" smooth="yes"/>
			<point x="1143.48" y="1313.1466666667"/>
			<point x="1358.6933333333" y="1131.7466666667"/>
		</contour>
		<contour>
			<point x="106.24" y="0" type="line"/>
			<point x="449.4266666667" y="0" type="line"/>
			<point x="449.4266666667" y="1414" type="line"/>
			<point x="106.24" y="1414" type="line"/>
			<point x="106.24" y="1342.4666666667" type="line"/>
			<point x="317.9066666667" y="1315.64" type="line"/>
			<point x="317.9066666667" y="98.36" type="line"/>
			<point x="106.24" y="71.5333333333" type="line"/>
		</contour>
	</outline>
	<anchor name="UCtop" x="838.3333333333" y="1414"/>
	<anchor name="bottom" x="838.3333333333" y="0"/>
</glyph>
<glyph name="E" format="2">
	<unicode hex="0045"/>
	<advance width="1460.1733333333"/>
	<outline>
		<contour>
			<point x="991.8666666667" y="988.7466666667" type="line"/>
			<point x="911.6266666667" y="988.7466666667" type="line"/>
			<point x="885.8533333333" y="785.5466666667" type="line"/>
			<point x="393.36" y="785.5466666667" type="line"/>
			<point x="393.36" y="684.6933333333" type="line"/>
			<point x="885.8533333333" y="684.6933333333" type="line"/>
			<point x="911.6266666667" y="478.12" type="line"/>
			<point x="991.8666666667" y="478.12" type="line"/>
			<point x="991.8666666667" y="733.12" type="line"/>
		</contour>
		<contour>
			<point x="1305.2666666667" y="1058.2933333333" type="line"/>
			<point x="1309.6533333333" y="1484" type="line"/>
			<point x="1238.1333333333" y="1484" type="line"/>
			<point x="1184.32" y="1414" type="line"/>
			<point x="358.8933333333" y="1414" type="line"/>
			<point x="358.8933333333" y="1313.1466666667" type="line"/>
			<point x="1223.4266666667" y="1313.1466666667" type="line"/>
			<point x="1165.7333333333" y="1379.6" type="line"/>
			<point x="1214.7733333333" y="1058.2933333333" type="line"/>
		</contour>
		<contour>
			<point x="1158.4933333333" y="53.2" type="line"/>
			<point x="1227.12" y="100.8533333333" type="line"/>
			<point x="358.8933333333" y="100.8533333333" type="line"/>
			<point x="358.8933333333" y="0" type="line"/>
			<point x="1177.1866666667" y="0" type="line"/>
			<point x="1201.0133333333" y="-72" type="line"/>
			<point x="1289.7866666667" y="-72" type="line"/>
			<point x="1363.28" y="399.4133333333" type="line"/>
			<point x="1276.28" y="399.4133333333" type="line"/>
		</contour>
		<contour>
			<point x="106.24" y="0" type="line"/>
			<point x="449.4266666667" y="0" type="line"/>
			<point x="449.4266666667" y="1414" type="line"/>
			<point x="106.24" y="1414" type="line"/>
			<point x="106.24" y="1342.4666666667" type="line"/>
			<point x="317.9066666667" y="1315.64" type="line"/>
			<point x="317.9066666667" y="98.36" type="line"/>
			<point x="106.24" y="71.5333333333" type="line"/>
		</contour>
	</outline>
	<anchor name="UCtop" x="764.0266666667" y="1414"/>
	<anchor name="right" x="1222.1333333333" y="0"/>
	<anchor name="bottom" x="758.44" y="0"/>
</glyph>
<glyph name="F" format="2">
	<unicode hex="0046"/>
	<advance width="1342.9866666667"/>
	<outline>
		<contour>
			<point x="988.1333333333" y="932.7733333333" type="line"/>
			<point x="907.8933333333" y="932.7733333333" type="line"/>
			<point x="882.12" y="725.84" type="line"/>
			<point x="393.36" y="725.84" type="line"/>
			<point x="393.36" y="624.9866666667" type="line"/>
			<point x="882.12" y="624.9866666667" type="line"/>
			<point x="907.8933333333" y="414.68" type="line"/>
			<point x="988.1333333333" y="414.68" type="line"/>
			<point x="988.1333333333" y="673.4133333333" type="line"/>
		</contour>
		<contour>
			<point x="1189.3333333333" y="1484" type="line"/>
			<point x="1135.52" y="1414" type="line"/>
			<point x="358.8933333333" y="1414" type="line"/>
			<point x="358.8933333333" y="1313.1466666667" type="line"/>
			<point x="1174.6266666667" y="1313.1466666667" type="line"/>
			<point x="1116.9333333333" y="1379.6" type="line"/>
			<point x="1165.9733333333" y="1048.5866666667" type="line"/>
			<point x="1256.4666666667" y="1048.5866666667" type="line"/>
			<point x="1260.8533333333" y="1484" type="line"/>
		</contour>
		<contour>
			<point x="449.4266666667" y="1414" type="line"/>
			<point x="106.24" y="1414" type="line"/>
			<point x="106.24" y="1342.4666666667" type="line"/>
			<point x="317.9066666667" y="1315.64" type="line"/>
			<point x="317.9066666667" y="98.36" type="line"/>
			<point x="106.24" y="71.5333333333" type="line"/>
			<point x="106.24" y="0" type="line"/>
			<point x="661.0933333333" y="0" type="line"/>
			<point x="661.0933333333" y="71.5333333333" type="line"/>
			<point x="449.4266666667" y="98.36" type="line"/>
		</contour>
	</outline>
	<anchor name="UCtop" x="711.72" y="1414"/>
	<anchor name="bottom" x="383.6666666667" y="0"/>
</glyph>
<glyph name="G" format="2">
	<unicode hex="0047"/>
	<advance width="1623.1866666667"/>
	<outline>
		<contour>
			<point x="1348.64" y="142.9333333333" type="line"/>
			<point x="1348.64" y="578.64" type="line"/>
			<point x="1514.04" y="605.4666666667" type="line"/>
			<point x="1514.04" y="677" type="line"/>
			<point x="971.72" y="677" type="line"/>
			<point x="971.72" y="605.4666666667" type="line"/>
			<point x="1217.12" y="578.64" type="line"/>
			<point x="1217.12" y="50.8933333333" type="line"/>
			<point x="1272.2933333333" y="147.1466666667" type="line"/>
			<point x="1158.5066666667" y="97.5733333333"/>
			<point x="1026.4266666667" y="82.72"/>
			<point x="907.1866666667" y="82.72" type="curve" smooth="yes"/>
			<point x="518.4933333333" y="82.72"/>
			<point x="265.6933333333" y="278.7066666667"/>
			<point x="270.92" y="704.1466666667" type="curve" smooth="yes"/>
			<point x="275.4" y="1132.9866666667"/>
			<point x="494.5466666667" y="1328.5333333333"/>
			<point x="883.4" y="1328.5333333333" type="curve" smooth="yes"/>
			<point x="1031.2133333333" y="1328.5333333333"/>
			<point x="1138.7733333333" y="1302.1333333333"/>
			<point x="1284.9733333333" y="1222.2" type="curve"/>
			<point x="1221.5733333333" y="1321.12" type="line"/>
			<point x="1276.3866666667" y="986.8933333333" type="line"/>
			<point x="1370.2266666667" y="986.8933333333" type="line"/>
			<point x="1370.2266666667" y="1471.4666666667" type="line"/>
			<point x="1296.4666666667" y="1471.4666666667" type="line"/>
			<point x="1240.6666666667" y="1349.6933333333" type="line"/>
			<point x="1302.0266666667" y="1358.3333333333" type="line"/>
			<point x="1188.8933333333" y="1405.24"/>
			<point x="1056.4533333333" y="1434.3733333333"/>
			<point x="891.7733333333" y="1434.3733333333" type="curve" smooth="yes"/>
			<point x="424.3866666667" y="1434.3733333333"/>
			<point x="132.64" y="1174"/>
			<point x="130.4" y="706.2666666667" type="curve" smooth="yes"/>
			<point x="128.16" y="209.84"/>
			<point x="415.4133333333" y="-20"/>
			<point x="924.88" y="-20" type="curve" smooth="yes"/>
			<point x="1130.6" y="-20"/>
			<point x="1352.2133333333" y="25.1066666667"/>
			<point x="1498.04" y="86.04" type="curve"/>
			<point x="1498.04" y="142.9333333333" type="line"/>
		</contour>
	</outline>
	<anchor name="UCtop" x="840.7066666667" y="1414"/>
	<anchor name="bottom" x="865.72" y="0"/>
</glyph>
<glyph name="H" format="2">
	<unicode hex="0048"/>
	<advance width="1734.6933333333"/>
	<outline>
		<contour>
			<point x="449.4266666667" y="98.36" type="line"/>
			<point x="449.4266666667" y="1315.64" type="line"/>
			<point x="661.0933333333" y="1342.4666666667" type="line"/>
			<point x="661.0933333333" y="1414" type="line"/>
			<point x="106.24" y="1414" type="line"/>
			<point x="106.24" y="1342.4666666667" type="line"/>
			<point x="317.9066666667" y="1315.64" type="line"/>
			<point x="317.9066666667" y="98.36" type="line"/>
			<point x="106.24" y="71.5333333333" type="line"/>
			<point x="106.24" y="0" type="line"/>
			<point x="661.0933333333" y="0" type="line"/>
			<point x="661.0933333333" y="71.5333333333" type="line"/>
		</contour>
		<contour>
			<point x="1416.7866666667" y="98.36" type="line"/>
			<point x="1416.7866666667" y="1315.64" type="line"/>
			<point x="1628.4533333333" y="1342.4666666667" type="line"/>
			<point x="1628.4533333333" y="1414" type="line"/>
			<point x="1073.6" y="1414" type="line"/>
			<point x="1073.6" y="1342.4666666667" type="line"/>
			<point x="1285.2666666667" y="1315.64" type="line"/>
			<point x="1285.2666666667" y="98.36" type="line"/>
			<point x="1073.6" y="71.5333333333" type="line"/>
			<point x="1073.6" y="0" type="line"/>
			<point x="1628.4533333333" y="0" type="line"/>
			<point x="1628.4533333333" y="71.5333333333" type="line"/>
		</contour>
		<contour>
			<point x="370.1733333333" y="675.84" type="line"/>
			<point x="1364.8933333333" y="675.84" type="line"/>
			<point x="1364.8933333333" y="776.6933333333" type="line"/>
			<point x="370.1733333333" y="776.6933333333" type="line"/>
		</contour>
	</outline>
	<anchor name="UCtop" x="867.5333333333" y="1414"/>
	<anchor name="bottom" x="867.5333333333" y="0"/>
</glyph>
<glyph name="I" format="2">
	<unicode hex="0049"/>
	<advance width="767.3333333333"/>
	<outline>
		<contour>
			<point x="661.0933333333" y="71.5333333333" type="line"/>
			<point x="449.4266666667" y="98.36" type="line"/>
			<point x="449.4266666667" y="1315.64" type="line"/>
			<point x="661.0933333333" y="1342.4666666667" type="line"/>
			<point x="661.0933333333" y="1414" type="line"/>
			<point x="106.24" y="1414" type="line"/>
			<point x="106.24" y="1342.4666666667" type="line"/>
			<point x="317.9066666667" y="1315.64" type="line"/>
			<point x="317.9066666667" y="98.36" type="line"/>
			<point x="106.24" y="71.5333333333" type="line"/>
			<point x="106.24" y="0" type="line"/>
			<point x="661.0933333333" y="0" type="line"/>
		</contour>
	</outline>
	<anchor name="UCtop" x="383.6666666667" y="1414"/>
	<anchor name="right" x="510.5066666667" y="0"/>
	<anchor name="bottom" x="383.6666666667" y="0"/>
</glyph>
<glyph name="J" format="2">
	<unicode hex="004A"/>
	<advance width="1030.8666666667"/>
	<outline>
		<contour>
			<point x="736.7066666667" y="361.9333333333" type="curve" smooth="yes"/>
			<point x="736.7066666667" y="1315.64" type="line"/>
			<point x="948.3733333333" y="1342.4666666667" type="line"/>
			<point x="948.3733333333" y="1414" type="line"/>
			<point x="393.52" y="1414" type="line"/>
			<point x="393.52" y="1342.4666666667" type="line"/>
			<point x="605.1866666667" y="1315.64" type="line"/>
			<point x="605.1866666667" y="349.32" type="line" smooth="yes"/>
			<point x="605.1866666667" y="154.8666666667"/>
			<point x="518.6666666667" y="83.3333333333"/>
			<point x="321.0533333333" y="83.3333333333" type="curve" smooth="yes"/>
			<point x="185.6266666667" y="83.3333333333"/>
			<point x="150.1466666667" y="179"/>
			<point x="114.92" y="179" type="curve" smooth="yes"/>
			<point x="63.84" y="179"/>
			<point x="37.88" y="148.5466666667"/>
			<point x="37.88" y="102.6133333333" type="curve" smooth="yes"/>
			<point x="37.88" y="32.0533333333"/>
			<point x="104.6133333333" y="-18.5066666667"/>
			<point x="313.6133333333" y="-18.5066666667" type="curve" smooth="yes"/>
			<point x="606.72" y="-18.5066666667"/>
			<point x="736.7066666667" y="112.44"/>
		</contour>
	</outline>
	<anchor name="UCtop" x="670.9466666667" y="1414"/>
	<anchor name="bottom" x="436.16" y="0"/>
</glyph>
<glyph name="K" format="2">
	<unicode hex="004B"/>
	<advance width="1598.6666666667"/>
	<outline>
		<contour>
			<point x="1378.96" y="93.1333333333" type="line"/>
			<point x="730.32" y="795.4533333333" type="line"/>
			<point x="724.6133333333" y="721.6533333333" type="line"/>
			<point x="1292.4933333333" y="1315.64" type="line"/>
			<point x="1474.9066666667" y="1342.4666666667" type="line"/>
			<point x="1474.9066666667" y="1414" type="line"/>
			<point x="983.2533333333" y="1414" type="line"/>
			<point x="983.2533333333" y="1342.4666666667" type="line"/>
			<point x="1162.68" y="1317.88" type="line"/>
			<point x="668.2266666667" y="790.2" type="line"/>
			<point x="418.52" y="790.2" type="line"/>
			<point x="418.52" y="689.3466666667" type="line"/>
			<point x="655.9866666667" y="689.3466666667" type="line"/>
			<point x="1214.9866666667" y="79.68" type="line"/>
			<point x="1082.76" y="56.6" type="line"/>
			<point x="1082.76" y="0" type="line"/>
			<point x="1566.2933333333" y="0" type="line"/>
			<point x="1566.2933333333" y="71.5333333333" type="line"/>
		</contour>
		<contour>
			<point x="449.4266666667" y="1315.64" type="line"/>
			<point x="661.0933333333" y="1342.4666666667" type="line"/>
			<point x="661.0933333333" y="1414" type="line"/>
			<point x="106.24" y="1414" type="line"/>
			<point x="106.24" y="1342.4666666667" type="line"/>
			<point x="317.9066666667" y="1315.64" type="line"/>
			<point x="317.9066666667" y="98.36" type="line"/>
			<point x="106.24" y="71.5333333333" type="line"/>
			<point x="106.24" y="0" type="line"/>
			<point x="661.0933333333" y="0" type="line"/>
			<point x="661.0933333333" y="71.5333333333" type="line"/>
			<point x="449.4266666667" y="98.36" type="line"/>
		</contour>
	</outline>
	<anchor name="bottom" x="844.3066666667" y="0"/>
	<anchor name="UCtop" x="798.7466666667" y="1414"/>
</glyph>
<glyph name="L" format="2">
	<unicode hex="004C"/>
	<advance width="1335.9866666667"/>
	<outline>
		<contour>
			<point x="1198.7466666667" y="-72" type="line"/>
			<point x="1274.1066666667" y="421.8133333333" type="line"/>
			<point x="1187.1066666667" y="421.8133333333" type="line"/>
			<point x="1064.84" y="53.2" type="line"/>
			<point x="1136.08" y="98.3466666667" type="line"/>
			<point x="358.8933333333" y="98.3466666667" type="line"/>
			<point x="358.8933333333" y="0" type="line"/>
			<point x="1086.1466666667" y="0" type="line"/>
			<point x="1109.9733333333" y="-72" type="line"/>
		</contour>
		<contour>
			<point x="449.4266666667" y="1315.64" type="line"/>
			<point x="661.0933333333" y="1342.4666666667" type="line"/>
			<point x="661.0933333333" y="1414" type="line"/>
			<point x="106.24" y="1414" type="line"/>
			<point x="106.24" y="1342.4666666667" type="line"/>
			<point x="317.9066666667" y="1315.64" type="line"/>
			<point x="317.9066666667" y="98.36" type="line"/>
			<point x="106.24" y="71.5333333333" type="line"/>
			<point x="106.24" y="0" type="line"/>
			<point x="449.4266666667" y="0" type="line"/>
		</contour>
	</outline>
	<anchor name="UCtop" x="383.6666666667" y="1414"/>
	<anchor name="bottom" x="666.44" y="0"/>
	<anchor name="mid" x="1060.64" y="772"/>
	<anchor name="right" x="700.24" y="1414"/>
</glyph>
<glyph name="M" format="2">
  <advance width="2120"/>
  <unicode hex="004D"/>
  <anchor x="1066.88" y="1414.0" name="UCtop"/>
  <anchor x="1048.1599999999999" y="0.0" name="bottom"/>
  <outline>
    <contour>
      <point x="1833.8933333333332" y="98.36" type="line"/>
      <point x="1749.12" y="1310.0266666666666" type="line"/>
      <point x="1958.7866666666669" y="1343.0933333333335" type="line"/>
      <point x="1958.7866666666669" y="1414.0" type="line"/>
      <point x="1563.4666666666667" y="1414.0" type="line"/>
      <point x="1050.8933333333332" y="84.70666666666666" type="line"/>
      <point x="1072.4" y="84.70666666666666" type="line"/>
      <point x="551.8" y="1414.0" type="line"/>
      <point x="145.37333333333333" y="1414.0" type="line"/>
      <point x="145.37333333333333" y="1342.4666666666667" type="line"/>
      <point x="364.92" y="1305.6533333333334" type="line"/>
      <point x="286.05333333333334" y="98.36" type="line"/>
      <point x="84.83999999999999" y="71.53333333333333" type="line"/>
      <point x="84.83999999999999" y="0.0" type="line"/>
      <point x="597.2" y="0.0" type="line"/>
      <point x="597.2" y="71.53333333333333" type="line"/>
      <point x="389.2666666666667" y="98.36" type="line"/>
      <point x="466.38666666666666" y="1309.76" type="line"/>
      <point x="453.1333333333333" y="1307.76" type="line"/>
      <point x="968.4533333333334" y="0.0" type="line"/>
      <point x="1111.9333333333334" y="0.0" type="line"/>
      <point x="1630.48" y="1324.9066666666668" type="line"/>
      <point x="1617.8533333333335" y="1326.9066666666668" type="line"/>
      <point x="1704.0" y="98.36" type="line"/>
      <point x="1496.0666666666666" y="71.53333333333333" type="line"/>
      <point x="1496.0666666666666" y="0.0" type="line"/>
      <point x="2041.8266666666664" y="0.0" type="line"/>
      <point x="2041.8266666666664" y="71.53333333333333" type="line"/>
    </contour>
  </outline>
</glyph>
<glyph name="N" format="2">
	<unicode hex="004E"/>
	<advance width="1721.1866666667"/>
	<outline>
		<contour>
			<point x="317.16" y="98.36" type="line"/>
			<point x="108.48" y="71.5333333333" type="line"/>
			<point x="108.48" y="0" type="line"/>
			<point x="637.3866666667" y="0" type="line"/>
			<point x="637.3866666667" y="71.5333333333" type="line"/>
			<point x="421.9866666667" y="98.36" type="line"/>
			<point x="421.9866666667" y="1331.84" type="line"/>
			<point x="394.52" y="1328.08" type="line"/>
			<point x="1257.4666666667" y="-12.5333333333" type="line"/>
			<point x="1425.7733333333" y="-12.5333333333" type="line"/>
			<point x="1425.7733333333" y="1315.64" type="line"/>
			<point x="1634.4533333333" y="1342.4666666667" type="line"/>
			<point x="1634.4533333333" y="1414" type="line"/>
			<point x="1105.5466666667" y="1414" type="line"/>
			<point x="1105.5466666667" y="1342.4666666667" type="line"/>
			<point x="1320.9466666667" y="1315.64" type="line"/>
			<point x="1320.9466666667" y="19.1466666667" type="line"/>
			<point x="1351.4666666667" y="68.6933333333" type="line"/>
			<point x="487.0533333333" y="1414" type="line"/>
			<point x="108.48" y="1414" type="line"/>
			<point x="108.48" y="1342.4666666667" type="line"/>
			<point x="317.16" y="1315.64" type="line"/>
		</contour>
	</outline>
	<anchor name="UCtop" x="872.04" y="1414"/>
	<anchor name="bottom" x="891.4666666667" y="0"/>
</glyph>
<glyph name="O" format="2">
	<unicode hex="004F"/>
	<advance width="1659.5333333333"/>
	<outline>
		<contour>
			<point x="824.32" y="1434" type="curve" smooth="yes"/>
			<point x="401.76" y="1434"/>
			<point x="129.6533333333" y="1155.3066666667"/>
			<point x="129.6533333333" y="706.2533333333" type="curve" smooth="yes"/>
			<point x="129.6533333333" y="260.8266666667"/>
			<point x="391.8533333333" y="-20"/>
			<point x="835.2133333333" y="-20" type="curve" smooth="yes"/>
			<point x="1257.7733333333" y="-20"/>
			<point x="1529.88" y="258.6933333333"/>
			<point x="1529.88" y="707.7466666667" type="curve" smooth="yes"/>
			<point x="1529.88" y="1153.1733333333"/>
			<point x="1267.68" y="1434"/>
		</contour>
		<contour>
			<point x="838.4533333333" y="86.2133333333" type="curve" smooth="yes"/>
			<point x="472.2533333333" y="86.2133333333"/>
			<point x="266.6666666667" y="309.0933333333"/>
			<point x="266.6666666667" y="719.5733333333" type="curve" smooth="yes"/>
			<point x="266.6666666667" y="1099.96"/>
			<point x="454.9733333333" y="1327.7866666667"/>
			<point x="821.08" y="1327.7866666667" type="curve" smooth="yes"/>
			<point x="1187.28" y="1327.7866666667"/>
			<point x="1392.8666666667" y="1104.9066666667"/>
			<point x="1392.8666666667" y="694.4266666667" type="curve" smooth="yes"/>
			<point x="1392.8666666667" y="314.04"/>
			<point x="1204.56" y="86.2133333333"/>
		</contour>
	</outline>
	<anchor name="UCtop" x="830.08" y="1414"/>
	<anchor name="bottom" x="830.08" y="0"/>
	<anchor name="horn" x="1163.7466666667" y="1414"/>
	<anchor name="right" x="996.92" y="0"/>
</glyph>
<glyph name="P" format="2">
	<unicode hex="0050"/>
	<advance width="1356.1066666667"/>
	<outline>
		<contour>
			<point x="1128.0666666667" y="1010.4266666667" type="curve" smooth="yes"/>
			<point x="1128.0666666667" y="786.0933333333"/>
			<point x="1011.04" y="692.68"/>
			<point x="802.2266666667" y="692.68" type="curve" smooth="yes"/>
			<point x="365.64" y="692.68" type="line"/>
			<point x="365.64" y="591.8266666667" type="line"/>
			<point x="795.0533333333" y="591.8266666667" type="line" smooth="yes"/>
			<point x="1119.9466666667" y="591.8266666667"/>
			<point x="1263.08" y="744.5066666667"/>
			<point x="1263.08" y="1008.7866666667" type="curve" smooth="yes"/>
			<point x="1263.08" y="1268.1733333333"/>
			<point x="1131.9733333333" y="1414"/>
			<point x="731.6" y="1414" type="curve" smooth="yes"/>
			<point x="358.7466666667" y="1414" type="line"/>
			<point x="358.7466666667" y="1313.1466666667" type="line"/>
			<point x="697.3066666667" y="1313.1466666667" type="line" smooth="yes"/>
			<point x="1037.04" y="1313.1466666667"/>
			<point x="1128.0666666667" y="1212.36"/>
		</contour>
		<contour>
			<point x="449.4266666667" y="1414" type="line"/>
			<point x="106.24" y="1414" type="line"/>
			<point x="106.24" y="1342.4666666667" type="line"/>
			<point x="317.9066666667" y="1315.64" type="line"/>
			<point x="317.9066666667" y="98.36" type="line"/>
			<point x="106.24" y="71.5333333333" type="line"/>
			<point x="106.24" y="0" type="line"/>
			<point x="661.0933333333" y="0" type="line"/>
			<point x="661.0933333333" y="71.5333333333" type="line"/>
			<point x="449.4266666667" y="98.36" type="line"/>
		</contour>
	</outline>
	<anchor name="UCtop" x="742.3333333333" y="1414"/>
	<anchor name="bottom" x="383.6666666667" y="0"/>
</glyph>
<glyph name="Q" format="2">
	<unicode hex="0051"/>
	<advance width="1659.5333333333"/>
	<outline>
		<contour>
			<point x="926.7466666667" y="-309.8533333333" type="line" smooth="yes"/>
			<point x="1064.2266666667" y="-420.9066666667"/>
			<point x="1150.5466666667" y="-458.7333333333"/>
			<point x="1289.8266666667" y="-458.7333333333" type="curve" smooth="yes"/>
			<point x="1346.84" y="-458.7333333333"/>
			<point x="1398.3466666667" y="-452.36"/>
			<point x="1448.5466666667" y="-445" type="curve"/>
			<point x="1448.5466666667" y="-361.1066666667" type="line"/>
			<point x="1263.92" y="-376.1066666667"/>
			<point x="1213.3066666667" y="-361.4933333333"/>
			<point x="1030.68" y="-228.1466666667" type="curve" smooth="yes"/>
			<point x="598.9066666667" y="84.8933333333" type="line"/>
			<point x="557.76" y="49.5066666667" type="line"/>
			<point x="1121.6933333333" y="-123.6"/>
			<point x="1529.88" y="173.2133333333"/>
			<point x="1529.88" y="707.7466666667" type="curve" smooth="yes"/>
			<point x="1529.88" y="1153.1733333333"/>
			<point x="1267.68" y="1434"/>
			<point x="824.32" y="1434" type="curve" smooth="yes"/>
			<point x="401.76" y="1434"/>
			<point x="129.6533333333" y="1155.3066666667"/>
			<point x="129.6533333333" y="706.2533333333" type="curve" smooth="yes"/>
			<point x="129.6533333333" y="428.1466666667"/>
			<point x="228.3066666667" y="239.64"/>
			<point x="392.7066666667" y="108.56" type="curve" smooth="yes"/>
		</contour>
		<contour>
			<point x="838.4533333333" y="86.2133333333" type="curve" smooth="yes"/>
			<point x="472.2533333333" y="86.2133333333"/>
			<point x="266.6666666667" y="309.0933333333"/>
			<point x="266.6666666667" y="719.5733333333" type="curve" smooth="yes"/>
			<point x="266.6666666667" y="1099.96"/>
			<point x="454.9733333333" y="1327.7866666667"/>
			<point x="821.08" y="1327.7866666667" type="curve" smooth="yes"/>
			<point x="1187.28" y="1327.7866666667"/>
			<point x="1392.8666666667" y="1104.9066666667"/>
			<point x="1392.8666666667" y="694.4266666667" type="curve" smooth="yes"/>
			<point x="1392.8666666667" y="314.04"/>
			<point x="1204.56" y="86.2133333333"/>
		</contour>
	</outline>
	<anchor name="UCtop" x="830.08" y="1414"/>
	<anchor name="bottom" x="830.08" y="-444"/>
</glyph>
<glyph name="R" format="2">
  <advance width="1480.84"/>
  <unicode hex="0052"/>
  <anchor x="729.92" y="1414.0" name="UCtop"/>
  <anchor x="822.4533333333334" y="0.0" name="bottom"/>
  <outline>
    <contour>
      <point x="804.1866666666666" y="757.4266666666667" type="curve" smooth="yes"/>
      <point x="380.38666666666666" y="757.4266666666667" type="line"/>
      <point x="402.94666666666666" y="656.5733333333333" type="line"/>
      <point x="830.9333333333334" y="656.5733333333333" type="line" smooth="yes"/>
      <point x="974.7466666666666" y="656.5733333333333"/>
      <point x="1017.76" y="621.2266666666666"/>
      <point x="1043.7466666666667" y="470.37333333333333" type="curve" smooth="yes"/>
      <point x="1091.3866666666668" y="185.56" type="line" smooth="yes"/>
      <point x="1122.4933333333333" y="7.346666666666666"/>
      <point x="1175.2666666666667" y="-9.253333333333334"/>
      <point x="1413.6000000000001" y="0.0" type="curve"/>
      <point x="1413.6000000000001" y="80.90666666666665" type="line"/>
      <point x="1277.04" y="74.63999999999999"/>
      <point x="1243.2666666666667" y="89.50666666666666"/>
      <point x="1222.28" y="207.61333333333334" type="curve" smooth="yes"/>
      <point x="1171.28" y="497.7333333333333" type="line" smooth="yes"/>
      <point x="1147.4133333333334" y="632.7466666666667"/>
      <point x="1104.7066666666667" y="701.0"/>
      <point x="949.9599999999999" y="714.6266666666667" type="curve"/>
      <point x="949.9599999999999" y="705.2533333333333" type="line"/>
      <point x="1164.4533333333334" y="745.5066666666667"/>
      <point x="1247.2933333333333" y="877.4"/>
      <point x="1247.2933333333333" y="1057.7466666666667" type="curve" smooth="yes"/>
      <point x="1247.2933333333333" y="1279.3866666666668"/>
      <point x="1127.3066666666668" y="1414.0"/>
      <point x="751.4" y="1414.0" type="curve" smooth="yes"/>
      <point x="352.81333333333333" y="1414.0" type="line"/>
      <point x="373.4933333333333" y="1313.1466666666665" type="line"/>
      <point x="704.0133333333333" y="1313.1466666666665" type="line" smooth="yes"/>
      <point x="1038.6533333333332" y="1313.1466666666665"/>
      <point x="1114.6533333333334" y="1221.48"/>
      <point x="1114.6533333333334" y="1041.8" type="curve" smooth="yes"/>
      <point x="1114.6533333333334" y="841.4666666666667"/>
      <point x="1003.0" y="757.4266666666667"/>
    </contour>
    <contour>
      <point x="449.4266666666667" y="1414.0" type="line"/>
      <point x="106.24" y="1414.0" type="line"/>
      <point x="106.24" y="1342.4666666666667" type="line"/>
      <point x="317.9066666666667" y="1315.64" type="line"/>
      <point x="317.9066666666667" y="98.36" type="line"/>
      <point x="106.24" y="71.53333333333333" type="line"/>
      <point x="106.24" y="0.0" type="line"/>
      <point x="661.0933333333332" y="0.0" type="line"/>
      <point x="661.0933333333332" y="71.53333333333333" type="line"/>
      <point x="449.4266666666667" y="98.36" type="line"/>
    </contour>
  </outline>
</glyph>
<glyph name="T" format="2">
	<unicode hex="0054"/>
	<advance width="1462.2666666667"/>
	<outline>
		<contour>
			<point x="665.3733333333" y="1385.72" type="line"/>
			<point x="665.3733333333" y="98.36" type="line"/>
			<point x="446.24" y="71.5333333333" type="line"/>
			<point x="446.24" y="0" type="line"/>
			<point x="1016.0266666667" y="0" type="line"/>
			<point x="1016.0266666667" y="71.5333333333" type="line"/>
			<point x="796.8933333333" y="98.36" type="line"/>
			<point x="796.8933333333" y="1385.72" type="line"/>
		</contour>
		<contour>
			<point x="1260.3466666667" y="1313.1466666667" type="line"/>
			<point x="1204.9733333333" y="1343.6266666667" type="line"/>
			<point x="1302.0266666667" y="1008.9066666667" type="line"/>
			<point x="1398.3866666667" y="1008.9066666667" type="line"/>
			<point x="1327.4" y="1491.4666666667" type="line"/>
			<point x="1244.2266666667" y="1491.4666666667" type="line"/>
			<point x="1208.72" y="1395.3866666667" type="line"/>
			<point x="1299.6266666667" y="1414" type="line"/>
			<point x="175.1733333333" y="1414" type="line"/>
			<point x="253.5466666667" y="1395.3866666667" type="line"/>
			<point x="218.04" y="1491.4666666667" type="line"/>
			<point x="134.8666666667" y="1491.4666666667" type="line"/>
			<point x="63.88" y="1008.9066666667" type="line"/>
			<point x="160.24" y="1008.9066666667" type="line"/>
			<point x="257.2933333333" y="1343.6266666667" type="line"/>
			<point x="201.92" y="1313.1466666667" type="line"/>
		</contour>
	</outline>
	<anchor name="UCtop" x="731.1333333333" y="1414"/>
	<anchor name="bottom" x="731.1333333333" y="0"/>
</glyph>
<glyph name="U" format="2">
	<unicode hex="0055"/>
	<advance width="1682.6533333333"/>
	<outline>
		<contour>
			<point x="1288.52" y="529.5733333333" type="line" smooth="yes"/>
			<point x="1288.52" y="202.8666666667"/>
			<point x="1147.3733333333" y="89.2"/>
			<point x="866.3066666667" y="89.2" type="curve" smooth="yes"/>
			<point x="551.6933333333" y="89.2"/>
			<point x="419.2" y="207.9733333333"/>
			<point x="419.2" y="552.08" type="curve" smooth="yes"/>
			<point x="419.2" y="1315.64" type="line"/>
			<point x="630.8666666667" y="1342.4666666667" type="line"/>
			<point x="630.8666666667" y="1414" type="line"/>
			<point x="76.0133333333" y="1414" type="line"/>
			<point x="76.0133333333" y="1342.4666666667" type="line"/>
			<point x="287.68" y="1315.64" type="line"/>
			<point x="287.68" y="538.2933333333" type="line" smooth="yes"/>
			<point x="287.68" y="134.08"/>
			<point x="470.7466666667" y="-20"/>
			<point x="856.8133333333" y="-20" type="curve" smooth="yes"/>
			<point x="1191.36" y="-20"/>
			<point x="1394.6" y="134.4266666667"/>
			<point x="1394.6" y="513.2533333333" type="curve" smooth="yes"/>
			<point x="1394.6" y="1315.64" type="line"/>
			<point x="1606.2666666667" y="1342.4666666667" type="line"/>
			<point x="1606.2666666667" y="1414" type="line"/>
			<point x="1076.8533333333" y="1414" type="line"/>
			<point x="1076.8533333333" y="1342.4666666667" type="line"/>
			<point x="1288.52" y="1315.64" type="line"/>
		</contour>
	</outline>
	<anchor name="UCtop" x="857.6666666667" y="1414"/>
	<anchor name="right" x="1011.28" y="0"/>
	<anchor name="bottom" x="846.4666666667" y="0"/>
	<anchor name="horn" x="1454.9333333333" y="1414"/>
</glyph>
<glyph name="V" format="2">
	<unicode hex="0056"/>
	<advance width="1586.1466666667"/>
	<outline>
		<contour>
			<point x="199.6533333333" y="1316.2666666667" type="line"/>
			<point x="735.08" y="-7.4666666667" type="line"/>
			<point x="893.4266666667" y="-7.4666666667" type="line"/>
			<point x="1379.7333333333" y="1315.64" type="line"/>
			<point x="1565.28" y="1342.4666666667" type="line"/>
			<point x="1565.28" y="1414" type="line"/>
			<point x="1071.0133333333" y="1414" type="line"/>
			<point x="1071.0133333333" y="1342.4666666667" type="line"/>
			<point x="1268.2933333333" y="1316.2666666667" type="line"/>
			<point x="818.6666666667" y="55.44" type="line"/>
			<point x="848.8666666667" y="55.44" type="line"/>
			<point x="345.8933333333" y="1315.64" type="line"/>
			<point x="555.7066666667" y="1342.4666666667" type="line"/>
			<point x="555.7066666667" y="1414" type="line"/>
			<point x="4.2533333333" y="1414" type="line"/>
			<point x="4.2533333333" y="1342.4666666667" type="line"/>
		</contour>
	</outline>
	<anchor name="UCtop" x="822.5466666667" y="1414"/>
	<anchor name="bottom" x="808.8133333333" y="0"/>
</glyph>
<glyph name="W" format="2">
	<unicode hex="0057"/>
	<advance width="2158.4"/>
	<outline>
		<contour>
			<point x="1102.0266666667" y="1315.6533333333" type="line"/>
			<point x="1081.64" y="1315.6533333333" type="line"/>
			<point x="1477.96" y="0" type="line"/>
			<point x="1649.4133333333" y="0" type="line"/>
			<point x="1952.12" y="1315.64" type="line"/>
			<point x="2132.6533333333" y="1342.4666666667" type="line"/>
			<point x="2132.6533333333" y="1414" type="line"/>
			<point x="1642.7466666667" y="1414" type="line"/>
			<point x="1642.7466666667" y="1342.4666666667" type="line"/>
			<point x="1845.04" y="1316.2666666667" type="line"/>
			<point x="1567.3066666667" y="62.4933333333" type="line"/>
			<point x="1598.0933333333" y="62.4933333333" type="line"/>
			<point x="1188.72" y="1414" type="line"/>
			<point x="1025.6133333333" y="1414" type="line"/>
			<point x="611.9333333333" y="74.8133333333" type="line"/>
			<point x="633.1333333333" y="74.8133333333" type="line"/>
			<point x="360.2666666667" y="1315.64" type="line"/>
			<point x="568.2" y="1342.4666666667" type="line"/>
			<point x="568.2" y="1414" type="line"/>
			<point x="15.7333333333" y="1414" type="line"/>
			<point x="15.7333333333" y="1342.4666666667" type="line"/>
			<point x="220.16" y="1316.2666666667" type="line"/>
			<point x="513.5066666667" y="0" type="line"/>
			<point x="687.68" y="0" type="line"/>
		</contour>
	</outline>
	<anchor name="UCtop" x="1081.9733333333" y="1414"/>
	<anchor name="bottom" x="1098.24" y="0"/>
</glyph>
<glyph name="X" format="2">
	<unicode hex="0058"/>
	<advance width="1653.9066666667"/>
	<outline>
		<contour>
			<point x="838.1733333333" y="688.9333333333" type="line"/>
			<point x="873.52" y="722.6666666667" type="line"/>
			<point x="1369.8933333333" y="1315.64" type="line"/>
			<point x="1550.4266666667" y="1342.4666666667" type="line"/>
			<point x="1550.4266666667" y="1414" type="line"/>
			<point x="1051.7733333333" y="1414" type="line"/>
			<point x="1051.7733333333" y="1342.4666666667" type="line"/>
			<point x="1248.4666666667" y="1316.2666666667" type="line"/>
			<point x="818.6" y="794.6933333333" type="line"/>
			<point x="780.3866666667" y="758.0933333333" type="line"/>
			<point x="228.8933333333" y="98.36" type="line"/>
			<point x="48.36" y="71.5333333333" type="line"/>
			<point x="48.36" y="0" type="line"/>
			<point x="547.0133333333" y="0" type="line"/>
			<point x="547.0133333333" y="71.5333333333" type="line"/>
			<point x="350.32" y="97.7333333333" type="line"/>
		</contour>
		<contour>
			<point x="1245.68" y="98.36" type="line"/>
			<point x="1031.48" y="71.5333333333" type="line"/>
			<point x="1031.48" y="0" type="line"/>
			<point x="1613.7733333333" y="0" type="line"/>
			<point x="1613.7733333333" y="71.5333333333" type="line"/>
			<point x="1422.7066666667" y="97.7333333333" type="line"/>
			<point x="878.8666666667" y="779.6666666667" type="line"/>
			<point x="861" y="802.16" type="line"/>
			<point x="456.6133333333" y="1315.64" type="line"/>
			<point x="670.8133333333" y="1342.4666666667" type="line"/>
			<point x="670.8133333333" y="1414" type="line"/>
			<point x="88.52" y="1414" type="line"/>
			<point x="88.52" y="1342.4666666667" type="line"/>
			<point x="279.5866666667" y="1316.2666666667" type="line"/>
			<point x="767.1866666667" y="704.4533333333" type="line"/>
			<point x="787.5466666667" y="679.3466666667" type="line"/>
		</contour>
	</outline>
	<anchor name="UCtop" x="842.3466666667" y="1414"/>
	<anchor name="bottom" x="813.6" y="0"/>
</glyph>
<glyph name="Y" format="2">
	<unicode hex="0059"/>
	<advance width="1529.1466666667"/>
	<outline>
		<contour>
			<point x="212.9733333333" y="1316.2666666667" type="line"/>
			<point x="711.6666666667" y="598.5466666667" type="line"/>
			<point x="711.6666666667" y="98.36" type="line"/>
			<point x="499" y="71.5333333333" type="line"/>
			<point x="499" y="0" type="line"/>
			<point x="1054.8533333333" y="0" type="line"/>
			<point x="1054.8533333333" y="71.5333333333" type="line"/>
			<point x="843.1866666667" y="98.36" type="line"/>
			<point x="843.1866666667" y="602.28" type="line"/>
			<point x="1321.4533333333" y="1315.64" type="line"/>
			<point x="1494.52" y="1342.4666666667" type="line"/>
			<point x="1494.52" y="1414" type="line"/>
			<point x="1000.1066666667" y="1414" type="line"/>
			<point x="1000.1066666667" y="1342.4666666667" type="line"/>
			<point x="1205.76" y="1316.2666666667" type="line"/>
			<point x="783.76" y="673.76" type="line"/>
			<point x="815.6266666667" y="674.1333333333" type="line"/>
			<point x="382.68" y="1315.64" type="line"/>
			<point x="590.6133333333" y="1342.4666666667" type="line"/>
			<point x="590.6133333333" y="1414" type="line"/>
			<point x="15.64" y="1414" type="line"/>
			<point x="15.64" y="1342.4666666667" type="line"/>
		</contour>
	</outline>
	<anchor name="UCtop" x="778.8133333333" y="1414"/>
	<anchor name="bottom" x="777.4266666667" y="0"/>
</glyph>
<glyph name="Z" format="2">
	<unicode hex="005A"/>
	<advance width="1340.7466666667"/>
	<outline>
		<contour>
			<point x="1194.2666666667" y="1414" type="line"/>
			<point x="259.7066666667" y="1414" type="line"/>
			<point x="205.8933333333" y="1484" type="line"/>
			<point x="134.3733333333" y="1484" type="line"/>
			<point x="138.76" y="1030.8266666667" type="line"/>
			<point x="229.2533333333" y="1030.8266666667" type="line"/>
			<point x="267.2" y="1313.1466666667" type="line"/>
			<point x="1083.9733333333" y="1313.1466666667" type="line"/>
			<point x="1052.8" y="1338.9066666667" type="line"/>
			<point x="125" y="85.24" type="line"/>
			<point x="125" y="0" type="line"/>
			<point x="1059.8933333333" y="0" type="line"/>
			<point x="1083.72" y="-70.7466666667" type="line"/>
			<point x="1172.4933333333" y="-70.7466666667" type="line"/>
			<point x="1243.48" y="393.1466666667" type="line"/>
			<point x="1152.72" y="393.1466666667" type="line"/>
			<point x="1057.4" y="100.8533333333" type="line"/>
			<point x="235.92" y="100.8533333333" type="line"/>
			<point x="268.0933333333" y="74.72" type="line"/>
			<point x="1194.2666666667" y="1328.1333333333" type="line"/>
		</contour>
	</outline>
	<anchor name="UCtop" x="684.0533333333" y="1414"/>
	<anchor name="bottom" x="650.32" y="0"/>
</glyph>
<glyph name="bracketleft" format="2">
  <advance width="724"/>
  <unicode hex="005B"/>
  <outline>
    <contour>
      <point x="232.28" y="-222.62666666666667" type="line"/>
      <point x="663.3866666666667" y="-222.62666666666667" type="line"/>
      <point x="663.3866666666667" y="-138.86666666666667" type="line"/>
      <point x="355.6933333333333" y="-138.86666666666667" type="line"/>
      <point x="355.6933333333333" y="1380.24" type="line"/>
      <point x="663.3866666666667" y="1380.24" type="line"/>
      <point x="663.3866666666667" y="1464.0" type="line"/>
      <point x="232.28" y="1464.0" type="line"/>
    </contour>
  </outline>
</glyph>
<glyph name="backslash" format="2">
	<unicode hex="005C"/>
	<advance width="837.1066666667"/>
	<outline>
		<contour>
			<point x="767.5866666667" y="0" type="line"/>
			<point x="177.5866666667" y="1414" type="line"/>
			<point x="66.52" y="1414" type="line"/>
			<point x="656.8933333333" y="0" type="line"/>
		</contour>
	</outline>
</glyph>
<glyph name="bracketright" format="2">
	<unicode hex="005D"/>
	<advance width="724.3733333333"/>
	<outline>
		<contour>
			<point x="492.0933333333" y="1464.3733333333" type="line"/>
			<point x="60.9866666667" y="1464.3733333333" type="line"/>
			<point x="60.9866666667" y="1380.6133333333" type="line"/>
			<point x="368.68" y="1380.6133333333" type="line"/>
			<point x="368.68" y="-138.4933333333" type="line"/>
			<point x="60.9866666667" y="-138.4933333333" type="line"/>
			<point x="60.9866666667" y="-222.2533333333" type="line"/>
			<point x="492.0933333333" y="-222.2533333333" type="line"/>
		</contour>
	</outline>
</glyph>
<glyph name="asciicircum" format="2">
	<unicode hex="005E"/>
	<advance width="1140"/>
	<outline>
		<contour>
			<point x="549.6133333333" y="1333.4533333333" type="line"/>
			<point x="870.7733333333" y="646.7466666667" type="line"/>
			<point x="980.48" y="646.7466666667" type="line"/>
			<point x="617.7333333333" y="1414" type="line"/>
			<point x="520.64" y="1414" type="line"/>
			<point x="159.52" y="646.7466666667" type="line"/>
			<point x="269.2266666667" y="646.7466666667" type="line"/>
			<point x="588.1333333333" y="1333.4533333333" type="line"/>
		</contour>
	</outline>
</glyph>
<glyph name="a" format="2">
	<unicode hex="0061"/>
	<advance width="1179.2133333333"/>
	<outline>
		<contour>
			<point x="880.9466666667" y="649.3466666667" type="line"/>
			<point x="225.2133333333" y="556.8266666667"/>
			<point x="126.7733333333" y="446.96"/>
			<point x="126.7733333333" y="249.7333333333" type="curve" smooth="yes"/>
			<point x="126.7733333333" y="71.2266666667"/>
			<point x="237.0133333333" y="-20"/>
			<point x="455.5466666667" y="-20" type="curve" smooth="yes"/>
			<point x="661.3333333333" y="-20"/>
			<point x="793.4933333333" y="79.84"/>
			<point x="822.88" y="291.4266666667" type="curve"/>
			<point x="813.6266666667" y="288.2933333333" type="line"/>
			<point x="806.84" y="60.4666666667"/>
			<point x="869.0666666667" y="-9.9866666667"/>
			<point x="988.8" y="-9.9866666667" type="curve" smooth="yes"/>
			<point x="1052.4133333333" y="-9.9866666667"/>
			<point x="1113.8666666667" y="8.9866666667"/>
			<point x="1172.8533333333" y="49.56" type="curve"/>
			<point x="1172.8533333333" y="117" type="line"/>
			<point x="1125.4533333333" y="97.72"/>
			<point x="1092.96" y="90.84"/>
			<point x="1056.0666666667" y="90.84" type="curve" smooth="yes"/>
			<point x="966.4" y="90.84"/>
			<point x="933.92" y="122.4666666667"/>
			<point x="933.92" y="256.9866666667" type="curve" smooth="yes"/>
			<point x="933.92" y="730.9866666667" type="line" smooth="yes"/>
			<point x="933.92" y="927.76"/>
			<point x="841.4266666667" y="1042.7466666667"/>
			<point x="563.0266666667" y="1042.7466666667" type="curve" smooth="yes"/>
			<point x="305.7333333333" y="1042.7466666667"/>
			<point x="130.1733333333" y="905.2933333333"/>
			<point x="130.1733333333" y="830.2133333333" type="curve" smooth="yes"/>
			<point x="130.1733333333" y="798.12"/>
			<point x="158.1333333333" y="772.7733333333"/>
			<point x="218.2" y="772.7733333333" type="curve" smooth="yes"/>
			<point x="252.7733333333" y="772.7733333333"/>
			<point x="282.1333333333" y="780.4"/>
			<point x="298.8666666667" y="818.6133333333" type="curve" smooth="yes"/>
			<point x="315.6" y="856.8266666667"/>
			<point x="332.48" y="905.5866666667"/>
			<point x="349.9733333333" y="968.28" type="curve"/>
			<point x="300.2933333333" y="919.72" type="line"/>
			<point x="368.6933333333" y="944"/>
			<point x="436.5733333333" y="954.5066666667"/>
			<point x="530.72" y="954.5066666667" type="curve" smooth="yes"/>
			<point x="738.0666666667" y="954.5066666667"/>
			<point x="813.3733333333" y="874.0933333333"/>
			<point x="813.3733333333" y="691.0133333333" type="curve" smooth="yes"/>
			<point x="813.3733333333" y="335.0266666667" type="line" smooth="yes"/>
			<point x="813.3733333333" y="184.6533333333"/>
			<point x="676.5466666667" y="83.84"/>
			<point x="494.4266666667" y="83.84" type="curve" smooth="yes"/>
			<point x="330.32" y="83.84"/>
			<point x="259.6666666667" y="144.4933333333"/>
			<point x="259.6666666667" y="266.56" type="curve" smooth="yes"/>
			<point x="259.6666666667" y="410"/>
			<point x="339.4666666667" y="489.3066666667"/>
			<point x="861.52" y="563.72" type="curve"/>
		</contour>
	</outline>
	<anchor name="top" x="548.5866666667" y="1024"/>
	<anchor name="right" x="1172.8533333333" y="0"/>
	<anchor name="bottom" x="575.9733333333" y="0"/>
</glyph>
<glyph name="b" format="2">
	<unicode hex="0062"/>
	<advance width="1283.2666666667"/>
	<outline>
		<contour>
			<point x="291.6266666667" y="278.12" type="line"/>
			<point x="318.6533333333" y="102.12"/>
			<point x="437.2666666667" y="-21.12"/>
			<point x="669.3733333333" y="-21.12" type="curve" smooth="yes"/>
			<point x="955.3333333333" y="-21.12"/>
			<point x="1171.12" y="175.7066666667"/>
			<point x="1171.12" y="543.8533333333" type="curve" smooth="yes"/>
			<point x="1171.12" y="872.16"/>
			<point x="1008.7733333333" y="1044"/>
			<point x="700.6266666667" y="1044" type="curve" smooth="yes"/>
			<point x="619.4933333333" y="1044"/>
			<point x="539.0933333333" y="1030.3066666667"/>
			<point x="272.2933333333" y="906.0533333333" type="curve"/>
			<point x="272.2933333333" y="838.28" type="line"/>
			<point x="411.24" y="907.32"/>
			<point x="536.4933333333" y="935.8133333333"/>
			<point x="655.48" y="935.8133333333" type="curve" smooth="yes"/>
			<point x="916.8266666667" y="935.8133333333"/>
			<point x="1040.72" y="790.2266666667"/>
			<point x="1040.72" y="534.8933333333" type="curve" smooth="yes"/>
			<point x="1040.72" y="229.1733333333"/>
			<point x="888.52" y="69.24"/>
			<point x="648.68" y="69.24" type="curve" smooth="yes"/>
			<point x="439.7466666667" y="69.24"/>
			<point x="322.6933333333" y="182.9333333333"/>
			<point x="322.6933333333" y="443" type="curve" smooth="yes"/>
			<point x="322.6933333333" y="1348.8133333333" type="line"/>
			<point x="336.4266666667" y="1484" type="line"/>
			<point x="310.0933333333" y="1484" type="line"/>
			<point x="-13.72" y="1434.0533333333" type="line"/>
			<point x="-13.72" y="1380.12" type="line"/>
			<point x="64.28" y="1362.5859190031"/>
			<point x="175.7733333333" y="1337.2935825545"/>
			<point x="201.7733333333" y="1331.5733333333" type="curve"/>
			<point x="201.7733333333" y="296.24" type="line"/>
			<point x="140.2933333333" y="0" type="line"/>
			<point x="237.6933333333" y="0" type="line"/>
			<point x="325.1733333333" y="278.12" type="line"/>
		</contour>
	</outline>
	<anchor name="UCtop" x="678.2" y="1414"/>
	<anchor name="bottom" x="650.7333333333" y="0"/>
</glyph>
<glyph name="c" format="2">
	<unicode hex="0063"/>
	<advance width="1091.6133333333"/>
	<outline>
		<contour>
			<point x="678.0666666667" y="1044" type="curve" smooth="yes"/>
			<point x="310.1882352941" y="1044"/>
			<point x="110.7733333333" y="833.2"/>
			<point x="110.7733333333" y="504.2666666667" type="curve" smooth="yes"/>
			<point x="110.7733333333" y="150.72"/>
			<point x="290.72" y="-20"/>
			<point x="594.12" y="-20" type="curve" smooth="yes"/>
			<point x="734.4266666667" y="-20"/>
			<point x="849.5866666667" y="14.6933333333"/>
			<point x="996.5066666667" y="100.1866666667" type="curve"/>
			<point x="996.5066666667" y="174.8533333333" type="line"/>
			<point x="866.8533333333" y="113.5733333333"/>
			<point x="762.8666666667" y="89.4533333333"/>
			<point x="638.68" y="89.4533333333" type="curve" smooth="yes"/>
			<point x="367.0933333333" y="89.4533333333"/>
			<point x="232.8266666667" y="222.4533333333"/>
			<point x="232.8266666667" y="526.3066666667" type="curve" smooth="yes"/>
			<point x="232.8266666667" y="814.7066666667"/>
			<point x="391.8885172798" y="950.5066666667"/>
			<point x="637.0533333333" y="950.5066666667" type="curve" smooth="yes"/>
			<point x="771.9866666667" y="950.5066666667"/>
			<point x="889.32" y="800.68"/>
			<point x="906.1733333333" y="800.68" type="curve" smooth="yes"/>
			<point x="959.8533333333" y="800.68"/>
			<point x="1003.2" y="843.4933333333"/>
			<point x="1003.2" y="900.32" type="curve" smooth="yes"/>
			<point x="1003.2" y="957.6533333333"/>
			<point x="934.96" y="1044"/>
		</contour>
	</outline>
	<anchor name="top" x="609.1466666667" y="1024"/>
	<anchor name="right" x="996.5066666667" y="0"/>
	<anchor name="bottom" x="605.2133333333" y="0"/>
</glyph>
<glyph name="d" format="2">
	<unicode hex="0064"/>
	<advance width="1322.6533333333"/>
	<outline>
		<contour>
			<point x="947.04" y="791.4533333333" type="curve" smooth="yes"/>
			<point x="947.04" y="158.8933333333" type="line"/>
			<point x="982.56" y="-16.24" type="line"/>
			<point x="1009.9066666667" y="-16.24" type="line"/>
			<point x="1288.9333333333" y="55.24" type="line"/>
			<point x="1288.9333333333" y="95.36" type="line"/>
			<point x="1246.9333333333" y="105.4976632671"/>
			<point x="1091.96" y="137.3270495616"/>
			<point x="1067.96" y="143.12" type="curve"/>
			<point x="1067.96" y="1348.8133333333" type="line"/>
			<point x="1081.6933333333" y="1484" type="line"/>
			<point x="1055.36" y="1484" type="line"/>
			<point x="731.5466666667" y="1434.0533333333" type="line"/>
			<point x="731.5466666667" y="1380.12" type="line"/>
			<point x="788.5466666667" y="1367.3316625225"/>
			<point x="923.04" y="1336.9578964818"/>
			<point x="947.04" y="1331.5733333333" type="curve"/>
			<point x="947.04" y="911.8133333333" type="line"/>
			<point x="1030.4533333333" y="963.5733333333" type="line"/>
			<point x="908.3466666667" y="1022.2666666667"/>
			<point x="831.28" y="1044"/>
			<point x="696.9333333333" y="1044" type="curve" smooth="yes"/>
			<point x="352.0133333333" y="1044"/>
			<point x="111.1466666667" y="828.2666666667"/>
			<point x="111.1466666667" y="475.1333333333" type="curve" smooth="yes"/>
			<point x="111.1466666667" y="154.4666666667"/>
			<point x="265.2666666667" y="-20"/>
			<point x="582.5466666667" y="-20" type="curve" smooth="yes"/>
			<point x="664.4266666667" y="-20"/>
			<point x="729.52" y="-0.76"/>
			<point x="1014.9866666667" y="167.36" type="curve"/>
			<point x="1014.9866666667" y="208.2533333333" type="line"/>
			<point x="861.1466666667" y="121.1866666667"/>
			<point x="744.52" y="88.1866666667"/>
			<point x="624.9066666667" y="88.1866666667" type="curve" smooth="yes"/>
			<point x="365.1866666667" y="88.1866666667"/>
			<point x="240.92" y="234.6533333333"/>
			<point x="240.92" y="487.68" type="curve" smooth="yes"/>
			<point x="240.92" y="778.8"/>
			<point x="397.3866666667" y="956.1333333333"/>
			<point x="689.8133333333" y="956.1333333333" type="curve" smooth="yes"/>
			<point x="863.3733333333" y="956.1333333333"/>
			<point x="947.04" y="889.6933333333"/>
		</contour>
	</outline>
	<anchor name="right" x="1067.96" y="1464"/>
	<anchor name="UCtop" x="598.8933333333" y="1432.6666666667"/>
	<anchor name="bottom" x="699.0266666667" y="0"/>
	<anchor name="center" x="946.6" y="1192.56"/>
</glyph>
<glyph name="e" format="2">
	<unicode hex="0065"/>
	<advance width="1137.7333333333"/>
	<outline>
		<contour>
			<point x="594" y="1044" type="curve" smooth="yes"/>
			<point x="306.7733333333" y="1044"/>
			<point x="111.7733333333" y="839.1466666667"/>
			<point x="111.7733333333" y="504.2666666667" type="curve" smooth="yes"/>
			<point x="111.7733333333" y="150.72"/>
			<point x="291.3466666667" y="-20"/>
			<point x="601.4666666667" y="-20" type="curve" smooth="yes"/>
			<point x="742.52" y="-20"/>
			<point x="862.9066666667" y="15.0666666667"/>
			<point x="1010.9466666667" y="100.1866666667" type="curve"/>
			<point x="1010.9466666667" y="174.8533333333" type="line"/>
			<point x="891.3733333333" y="118.4266666667"/>
			<point x="786.64" y="89.4533333333"/>
			<point x="650.88" y="89.4533333333" type="curve" smooth="yes"/>
			<point x="367.3466666667" y="89.4533333333"/>
			<point x="233.8266666667" y="216.1066666667"/>
			<point x="233.8266666667" y="526.68" type="curve" smooth="yes"/>
			<point x="233.8266666667" y="821.3066666667"/>
			<point x="376.1733333333" y="954.76"/>
			<point x="593.3866666667" y="954.76" type="curve" smooth="yes"/>
			<point x="801.04" y="954.76"/>
			<point x="898.56" y="821"/>
			<point x="896.6666666667" y="583.08" type="curve"/>
			<point x="950.28" y="604.08" type="line"/>
			<point x="212.8666666667" y="604.08" type="line"/>
			<point x="221.3733333333" y="513.2" type="line"/>
			<point x="1027.72" y="513.2" type="line"/>
			<point x="1027.8533333333" y="862.8"/>
			<point x="904.2133333333" y="1044"/>
		</contour>
	</outline>
	<anchor name="top" x="587.1333333333" y="1024"/>
	<anchor name="right" x="1010.9466666667" y="0"/>
	<anchor name="bottom" x="613.48" y="0"/>
</glyph>
<glyph name="f" format="2">
	<unicode hex="0066"/>
	<advance width="841.3466666667"/>
	<outline>
		<contour>
			<point x="330.1733333333" y="924.7733333333" type="line"/>
			<point x="800.24" y="924.7733333333" type="line"/>
			<point x="800.24" y="1024" type="line"/>
			<point x="330.1733333333" y="1024" type="line"/>
			<point x="291.0266666667" y="1035.4666666667" type="line"/>
			<point x="60.3466666667" y="993.8" type="line"/>
			<point x="60.3466666667" y="949.2266666667" type="line"/>
			<point x="276.28" y="912.68" type="line"/>
		</contour>
		<contour>
			<point x="395.32" y="90.88" type="line"/>
			<point x="395.32" y="1142.3466666667" type="line" smooth="yes"/>
			<point x="395.32" y="1317.72"/>
			<point x="477.0933333333" y="1397.3733333333"/>
			<point x="685.8266666667" y="1397.3733333333" type="curve" smooth="yes"/>
			<point x="859.36" y="1397.3733333333"/>
			<point x="895.08" y="1264.16"/>
			<point x="921.3066666667" y="1264.16" type="curve" smooth="yes"/>
			<point x="975.2533333333" y="1264.16"/>
			<point x="1011.5866666667" y="1294.7466666667"/>
			<point x="1011.5866666667" y="1351.5733333333" type="curve" smooth="yes"/>
			<point x="1011.5866666667" y="1425.52"/>
			<point x="932.4666666667" y="1484"/>
			<point x="697.7733333333" y="1484" type="curve" smooth="yes"/>
			<point x="439.1066666667" y="1484"/>
			<point x="274.4" y="1364.8"/>
			<point x="274.4" y="1111.1733333333" type="curve" smooth="yes"/>
			<point x="274.4" y="90.88" type="line"/>
			<point x="107.4" y="65.92" type="line"/>
			<point x="107.4" y="0" type="line"/>
			<point x="570.16" y="0" type="line"/>
			<point x="570.16" y="65.92" type="line"/>
		</contour>
	</outline>
	<anchor name="UCtop" x="660.9733333333" y="1432.04"/>
	<anchor name="bottom" x="335.1733333333" y="0"/>
</glyph>
<glyph name="g" format="2">
	<unicode hex="0067"/>
	<advance width="1147.8666666667"/>
	<outline>
		<contour>
			<point x="528.56" y="-465" type="curve" smooth="yes"/>
			<point x="913.9333333333" y="-465"/>
			<point x="1109.16" y="-341.2666666667"/>
			<point x="1109.16" y="-137.6666666667" type="curve" smooth="yes"/>
			<point x="1109.16" y="28.48"/>
			<point x="1009" y="114.76"/>
			<point x="625.24" y="115.5066666667" type="curve" smooth="yes"/>
			<point x="306.28" y="116.2533333333"/>
			<point x="264.12" y="148.4"/>
			<point x="264.12" y="234.5733333333" type="curve" smooth="yes"/>
			<point x="264.12" y="288.9466666667"/>
			<point x="300.6266666667" y="331.3866666667"/>
			<point x="397.68" y="343.4" type="curve"/>
			<point x="396.6933333333" y="365.2666666667" type="line"/>
			<point x="211.52" y="345.0133333333"/>
			<point x="149.44" y="271.5066666667"/>
			<point x="149.44" y="192.6533333333" type="curve" smooth="yes"/>
			<point x="149.44" y="76.4266666667"/>
			<point x="220.5066666667" y="3.56"/>
			<point x="588.32" y="5.44" type="curve" smooth="yes"/>
			<point x="939.2133333333" y="7.32"/>
			<point x="984.1066666667" y="-60.48"/>
			<point x="984.1066666667" y="-162.3733333333" type="curve" smooth="yes"/>
			<point x="984.1066666667" y="-294.5466666667"/>
			<point x="855.44" y="-374.4933333333"/>
			<point x="528.8" y="-374.4933333333" type="curve" smooth="yes"/>
			<point x="257.4" y="-374.4933333333"/>
			<point x="167.5066666667" y="-311.9466666667"/>
			<point x="167.5066666667" y="-188.2933333333" type="curve" smooth="yes"/>
			<point x="167.5066666667" y="-68.2133333333"/>
			<point x="270.6266666667" y="3.3066666667"/>
			<point x="536.92" y="8.56" type="curve"/>
			<point x="543.8133333333" y="27.56" type="line"/>
			<point x="484.6266666667" y="24.68" type="line"/>
			<point x="181.0933333333" y="23.4266666667"/>
			<point x="36.12" y="-68.04"/>
			<point x="36.12" y="-210.4933333333" type="curve" smooth="yes"/>
			<point x="36.12" y="-374.0133333333"/>
			<point x="157.0666666667" y="-465"/>
		</contour>
		<contour>
			<point x="528.3333333333" y="321" type="curve" smooth="yes"/>
			<point x="790.6933333333" y="321"/>
			<point x="947.1866666667" y="455.6266666667"/>
			<point x="947.1866666667" y="681.3733333333" type="curve" smooth="yes"/>
			<point x="947.1866666667" y="908.7466666667"/>
			<point x="793.2" y="1044"/>
			<point x="535.2266666667" y="1044" type="curve" smooth="yes"/>
			<point x="271" y="1044"/>
			<point x="114.1333333333" y="909.3733333333"/>
			<point x="114.1333333333" y="683.2533333333" type="curve" smooth="yes"/>
			<point x="114.1333333333" y="456.2533333333"/>
			<point x="268.4933333333" y="321"/>
		</contour>
		<contour>
			<point x="530.0666666667" y="408.3733333333" type="curve" smooth="yes"/>
			<point x="331.6266666667" y="408.3733333333"/>
			<point x="234.32" y="505.0533333333"/>
			<point x="234.32" y="689.3733333333" type="curve" smooth="yes"/>
			<point x="234.32" y="867.56"/>
			<point x="346.3333333333" y="957.6266666667"/>
			<point x="535.7333333333" y="957.6266666667" type="curve" smooth="yes"/>
			<point x="732.3066666667" y="957.6266666667"/>
			<point x="828.4933333333" y="860.9466666667"/>
			<point x="828.4933333333" y="677.2533333333" type="curve" smooth="yes"/>
			<point x="828.4933333333" y="499.0666666667"/>
			<point x="717.9733333333" y="408.3733333333"/>
		</contour>
		<contour>
			<point x="731.4" y="945.6933333333" type="line"/>
			<point x="1015.7333333333" y="931.1333333333"/>
			<point x="1054.6533333333" y="925.9066666667"/>
			<point x="1081.9866666667" y="925.9066666667" type="curve" smooth="yes"/>
			<point x="1093.2266666667" y="925.9066666667"/>
			<point x="1098.7066666667" y="952.1066666667"/>
			<point x="1098.7066666667" y="987.28" type="curve" smooth="yes"/>
			<point x="1098.7066666667" y="1017.1066666667"/>
			<point x="1094.0933333333" y="1031.4666666667"/>
			<point x="1078.2266666667" y="1031.4666666667" type="curve" smooth="yes"/>
			<point x="1039.6666666667" y="1031.4666666667"/>
			<point x="871.44" y="1024"/>
			<point x="632.5466666667" y="1024" type="curve"/>
		</contour>
	</outline>
	<anchor name="top" x="536.1866666667" y="1024"/>
	<anchor name="bottom" x="556.1866666667" y="-445"/>
</glyph>
<glyph name="h" format="2">
	<unicode hex="0068"/>
	<advance width="1324.76"/>
	<outline>
		<contour>
			<point x="811.1733333333" y="65.92" type="line"/>
			<point x="811.1733333333" y="0" type="line"/>
			<point x="1263.1066666667" y="0" type="line"/>
			<point x="1263.1066666667" y="65.92" type="line"/>
			<point x="1095.7333333333" y="90.88" type="line"/>
			<point x="1095.7333333333" y="729.5333333333" type="line" smooth="yes"/>
			<point x="1095.7333333333" y="941.1466666667"/>
			<point x="1003.76" y="1044"/>
			<point x="771.6266666667" y="1044" type="curve" smooth="yes"/>
			<point x="637.48" y="1044"/>
			<point x="564.12" y="1017.84"/>
			<point x="342.9466666667" y="870.4533333333" type="curve"/>
			<point x="348.92" y="832.08" type="line"/>
			<point x="482.0533333333" y="897.4266666667"/>
			<point x="587.8" y="922.44"/>
			<point x="701.9733333333" y="922.44" type="curve" smooth="yes"/>
			<point x="910.6933333333" y="922.44"/>
			<point x="974.8133333333" y="860.8"/>
			<point x="974.8133333333" y="670.6666666667" type="curve" smooth="yes"/>
			<point x="974.8133333333" y="90.88" type="line"/>
		</contour>
		<contour>
			<point x="522.2" y="0" type="line"/>
			<point x="522.2" y="65.92" type="line"/>
			<point x="358.56" y="90.88" type="line"/>
			<point x="358.56" y="1348.8133333333" type="line"/>
			<point x="372.2933333333" y="1484" type="line"/>
			<point x="345.96" y="1484" type="line"/>
			<point x="22.1466666667" y="1434.0533333333" type="line"/>
			<point x="22.1466666667" y="1380.12" type="line"/>
			<point x="100.1466666667" y="1362.6201697676"/>
			<point x="211.64" y="1337.4066100775"/>
			<point x="237.64" y="1331.5733333333" type="curve"/>
			<point x="237.64" y="90.88" type="line"/>
			<point x="70.64" y="65.92" type="line"/>
			<point x="70.64" y="0" type="line"/>
		</contour>
	</outline>
	<anchor name="UCtop" x="669.9866666667" y="1432.6666666667"/>
	<anchor name="bottom" x="662.8133333333" y="0"/>
	<anchor name="center" x="359" y="1192.56"/>
</glyph>
<glyph name="i" format="2">
	<unicode hex="0069"/>
	<advance width="630.2133333333"/>
	<outline>
		<contour>
			<point x="308.5333333333" y="1264.64" type="curve" smooth="yes"/>
			<point x="380.3466666667" y="1264.64"/>
			<point x="428.0533333333" y="1301.7466666667"/>
			<point x="428.0533333333" y="1375.5733333333" type="curve" smooth="yes"/>
			<point x="428.0533333333" y="1449.4"/>
			<point x="380.3466666667" y="1484"/>
			<point x="308.5333333333" y="1484" type="curve" smooth="yes"/>
			<point x="236.72" y="1484"/>
			<point x="189.0133333333" y="1449.4"/>
			<point x="189.0133333333" y="1375.5733333333" type="curve" smooth="yes"/>
			<point x="189.0133333333" y="1301.7466666667"/>
			<point x="236.72" y="1264.64"/>
		</contour>
		<contour>
			<point x="402.0533333333" y="1044" type="line"/>
			<point x="369.7466666667" y="1044" type="line"/>
			<point x="76.7333333333" y="982.48" type="line"/>
			<point x="76.7333333333" y="935.2666666667" type="line"/>
			<point x="137.7333333333" y="918.3661629239"/>
			<point x="248.2666666667" y="889.4685969783"/>
			<point x="270.2666666667" y="883.3733333333" type="curve"/>
			<point x="270.2666666667" y="90.88" type="line"/>
			<point x="103.2666666667" y="65.92" type="line"/>
			<point x="103.2666666667" y="0" type="line"/>
			<point x="554.8266666667" y="0" type="line"/>
			<point x="554.8266666667" y="65.92" type="line"/>
			<point x="391.1866666667" y="90.88" type="line"/>
			<point x="391.1866666667" y="893.9466666667" type="line"/>
		</contour>
	</outline>
	<anchor name="top" x="306.9066666667" y="1432.6666666667"/>
	<anchor name="bottom" x="331.04" y="0"/>
	<anchor name="right" x="463.6266666667" y="0"/>
</glyph>
<glyph name="j" format="2">
	<unicode hex="006A"/>
	<advance width="561.2266666667"/>
	<outline>
		<contour>
			<point x="286.5466666667" y="1264.64" type="curve" smooth="yes"/>
			<point x="358.36" y="1264.64"/>
			<point x="406.0666666667" y="1301.7466666667"/>
			<point x="406.0666666667" y="1375.5733333333" type="curve" smooth="yes"/>
			<point x="406.0666666667" y="1449.4"/>
			<point x="358.36" y="1484"/>
			<point x="286.5466666667" y="1484" type="curve" smooth="yes"/>
			<point x="214.7333333333" y="1484"/>
			<point x="167.0266666667" y="1449.4"/>
			<point x="167.0266666667" y="1375.5733333333" type="curve" smooth="yes"/>
			<point x="167.0266666667" y="1301.7466666667"/>
			<point x="214.7333333333" y="1264.64"/>
		</contour>
		<contour>
			<point x="248.28" y="883.3733333333" type="curve"/>
			<point x="248.28" y="-15.1466666667" type="line" smooth="yes"/>
			<point x="248.28" y="-126.5333333333"/>
			<point x="227.3733333333" y="-164.9733333333"/>
			<point x="13.4266666667" y="-408.0933333333" type="curve"/>
			<point x="68.7333333333" y="-465" type="line"/>
			<point x="334.9733333333" y="-208.3466666667"/>
			<point x="369.2" y="-155.4933333333"/>
			<point x="369.2" y="-10.3733333333" type="curve" smooth="yes"/>
			<point x="369.2" y="893.9466666667" type="line"/>
			<point x="380.0666666667" y="1044" type="line"/>
			<point x="347.76" y="1044" type="line"/>
			<point x="54.7466666667" y="982.48" type="line"/>
			<point x="54.7466666667" y="935.2666666667" type="line"/>
			<point x="115.7466666667" y="918.3661629239"/>
			<point x="226.28" y="889.4685969783"/>
		</contour>
	</outline>
	<anchor name="top" x="282.6666666667" y="1440.1333333333"/>
	<anchor name="bottom" x="243.2933333333" y="-445"/>
</glyph>
<glyph name="k" format="2">
	<unicode hex="006B"/>
	<advance width="1315.72"/>
	<outline>
		<contour>
			<point x="623.08" y="553.6" type="line"/>
			<point x="1065.04" y="933.9733333333" type="line"/>
			<point x="1231.7333333333" y="959.9466666667" type="line"/>
			<point x="1231.7333333333" y="1024" type="line"/>
			<point x="751.8" y="1024" type="line"/>
			<point x="751.8" y="959.9466666667" type="line"/>
			<point x="923.36" y="930.9733333333" type="line"/>
			<point x="585.4133333333" y="627.56" type="line"/>
			<point x="317.8133333333" y="627.56" type="line"/>
			<point x="317.8133333333" y="531.32" type="line"/>
			<point x="572.3333333333" y="531.32" type="line"/>
			<point x="980.0266666667" y="87.2666666667" type="line"/>
			<point x="861.96" y="65.92" type="line"/>
			<point x="861.96" y="0" type="line"/>
			<point x="1288.2133333333" y="0" type="line"/>
			<point x="1288.2133333333" y="65.92" type="line"/>
			<point x="1132.16" y="93.12" type="line"/>
			<point x="641.0666666667" y="622.8133333333" type="line"/>
		</contour>
		<contour>
			<point x="358.56" y="90.88" type="line"/>
			<point x="358.56" y="1348.8133333333" type="line"/>
			<point x="372.2933333333" y="1484" type="line"/>
			<point x="345.96" y="1484" type="line"/>
			<point x="22.1466666667" y="1434.0533333333" type="line"/>
			<point x="22.1466666667" y="1380.12" type="line"/>
			<point x="100.1466666667" y="1362.6201697676"/>
			<point x="211.64" y="1337.4066100775"/>
			<point x="237.64" y="1331.5733333333" type="curve"/>
			<point x="237.64" y="90.88" type="line"/>
			<point x="70.64" y="65.92" type="line"/>
			<point x="70.64" y="0" type="line"/>
			<point x="522.2" y="0" type="line"/>
			<point x="522.2" y="65.92" type="line"/>
		</contour>
	</outline>
	<anchor name="bottom" x="671" y="0"/>
	<anchor name="UCtop" x="656.7333333333" y="1432.6666666667"/>
</glyph>
<glyph name="l" format="2">
	<unicode hex="006C"/>
	<advance width="601.2133333333"/>
	<outline>
		<contour>
			<point x="362.1866666667" y="90.88" type="line"/>
			<point x="362.1866666667" y="1348.8133333333" type="line"/>
			<point x="375.92" y="1484" type="line"/>
			<point x="349.5866666667" y="1484" type="line"/>
			<point x="25.7733333333" y="1434.0533333333" type="line"/>
			<point x="25.7733333333" y="1380.12" type="line"/>
			<point x="103.7733333333" y="1362.6201697676"/>
			<point x="215.2666666667" y="1337.4066100775"/>
			<point x="241.2666666667" y="1331.5733333333" type="curve"/>
			<point x="241.2666666667" y="90.88" type="line"/>
			<point x="74.2666666667" y="65.92" type="line"/>
			<point x="74.2666666667" y="0" type="line"/>
			<point x="525.8266666667" y="0" type="line"/>
			<point x="525.8266666667" y="65.92" type="line"/>
		</contour>
	</outline>
	<anchor name="UCtop" x="293.4533333333" y="1432.6666666667"/>
	<anchor name="right" x="362.1866666667" y="1464"/>
	<anchor name="bottom" x="302.04" y="0"/>
	<anchor name="mid" x="617.0266666667" y="512"/>
</glyph>
<glyph name="m" format="2">
  <advance width="1986.2666666666667"/>
  <unicode hex="006D"/>
  <anchor x="1011.44" y="1024.0" name="top"/>
  <anchor x="1011.44" y="0.0" name="bottom"/>
  <outline>
    <contour>
      <point x="388.18666666666667" y="866.3466666666667" type="line"/>
      <point x="362.26666666666665" y="1045.8666666666666" type="line"/>
      <point x="337.4266666666667" y="1045.8666666666666" type="line"/>
      <point x="73.73333333333333" y="975.0133333333333" type="line"/>
      <point x="73.73333333333333" y="935.2666666666667" type="line"/>
      <point x="164.73333333333332" y="906.3004802873295"/>
      <point x="245.26666666666665" y="882.9094809561768"/>
      <point x="267.26666666666665" y="875.9066666666666" type="curve"/>
      <point x="267.26666666666665" y="90.88" type="line"/>
      <point x="100.26666666666667" y="65.91999999999999" type="line"/>
      <point x="100.26666666666667" y="0.0" type="line"/>
      <point x="551.8266666666666" y="0.0" type="line"/>
      <point x="551.8266666666666" y="65.91999999999999" type="line"/>
      <point x="388.18666666666667" y="90.88" type="line"/>
    </contour>
    <contour>
      <point x="1071.5866666666668" y="756.5200000000001" type="line" smooth="yes"/>
      <point x="1071.5866666666668" y="959.2266666666667"/>
      <point x="986.0087741935484" y="1044.0"/>
      <point x="770.24" y="1044.0" type="curve" smooth="yes"/>
      <point x="645.9733333333332" y="1044.0"/>
      <point x="577.7466666666667" y="1020.0933333333334"/>
      <point x="372.5733333333333" y="882.8266666666666" type="curve"/>
      <point x="378.17333333333335" y="840.2133333333334" type="line"/>
      <point x="500.2933333333333" y="899.4266666666666"/>
      <point x="597.04" y="922.44"/>
      <point x="701.96" y="922.44" type="curve" smooth="yes"/>
      <point x="892.2933333333334" y="922.44"/>
      <point x="950.6666666666666" y="866.4266666666666"/>
      <point x="950.6666666666666" y="692.3066666666667" type="curve" smooth="yes"/>
      <point x="950.6666666666666" y="90.88" type="line"/>
      <point x="787.0266666666666" y="65.91999999999999" type="line"/>
      <point x="787.0266666666666" y="0.0" type="line"/>
      <point x="1235.2266666666667" y="0.0" type="line"/>
      <point x="1235.2266666666667" y="65.91999999999999" type="line"/>
      <point x="1071.5866666666668" y="90.88" type="line"/>
    </contour>
    <contour>
      <point x="1756.24" y="746.0266666666666" type="line" smooth="yes"/>
      <point x="1756.24" y="947.2666666666667"/>
      <point x="1668.64" y="1044.0"/>
      <point x="1448.5066666666667" y="1044.0" type="curve" smooth="yes"/>
      <point x="1321.3600000000001" y="1044.0"/>
      <point x="1251.88" y="1019.4666666666667"/>
      <point x="1041.8266666666666" y="879.5733333333333" type="curve"/>
      <point x="1047.4266666666667" y="837.96" type="line"/>
      <point x="1172.68" y="898.4266666666666"/>
      <point x="1271.68" y="922.44"/>
      <point x="1379.2266666666665" y="922.44" type="curve" smooth="yes"/>
      <point x="1574.9466666666665" y="922.44"/>
      <point x="1635.32" y="864.1733333333333"/>
      <point x="1635.32" y="686.2933333333333" type="curve" smooth="yes"/>
      <point x="1635.32" y="90.88" type="line"/>
      <point x="1471.68" y="65.91999999999999" type="line"/>
      <point x="1471.68" y="0.0" type="line"/>
      <point x="1923.6133333333335" y="0.0" type="line"/>
      <point x="1923.6133333333335" y="65.91999999999999" type="line"/>
      <point x="1756.24" y="90.88" type="line"/>
    </contour>
  </outline>
</glyph>
<glyph name="n" format="2">
	<unicode hex="006E"/>
	<advance width="1354.3866666667"/>
	<outline>
		<contour>
			<point x="388.1866666667" y="866.3466666667" type="line"/>
			<point x="362.2666666667" y="1045.8666666667" type="line"/>
			<point x="337.4266666667" y="1045.8666666667" type="line"/>
			<point x="73.7333333333" y="975.0133333333" type="line"/>
			<point x="73.7333333333" y="935.2666666667" type="line"/>
			<point x="164.7333333333" y="906.3004802873"/>
			<point x="245.2666666667" y="882.9094809562"/>
			<point x="267.2666666667" y="875.9066666667" type="curve"/>
			<point x="267.2666666667" y="90.88" type="line"/>
			<point x="100.2666666667" y="65.92" type="line"/>
			<point x="100.2666666667" y="0" type="line"/>
			<point x="551.8266666667" y="0" type="line"/>
			<point x="551.8266666667" y="65.92" type="line"/>
			<point x="388.1866666667" y="90.88" type="line"/>
		</contour>
		<contour>
			<point x="840.8" y="65.92" type="line"/>
			<point x="840.8" y="0" type="line"/>
			<point x="1292.7333333333" y="0" type="line"/>
			<point x="1292.7333333333" y="65.92" type="line"/>
			<point x="1125.36" y="90.88" type="line"/>
			<point x="1125.36" y="729.5333333333" type="line" smooth="yes"/>
			<point x="1125.36" y="941.1466666667"/>
			<point x="1033.3866666667" y="1044"/>
			<point x="801.2533333333" y="1044" type="curve" smooth="yes"/>
			<point x="667.1066666667" y="1044"/>
			<point x="593.7466666667" y="1017.84"/>
			<point x="372.5733333333" y="870.4533333333" type="curve"/>
			<point x="378.5466666667" y="832.08" type="line"/>
			<point x="511.68" y="897.4266666667"/>
			<point x="617.4266666667" y="922.44"/>
			<point x="731.6" y="922.44" type="curve" smooth="yes"/>
			<point x="940.32" y="922.44"/>
			<point x="1004.44" y="860.8"/>
			<point x="1004.44" y="670.6666666667" type="curve" smooth="yes"/>
			<point x="1004.44" y="90.88" type="line"/>
		</contour>
	</outline>
	<anchor name="top" x="699.1866666667" y="1024"/>
	<anchor name="bottom" x="674.04" y="0"/>
</glyph>
<glyph name="o" format="2">
	<unicode hex="006F"/>
	<advance width="1253.84"/>
	<outline>
		<contour>
			<point x="616.36" y="76.1066666667" type="curve" smooth="yes"/>
			<point x="363.0133333333" y="76.1066666667"/>
			<point x="237.44" y="248.8266666667"/>
			<point x="237.44" y="525.9733333333" type="curve" smooth="yes"/>
			<point x="237.44" y="808.32"/>
			<point x="385.4" y="947.8933333333"/>
			<point x="637.48" y="947.8933333333" type="curve" smooth="yes"/>
			<point x="890.8266666667" y="947.8933333333"/>
			<point x="1016.4" y="775.8"/>
			<point x="1016.4" y="498.0266666667" type="curve" smooth="yes"/>
			<point x="1016.4" y="215.68"/>
			<point x="868.44" y="76.1066666667"/>
		</contour>
		<contour>
			<point x="619.6133333333" y="-20" type="curve" smooth="yes"/>
			<point x="946.0933333333" y="-20"/>
			<point x="1143.0666666667" y="170.4533333333"/>
			<point x="1143.0666666667" y="510.7466666667" type="curve" smooth="yes"/>
			<point x="1143.0666666667" y="844.4"/>
			<point x="943.9333333333" y="1044"/>
			<point x="634.2266666667" y="1044" type="curve" smooth="yes"/>
			<point x="307.7466666667" y="1044"/>
			<point x="110.7733333333" y="853.5466666667"/>
			<point x="110.7733333333" y="513.2533333333" type="curve" smooth="yes"/>
			<point x="110.7733333333" y="179.6"/>
			<point x="309.9066666667" y="-20"/>
		</contour>
	</outline>
	<anchor name="top" x="627.1066666667" y="1024"/>
	<anchor name="bottom" x="627.1066666667" y="0"/>
	<anchor name="horn" x="855.0533333333" y="1024"/>
	<anchor name="right" x="778" y="0"/>
</glyph>
<glyph name="p" format="2">
  <advance width="1327.4"/>
  <unicode hex="0070"/>
  <anchor x="696.72" y="1024.0" name="top"/>
  <anchor x="307.05333333333334" y="-445.0" name="bottom"/>
  <outline>
    <contour>
      <point x="1085.8533333333335" y="532.5866666666667" type="curve" smooth="yes"/>
      <point x="1085.8533333333335" y="236.42666666666665"/>
      <point x="934.4" y="69.24000000000001"/>
      <point x="693.1866666666666" y="69.24000000000001" type="curve" smooth="yes"/>
      <point x="495.08" y="69.24000000000001"/>
      <point x="367.2" y="180.32"/>
      <point x="367.2" y="428.81333333333333" type="curve" smooth="yes"/>
      <point x="367.2" y="881.7733333333333" type="line"/>
      <point x="341.28" y="1045.8666666666666" type="line"/>
      <point x="316.44" y="1045.8666666666666" type="line"/>
      <point x="52.74666666666666" y="975.0133333333333" type="line"/>
      <point x="52.74666666666666" y="935.2666666666667" type="line"/>
      <point x="126.74666666666667" y="911.7117458746783"/>
      <point x="220.27999999999997" y="884.182719917906"/>
      <point x="246.27999999999997" y="875.9066666666666" type="curve"/>
      <point x="246.27999999999997" y="-354.12" type="line"/>
      <point x="77.41333333333333" y="-379.08" type="line"/>
      <point x="77.41333333333333" y="-445.0" type="line"/>
      <point x="555.3199999999999" y="-445.0" type="line"/>
      <point x="555.3199999999999" y="-379.08" type="line"/>
      <point x="366.82666666666665" y="-354.8666666666667" type="line"/>
      <point x="366.82666666666665" y="288.5466666666667" type="line"/>
      <point x="353.58666666666664" y="288.5466666666667" type="line"/>
      <point x="360.4533333333334" y="115.24000000000001"/>
      <point x="490.5466666666666" y="-20.0"/>
      <point x="713.5066666666667" y="-20.0" type="curve" smooth="yes"/>
      <point x="993.4933333333333" y="-20.0"/>
      <point x="1215.6266666666666" y="182.58666666666664"/>
      <point x="1215.6266666666666" y="548.8666666666667" type="curve" smooth="yes"/>
      <point x="1215.6266666666666" y="869.5333333333333"/>
      <point x="1056.28" y="1044.0"/>
      <point x="737.1333333333333" y="1044.0" type="curve" smooth="yes"/>
      <point x="651.52" y="1044.0"/>
      <point x="572.24" y="1019.9066666666666"/>
      <point x="318.50666666666666" y="890.24" type="curve"/>
      <point x="318.50666666666666" y="822.4666666666667" type="line"/>
      <point x="467.49333333333334" y="904.68"/>
      <point x="584.4933333333333" y="935.8133333333334"/>
      <point x="701.8666666666667" y="935.8133333333334" type="curve" smooth="yes"/>
      <point x="957.8533333333332" y="935.8133333333334"/>
      <point x="1085.8533333333335" y="787.4799999999999"/>
    </contour>
  </outline>
</glyph>
<glyph name="q" format="2">
  <advance width="1262.9866666666667"/>
  <unicode hex="0071"/>
  <anchor x="646.7333333333333" y="1024.0" name="top"/>
  <anchor x="1007.8133333333334" y="-445.0" name="bottom"/>
  <outline>
    <contour>
      <point x="240.92000000000002" y="487.67999999999995" type="curve" smooth="yes"/>
      <point x="240.92000000000002" y="771.28"/>
      <point x="394.88" y="956.1333333333334"/>
      <point x="689.8133333333333" y="956.1333333333334" type="curve" smooth="yes"/>
      <point x="863.3733333333333" y="956.1333333333334"/>
      <point x="947.04" y="884.0533333333334"/>
      <point x="947.04" y="778.92" type="curve" smooth="yes"/>
      <point x="947.04" y="-354.8666666666667" type="line"/>
      <point x="758.5466666666666" y="-379.08" type="line"/>
      <point x="758.5466666666666" y="-445.0" type="line"/>
      <point x="1236.8266666666668" y="-445.0" type="line"/>
      <point x="1236.8266666666668" y="-379.08" type="line"/>
      <point x="1067.96" y="-354.12" type="line"/>
      <point x="1067.96" y="843.12" type="line"/>
      <point x="1117.0933333333332" y="1027.3866666666665" type="line"/>
      <point x="1081.6266666666666" y="1042.7466666666667" type="line"/>
      <point x="946.4133333333334" y="919.8266666666667" type="line"/>
      <point x="1022.6133333333333" y="931.6266666666667" type="line"/>
      <point x="929.72" y="1013.7733333333333"/>
      <point x="831.28" y="1044.0"/>
      <point x="696.9333333333334" y="1044.0" type="curve" smooth="yes"/>
      <point x="352.0133333333333" y="1044.0"/>
      <point x="111.14666666666668" y="823.2533333333333"/>
      <point x="111.14666666666668" y="475.1333333333333" type="curve" smooth="yes"/>
      <point x="111.14666666666668" y="154.46666666666667"/>
      <point x="265.26666666666665" y="-20.0"/>
      <point x="582.5466666666666" y="-20.0" type="curve" smooth="yes"/>
      <point x="664.4266666666667" y="-20.0"/>
      <point x="729.52" y="-0.7600000000000016"/>
      <point x="1014.9866666666667" y="167.36" type="curve"/>
      <point x="1014.9866666666667" y="208.25333333333333" type="line"/>
      <point x="858.16" y="120.06666666666666"/>
      <point x="741.5333333333333" y="88.18666666666667"/>
      <point x="624.9066666666666" y="88.18666666666667" type="curve" smooth="yes"/>
      <point x="365.18666666666667" y="88.18666666666667"/>
      <point x="240.92000000000002" y="234.6533333333333"/>
    </contour>
  </outline>
</glyph>
<glyph name="r" format="2">
	<unicode hex="0072"/>
	<advance width="871.16"/>
	<outline>
		<contour>
			<point x="746.2533333333" y="1043.2533333333" type="curve" smooth="yes"/>
			<point x="663.4133333333" y="1043.2533333333"/>
			<point x="595.4533333333" y="1017.28"/>
			<point x="333.36" y="819.6666666667" type="curve"/>
			<point x="359.9733333333" y="795.32" type="line"/>
			<point x="487.0266666667" y="873.56"/>
			<point x="539.3066666667" y="883.0666666667"/>
			<point x="601.4666666667" y="883.0666666667" type="curve" smooth="yes"/>
			<point x="659.1333333333" y="883.0666666667"/>
			<point x="722.5466666667" y="879.3333333333"/>
			<point x="787.84" y="879.3333333333" type="curve" smooth="yes"/>
			<point x="807.2" y="879.3333333333"/>
			<point x="823.92" y="916.3066666667"/>
			<point x="823.92" y="965.2133333333" type="curve" smooth="yes"/>
			<point x="823.92" y="1014.5333333333"/>
			<point x="795.4666666667" y="1043.2533333333"/>
		</contour>
		<contour>
			<point x="388.1866666667" y="866.3466666667" type="line"/>
			<point x="362.2666666667" y="1045.8666666667" type="line"/>
			<point x="337.4266666667" y="1045.8666666667" type="line"/>
			<point x="73.7333333333" y="975.0133333333" type="line"/>
			<point x="73.7333333333" y="935.2666666667" type="line"/>
			<point x="147.7333333333" y="911.7117458747"/>
			<point x="241.2666666667" y="884.1827199179"/>
			<point x="267.2666666667" y="875.9066666667" type="curve"/>
			<point x="267.2666666667" y="90.88" type="line"/>
			<point x="100.2666666667" y="65.92" type="line"/>
			<point x="100.2666666667" y="0" type="line"/>
			<point x="575.56" y="0" type="line"/>
			<point x="575.56" y="65.92" type="line"/>
			<point x="388.1866666667" y="90.88" type="line"/>
		</contour>
	</outline>
	<anchor name="top" x="459.3066666667" y="1024"/>
	<anchor name="bottom" x="328.04" y="0"/>
</glyph>
<glyph name="s" format="2">
	<unicode hex="0073"/>
	<advance width="1037.0266666667"/>
	<outline>
		<contour>
			<point x="552.6666666667" y="1044" type="curve" smooth="yes"/>
			<point x="279.9466666667" y="1044"/>
			<point x="137.0266666667" y="942"/>
			<point x="137.0266666667" y="766.2933333333" type="curve" smooth="yes"/>
			<point x="137.0266666667" y="572.96"/>
			<point x="261.0133333333" y="524.72"/>
			<point x="429.1466666667" y="496.0933333333" type="curve" smooth="yes"/>
			<point x="597.28" y="467.4666666667"/>
			<point x="813.6933333333" y="475.4533333333"/>
			<point x="813.6933333333" y="276.8666666667" type="curve" smooth="yes"/>
			<point x="813.6933333333" y="147.0666666667"/>
			<point x="714.1866666667" y="70.88"/>
			<point x="479.9866666667" y="70.88" type="curve" smooth="yes"/>
			<point x="398.48" y="70.88"/>
			<point x="276.52" y="84.1466666667"/>
			<point x="202.2666666667" y="112.5333333333" type="curve"/>
			<point x="291.4266666667" y="43.2533333333" type="line"/>
			<point x="194.8666666667" y="321.24" type="line"/>
			<point x="111.1466666667" y="321.24" type="line"/>
			<point x="146" y="36" type="line"/>
			<point x="229" y="0.7466666667"/>
			<point x="370.7466666667" y="-16"/>
			<point x="476.4933333333" y="-16" type="curve" smooth="yes"/>
			<point x="783.44" y="-16"/>
			<point x="926.1333333333" y="101.76"/>
			<point x="926.1333333333" y="295.8266666667" type="curve" smooth="yes"/>
			<point x="926.1333333333" y="534.9333333333"/>
			<point x="736.1333333333" y="566.56"/>
			<point x="566.12" y="590.6933333333" type="curve" smooth="yes"/>
			<point x="396.1066666667" y="614.8266666667"/>
			<point x="247.96" y="631.2133333333"/>
			<point x="247.96" y="788.0133333333" type="curve" smooth="yes"/>
			<point x="247.96" y="905.4666666667"/>
			<point x="347.2533333333" y="960.6133333333"/>
			<point x="546.5866666667" y="960.6133333333" type="curve" smooth="yes"/>
			<point x="626.2266666667" y="960.6133333333"/>
			<point x="717.08" y="942.36"/>
			<point x="826.6133333333" y="897.7066666667" type="curve"/>
			<point x="713.9866666667" y="975.7466666667" type="line"/>
			<point x="799.16" y="739.0266666667" type="line"/>
			<point x="881.0133333333" y="739.0266666667" type="line"/>
			<point x="852.2666666667" y="993.7466666667" type="line"/>
			<point x="757.96" y="1025.8666666667"/>
			<point x="668.3333333333" y="1044"/>
		</contour>
	</outline>
	<anchor name="top" x="517.7066666667" y="1024"/>
	<anchor name="bottom" x="535.0933333333" y="0"/>
</glyph>
<glyph name="t" format="2">
	<unicode hex="0074"/>
	<advance width="822.84"/>
	<outline>
		<contour>
			<point x="359.6933333333" y="271.2666666667" type="curve" smooth="yes"/>
			<point x="359.6933333333" y="987.7466666667" type="line"/>
			<point x="359.6933333333" y="1170.7333333333" type="line"/>
			<point x="301" y="1170.7333333333" type="line"/>
			<point x="259.9466666667" y="1057.8"/>
			<point x="226.96" y="1033.4533333333"/>
			<point x="48.6533333333" y="996.1466666667" type="curve"/>
			<point x="48.6533333333" y="948.5733333333" type="line"/>
			<point x="238.7733333333" y="920.0133333333" type="line"/>
			<point x="238.7733333333" y="208.12" type="line" smooth="yes"/>
			<point x="238.7733333333" y="56.88"/>
			<point x="347.6133333333" y="-13.7333333333"/>
			<point x="483.4533333333" y="-13.7333333333" type="curve" smooth="yes"/>
			<point x="559.44" y="-13.7333333333"/>
			<point x="619.48" y="-1.0266666667"/>
			<point x="780.9866666667" y="61.1466666667" type="curve"/>
			<point x="780.9866666667" y="126.0933333333" type="line"/>
			<point x="690.4533333333" y="104.72"/>
			<point x="617.32" y="93.9733333333"/>
			<point x="563.7066666667" y="93.9733333333" type="curve" smooth="yes"/>
			<point x="412.2933333333" y="93.9733333333"/>
			<point x="359.6933333333" y="142.4933333333"/>
		</contour>
		<contour>
			<point x="303.12" y="924.7733333333" type="line"/>
			<point x="765.12" y="924.7733333333" type="line"/>
			<point x="765.12" y="1024" type="line"/>
			<point x="305.36" y="1024" type="line"/>
		</contour>
	</outline>
	<anchor name="bottom" x="515.8933333333" y="0"/>
	<anchor name="right" x="368.4933333333" y="1535"/>
</glyph>
<glyph name="u" format="2">
  <advance width="1328"/>
  <unicode hex="0075"/>
  <anchor x="626.7866666666666" y="1024.0" name="top"/>
  <anchor x="1129.1066666666666" y="0.0" name="right"/>
  <anchor x="661.64" y="0.0" name="bottom"/>
  <anchor x="1031.6399999999999" y="1024.0" name="horn"/>
  <outline>
    <contour>
      <point x="362.22666666666663" y="343.9733333333333" type="curve" smooth="yes"/>
      <point x="362.22666666666663" y="923.7466666666667" type="line"/>
      <point x="379.2133333333333" y="1035.88" type="line"/>
      <point x="29.106666666666666" y="1024.0" type="line"/>
      <point x="29.106666666666666" y="951.4399999999999" type="line"/>
      <point x="241.30666666666667" y="916.6533333333333" type="line"/>
      <point x="241.30666666666667" y="283.9866666666667" type="line" smooth="yes"/>
      <point x="241.30666666666667" y="79.36"/>
      <point x="329.78666666666663" y="-20.0"/>
      <point x="554.5600000000001" y="-20.0" type="curve" smooth="yes"/>
      <point x="684.2133333333334" y="-20.0"/>
      <point x="755.9466666666667" y="5.16"/>
      <point x="969.3866666666667" y="147.56" type="curve"/>
      <point x="963.7866666666667" y="189.17333333333332" type="line"/>
      <point x="834.7733333333334" y="126.19999999999999"/>
      <point x="733.8933333333333" y="101.55999999999999"/>
      <point x="624.5866666666667" y="101.55999999999999" type="curve" smooth="yes"/>
      <point x="423.47999999999996" y="101.55999999999999"/>
      <point x="362.22666666666663" y="161.08"/>
    </contour>
    <contour>
      <point x="987.8" y="-16.240000000000002" type="line"/>
      <point x="1015.1466666666666" y="-16.240000000000002" type="line"/>
      <point x="1294.1733333333334" y="55.24" type="line"/>
      <point x="1294.1733333333334" y="95.35999999999999" type="line"/>
      <point x="1252.1733333333334" y="105.49766326713186"/>
      <point x="1097.2" y="137.32704956163894"/>
      <point x="1073.2" y="143.12" type="curve"/>
      <point x="1073.2" y="923.7466666666667" type="line"/>
      <point x="1089.44" y="1035.88" type="line"/>
      <point x="743.0666666666667" y="1024.0" type="line"/>
      <point x="743.0666666666667" y="951.4399999999999" type="line"/>
      <point x="952.2800000000001" y="916.6533333333333" type="line"/>
      <point x="952.2800000000001" y="143.96" type="line"/>
    </contour>
  </outline>
</glyph>
<glyph name="v" format="2">
	<unicode hex="0076"/>
	<advance width="1346.4933333333"/>
	<outline>
		<contour>
			<point x="1148.32" y="937.1066666667" type="line"/>
			<point x="1294.6266666667" y="959.9466666667" type="line"/>
			<point x="1294.6266666667" y="1024" type="line"/>
			<point x="885.8133333333" y="1024" type="line"/>
			<point x="885.8133333333" y="959.9466666667" type="line"/>
			<point x="1047.5866666667" y="934.6133333333" type="line"/>
			<point x="692.0666666667" y="61.2" type="line"/>
			<point x="715.6666666667" y="61.2" type="line"/>
			<point x="322.7866666667" y="933.7466666667" type="line"/>
			<point x="483.4133333333" y="959.9466666667" type="line"/>
			<point x="483.4133333333" y="1024" type="line"/>
			<point x="28.1466666667" y="1024" type="line"/>
			<point x="28.1466666667" y="966.2133333333" type="line"/>
			<point x="186.28" y="930.76" type="line"/>
			<point x="622.7066666667" y="-20" type="line"/>
			<point x="743.1466666667" y="-20" type="line"/>
		</contour>
	</outline>
	<anchor name="top" x="688.8533333333" y="1024"/>
	<anchor name="bottom" x="684.3733333333" y="0"/>
</glyph>
<glyph name="w" format="2">
	<unicode hex="0077"/>
	<advance width="1811.6"/>
	<outline>
		<contour>
			<point x="1524.4266666667" y="934.6133333333" type="line"/>
			<point x="1281.28" y="62.6933333333" type="line"/>
			<point x="1312.4666666667" y="62.6933333333" type="line"/>
			<point x="991.52" y="1044" type="line"/>
			<point x="867.8133333333" y="1044" type="line"/>
			<point x="530.8933333333" y="50.3733333333" type="line"/>
			<point x="567.0533333333" y="50.3733333333" type="line"/>
			<point x="326.4533333333" y="933.7466666667" type="line"/>
			<point x="485.5866666667" y="959.9466666667" type="line"/>
			<point x="485.5866666667" y="1024" type="line"/>
			<point x="40.0266666667" y="1024" type="line"/>
			<point x="40.0266666667" y="966.2133333333" type="line"/>
			<point x="198.16" y="930.76" type="line"/>
			<point x="464.12" y="-20" type="line"/>
			<point x="591.8266666667" y="-20" type="line"/>
			<point x="925.08" y="943.0533333333" type="line"/>
			<point x="896.96" y="940.0666666667" type="line"/>
			<point x="1216.6266666667" y="-20" type="line"/>
			<point x="1344.3333333333" y="-20" type="line"/>
			<point x="1620.3066666667" y="937.1066666667" type="line"/>
			<point x="1765.12" y="959.9466666667" type="line"/>
			<point x="1765.12" y="1024" type="line"/>
			<point x="1361.5333333333" y="1024" type="line"/>
			<point x="1361.5333333333" y="959.9466666667" type="line"/>
		</contour>
	</outline>
	<anchor name="top" x="920.4933333333" y="1024"/>
	<anchor name="bottom" x="917.5066666667" y="0"/>
</glyph>
<glyph name="x" format="2">
	<unicode hex="0078"/>
	<advance width="1288.7066666667"/>
	<outline>
		<contour>
			<point x="1100.0266666667" y="92.12" type="line"/>
			<point x="692.72" y="560.5733333333" type="line"/>
			<point x="672.6" y="583.0666666667" type="line"/>
			<point x="372.32" y="935.6133333333" type="line"/>
			<point x="521.3733333333" y="959.9466666667" type="line"/>
			<point x="521.3733333333" y="1024" type="line"/>
			<point x="69.4" y="1024" type="line"/>
			<point x="69.4" y="959.9466666667" type="line"/>
			<point x="218.5733333333" y="931.88" type="line"/>
			<point x="590.4933333333" y="502.56" type="line"/>
			<point x="613.6" y="476.3333333333" type="line"/>
			<point x="946.28" y="88.3866666667" type="line"/>
			<point x="796.8533333333" y="64.0533333333" type="line"/>
			<point x="796.8533333333" y="0" type="line"/>
			<point x="1249.2" y="0" type="line"/>
			<point x="1249.2" y="64.0533333333" type="line"/>
		</contour>
		<contour>
			<point x="642.9466666667" y="481.48" type="line"/>
			<point x="688.2266666667" y="516.9066666667" type="line"/>
			<point x="1071.8933333333" y="937.48" type="line"/>
			<point x="1209.2133333333" y="959.9466666667" type="line"/>
			<point x="1209.2133333333" y="1024" type="line"/>
			<point x="809.7333333333" y="1024" type="line"/>
			<point x="809.7333333333" y="959.9466666667" type="line"/>
			<point x="960.16" y="937.9733333333" type="line"/>
			<point x="634.9333333333" y="572.0933333333" type="line"/>
			<point x="589.0266666667" y="535.4133333333" type="line"/>
			<point x="193.4533333333" y="87.8933333333" type="line"/>
			<point x="46.9866666667" y="64.0533333333" type="line"/>
			<point x="46.9866666667" y="0" type="line"/>
			<point x="455.24" y="0" type="line"/>
			<point x="455.24" y="64.0533333333" type="line"/>
			<point x="302.4266666667" y="86.7733333333" type="line"/>
		</contour>
	</outline>
	<anchor name="top" x="656.68" y="1024"/>
	<anchor name="bottom" x="654.1733333333" y="0"/>
</glyph>
<glyph name="y" format="2">
	<unicode hex="0079"/>
	<advance width="1323.4533333333"/>
	<outline>
		<contour>
			<point x="736.0133333333" y="64.9333333333" type="line"/>
			<point x="328.4" y="933.7466666667" type="line"/>
			<point x="489.0266666667" y="959.9466666667" type="line"/>
			<point x="489.0266666667" y="1024" type="line"/>
			<point x="34.1333333333" y="1024" type="line"/>
			<point x="34.1333333333" y="966.2133333333" type="line"/>
			<point x="192.2666666667" y="930.76" type="line"/>
			<point x="655.44" y="-40.68" type="line"/>
		</contour>
		<contour>
			<point x="337.96" y="-465" type="curve" smooth="yes"/>
			<point x="482.2533333333" y="-465"/>
			<point x="568.6133333333" y="-399.8"/>
			<point x="652.7333333333" y="-201.1733333333" type="curve" smooth="yes"/>
			<point x="1134.1466666667" y="937.1066666667" type="line"/>
			<point x="1280.4533333333" y="959.9466666667" type="line"/>
			<point x="1280.4533333333" y="1024" type="line"/>
			<point x="868.0133333333" y="1024" type="line"/>
			<point x="868.0133333333" y="959.9466666667" type="line"/>
			<point x="1029.7866666667" y="934.6133333333" type="line"/>
			<point x="682.04" y="54.8266666667" type="line"/>
			<point x="665.6666666667" y="24.96" type="line"/>
			<point x="605.6133333333" y="-103.9066666667" type="line" smooth="yes"/>
			<point x="536.52" y="-252.4666666667"/>
			<point x="476.7733333333" y="-309.1866666667"/>
			<point x="377.64" y="-309.1866666667" type="curve" smooth="yes"/>
			<point x="343.6933333333" y="-309.1866666667"/>
			<point x="248.7333333333" y="-294.2133333333"/>
			<point x="232.1333333333" y="-294.2133333333" type="curve" smooth="yes"/>
			<point x="216.0266666667" y="-294.2133333333"/>
			<point x="196.9466666667" y="-324.3066666667"/>
			<point x="196.9466666667" y="-360.12" type="curve" smooth="yes"/>
			<point x="196.9466666667" y="-428.5466666667"/>
			<point x="236.76" y="-465"/>
		</contour>
	</outline>
	<anchor name="top" x="674.76" y="1024"/>
	<anchor name="bottom" x="850.8666666667" y="-141.7866666667"/>
</glyph>
<glyph name="z" format="2">
	<unicode hex="007A"/>
	<advance width="1073.72"/>
	<outline>
		<contour>
			<point x="103.64" y="0" type="line"/>
			<point x="917.96" y="0" type="line"/>
			<point x="999.7066666667" y="344.2" type="line"/>
			<point x="930.4266666667" y="344.2" type="line"/>
			<point x="774.7733333333" y="31.7333333333" type="line"/>
			<point x="842.28" y="85.8666666667" type="line"/>
			<point x="200.1733333333" y="85.8666666667" type="line"/>
			<point x="226.1466666667" y="34.84" type="line"/>
			<point x="962.5866666667" y="965.0266666667" type="line"/>
			<point x="962.5866666667" y="1024" type="line"/>
			<point x="245.6933333333" y="1024" type="line"/>
			<point x="198.92" y="1044" type="line"/>
			<point x="136.8933333333" y="1044" type="line"/>
			<point x="106.8933333333" y="710.5333333333" type="line"/>
			<point x="176.4266666667" y="710.5333333333" type="line"/>
			<point x="285.6933333333" y="994" type="line"/>
			<point x="184.8933333333" y="938.1333333333" type="line"/>
			<point x="869.0266666667" y="938.1333333333" type="line"/>
			<point x="837.5866666667" y="986.16" type="line"/>
			<point x="103.64" y="58.9733333333" type="line"/>
		</contour>
	</outline>
	<anchor name="top" x="560.1333333333" y="1024"/>
	<anchor name="bottom" x="544.4933333333" y="0"/>
</glyph>
<glyph name="braceleft" format="2">
	<unicode hex="007B"/>
	<advance width="717.3466666667"/>
	<outline>
		<contour>
			<point x="77.88" y="581.1733333333" type="line"/>
			<point x="151.88" y="580.8" type="line" smooth="yes"/>
			<point x="257.76" y="580.0533333333"/>
			<point x="307.7733333333" y="528.16"/>
			<point x="307.7733333333" y="437.4" type="curve" smooth="yes"/>
			<point x="307.7733333333" y="279.2266666667"/>
			<point x="254.0266666667" y="175.9866666667"/>
			<point x="254.0266666667" y="51.2533333333" type="curve" smooth="yes"/>
			<point x="254.0266666667" y="-78.24"/>
			<point x="322.48" y="-216.2533333333"/>
			<point x="534.7066666667" y="-234.5066666667" type="curve" smooth="yes"/>
			<point x="625.72" y="-242" type="line"/>
			<point x="634.5866666667" y="-168.6" type="line"/>
			<point x="559.2266666667" y="-159.8533333333" type="line" smooth="yes"/>
			<point x="421.3066666667" y="-144.2266666667"/>
			<point x="384.8" y="-61.5733333333"/>
			<point x="384.8" y="47.2" type="curve" smooth="yes"/>
			<point x="384.8" y="152.3333333333"/>
			<point x="421.2" y="275.9866666667"/>
			<point x="421.2" y="407.4133333333" type="curve" smooth="yes"/>
			<point x="421.2" y="542.4"/>
			<point x="353.0933333333" y="619.3866666667"/>
			<point x="195.16" y="635.48" type="curve"/>
			<point x="195.16" y="606.1466666667" type="line"/>
			<point x="353.0933333333" y="621.8666666667"/>
			<point x="421.2" y="698.8533333333"/>
			<point x="421.2" y="834.5866666667" type="curve" smooth="yes"/>
			<point x="421.2" y="965.64"/>
			<point x="384.8" y="1089.6666666667"/>
			<point x="384.8" y="1194.4266666667" type="curve" smooth="yes"/>
			<point x="384.8" y="1303.5733333333"/>
			<point x="421.3066666667" y="1385.8533333333"/>
			<point x="559.2266666667" y="1401.48" type="curve" smooth="yes"/>
			<point x="634.5866666667" y="1410.2266666667" type="line"/>
			<point x="625.72" y="1484" type="line"/>
			<point x="534.7066666667" y="1476.5066666667" type="line" smooth="yes"/>
			<point x="322.48" y="1458.2533333333"/>
			<point x="254.0266666667" y="1319.4933333333"/>
			<point x="254.0266666667" y="1190" type="curve" smooth="yes"/>
			<point x="254.0266666667" y="1066.0133333333"/>
			<point x="307.7733333333" y="962.7733333333"/>
			<point x="307.7733333333" y="804.6" type="curve" smooth="yes"/>
			<point x="307.7733333333" y="713.4666666667"/>
			<point x="257.76" y="661.5733333333"/>
			<point x="151.88" y="660.8266666667" type="curve" smooth="yes"/>
			<point x="77.88" y="660.08" type="line"/>
		</contour>
	</outline>
</glyph>
<glyph name="bar" format="2">
  <advance width="570"/>
  <unicode hex="007C"/>
  <outline>
    <contour>
      <point x="233.28" y="-465.0" type="line"/>
      <point x="336.88" y="-465.0" type="line"/>
      <point x="336.88" y="1535.0" type="line"/>
      <point x="233.28" y="1535.0" type="line"/>
    </contour>
  </outline>
</glyph>
<glyph name="braceright" format="2">
	<unicode hex="007D"/>
	<advance width="717.9733333333"/>
	<outline>
		<contour>
			<point x="639.4666666667" y="661.4533333333" type="line"/>
			<point x="565.4666666667" y="661.8266666667" type="line" smooth="yes"/>
			<point x="459.5866666667" y="662.5733333333"/>
			<point x="409.5733333333" y="714.4666666667"/>
			<point x="409.5733333333" y="805.2266666667" type="curve" smooth="yes"/>
			<point x="409.5733333333" y="963.4"/>
			<point x="463.32" y="1066.64"/>
			<point x="463.32" y="1191.3733333333" type="curve" smooth="yes"/>
			<point x="463.32" y="1320.8666666667"/>
			<point x="394.8666666667" y="1458.88"/>
			<point x="182.64" y="1477.1333333333" type="curve" smooth="yes"/>
			<point x="91.6266666667" y="1484.6266666667" type="line"/>
			<point x="82.76" y="1411.2266666667" type="line"/>
			<point x="158.12" y="1402.48" type="line" smooth="yes"/>
			<point x="296.04" y="1386.8533333333"/>
			<point x="332.5466666667" y="1304.2"/>
			<point x="332.5466666667" y="1195.4266666667" type="curve" smooth="yes"/>
			<point x="332.5466666667" y="1090.2933333333"/>
			<point x="296.1466666667" y="966.64"/>
			<point x="296.1466666667" y="835.2133333333" type="curve" smooth="yes"/>
			<point x="296.1466666667" y="700.2266666667"/>
			<point x="364.2533333333" y="623.24"/>
			<point x="522.1866666667" y="607.1466666667" type="curve"/>
			<point x="522.1866666667" y="636.48" type="line"/>
			<point x="364.2533333333" y="620.76"/>
			<point x="296.1466666667" y="543.7733333333"/>
			<point x="296.1466666667" y="408.04" type="curve" smooth="yes"/>
			<point x="296.1466666667" y="276.9866666667"/>
			<point x="332.5466666667" y="152.96"/>
			<point x="332.5466666667" y="48.2" type="curve" smooth="yes"/>
			<point x="332.5466666667" y="-60.9466666667"/>
			<point x="296.04" y="-143.2266666667"/>
			<point x="158.12" y="-158.8533333333" type="curve" smooth="yes"/>
			<point x="82.76" y="-167.6" type="line"/>
			<point x="91.6266666667" y="-241.3733333333" type="line"/>
			<point x="182.64" y="-233.88" type="line" smooth="yes"/>
			<point x="394.8666666667" y="-215.6266666667"/>
			<point x="463.32" y="-76.8666666667"/>
			<point x="463.32" y="52.6266666667" type="curve" smooth="yes"/>
			<point x="463.32" y="176.6133333333"/>
			<point x="409.5733333333" y="279.8533333333"/>
			<point x="409.5733333333" y="438.0266666667" type="curve" smooth="yes"/>
			<point x="409.5733333333" y="529.16"/>
			<point x="459.5866666667" y="581.0533333333"/>
			<point x="565.4666666667" y="581.8" type="curve" smooth="yes"/>
			<point x="639.4666666667" y="582.5466666667" type="line"/>
		</contour>
	</outline>
</glyph>
<glyph name="asciitilde" format="2">
	<unicode hex="007E"/>
	<advance width="1140"/>
	<outline>
		<contour>
			<point x="149.3466666667" y="384.8" type="curve"/>
			<point x="251.32" y="384.8" type="line"/>
			<point x="262.08" y="495.9466666667"/>
			<point x="299.0933333333" y="548.5866666667"/>
			<point x="394.76" y="548.5866666667" type="curve" smooth="yes"/>
			<point x="527.44" y="548.5866666667"/>
			<point x="579.9333333333" y="375.68"/>
			<point x="758.8" y="375.68" type="curve" smooth="yes"/>
			<point x="883.3733333333" y="375.68"/>
			<point x="985.2666666667" y="440.7466666667"/>
			<point x="991.4" y="642.56" type="curve"/>
			<point x="889.4266666667" y="642.56" type="line"/>
			<point x="878.6666666667" y="531.04"/>
			<point x="841.6533333333" y="478.7733333333"/>
			<point x="745.9866666667" y="478.7733333333" type="curve" smooth="yes"/>
			<point x="613.3066666667" y="478.7733333333"/>
			<point x="560.8133333333" y="651.3066666667"/>
			<point x="381.9466666667" y="651.3066666667" type="curve" smooth="yes"/>
			<point x="257.3733333333" y="651.3066666667"/>
			<point x="155.48" y="586.6133333333"/>
		</contour>
	</outline>
</glyph>
<glyph name="exclamdown" format="2">
	<unicode hex="00A1"/>
	<advance width="574.88"/>
	<outline>
		<contour>
			<point x="212.8133333333" y="-378.8" type="line" smooth="yes"/>
			<point x="212.8133333333" y="-399.52"/>
			<point x="237.1866666667" y="-409.6266666667"/>
			<point x="287.44" y="-409.6266666667" type="curve" smooth="yes"/>
			<point x="337.6933333333" y="-409.6266666667"/>
			<point x="362.0666666667" y="-399.52"/>
			<point x="362.0666666667" y="-378.8" type="curve" smooth="yes"/>
			<point x="362.0666666667" y="-309.56" type="line" smooth="yes"/>
			<point x="362.0666666667" y="-210.4"/>
			<point x="335.8576656151" y="354.7733333333"/>
			<point x="326.88" y="613.44" type="curve"/>
			<point x="248" y="613.44" type="line"/>
			<point x="239.3956677182" y="354.7733333333"/>
			<point x="212.8133333333" y="-210.4"/>
			<point x="212.8133333333" y="-309.56" type="curve" smooth="yes"/>
		</contour>
		<contour>
			<point x="287.44" y="798.9333333333" type="curve" smooth="yes"/>
			<point x="361.76" y="798.9333333333"/>
			<point x="410.6" y="838.52"/>
			<point x="410.6" y="918.4666666667" type="curve" smooth="yes"/>
			<point x="410.6" y="998.4133333333"/>
			<point x="361.76" y="1038"/>
			<point x="287.44" y="1038" type="curve" smooth="yes"/>
			<point x="213.12" y="1038"/>
			<point x="164.28" y="998.4133333333"/>
			<point x="164.28" y="918.4666666667" type="curve" smooth="yes"/>
			<point x="164.28" y="838.52"/>
			<point x="213.12" y="798.9333333333"/>
		</contour>
	</outline>
</glyph>
<glyph name="currency" format="2">
	<unicode hex="00A4"/>
	<advance width="1066.32"/>
	<outline>
		<contour>
			<point x="230.2266666667" y="885.64" type="line"/>
			<point x="160.8266666667" y="816.6133333333" type="line"/>
			<point x="296.28" y="681.16" type="line"/>
			<point x="365.68" y="750.1866666667" type="line"/>
		</contour>
		<contour>
			<point x="160.8266666667" y="210.3733333333" type="line"/>
			<point x="230.2266666667" y="141.3466666667" type="line"/>
			<point x="368.2933333333" y="279.4133333333" type="line"/>
			<point x="299.2666666667" y="348.8133333333" type="line"/>
		</contour>
		<contour>
			<point x="533.3466666667" y="827.4133333333" type="curve" smooth="yes"/>
			<point x="347.28" y="827.4133333333"/>
			<point x="216.9333333333" y="698.8133333333"/>
			<point x="216.9333333333" y="513.8666666667" type="curve" smooth="yes"/>
			<point x="216.9333333333" y="328.5466666667"/>
			<point x="347.28" y="199.9466666667"/>
			<point x="533.3466666667" y="199.9466666667" type="curve" smooth="yes"/>
			<point x="719.04" y="199.9466666667"/>
			<point x="849.3866666667" y="328.5466666667"/>
			<point x="849.3866666667" y="513.8666666667" type="curve" smooth="yes"/>
			<point x="849.3866666667" y="698.8133333333"/>
			<point x="719.04" y="827.4133333333"/>
		</contour>
		<contour>
			<point x="533.3466666667" y="288.96" type="curve" smooth="yes"/>
			<point x="403.3333333333" y="288.96"/>
			<point x="311.0666666667" y="378.9733333333"/>
			<point x="311.0666666667" y="513.8666666667" type="curve" smooth="yes"/>
			<point x="311.0666666667" y="648.3866666667"/>
			<point x="403.3333333333" y="738.4"/>
			<point x="533.3466666667" y="738.4" type="curve" smooth="yes"/>
			<point x="662.9866666667" y="738.4"/>
			<point x="755.2533333333" y="648.3866666667"/>
			<point x="755.2533333333" y="513.8666666667" type="curve" smooth="yes"/>
			<point x="755.2533333333" y="378.9733333333"/>
			<point x="662.9866666667" y="288.96"/>
		</contour>
		<contour>
			<point x="905.4933333333" y="816.6133333333" type="line"/>
			<point x="836.0933333333" y="885.64" type="line"/>
			<point x="699.52" y="749.0666666667" type="line"/>
			<point x="768.5466666667" y="680.04" type="line"/>
		</contour>
		<contour>
			<point x="905.4933333333" y="210.3733333333" type="line"/>
			<point x="770.04" y="345.8266666667" type="line"/>
			<point x="700.64" y="276.8" type="line"/>
			<point x="836.0933333333" y="141.3466666667" type="line"/>
		</contour>
	</outline>
</glyph>
<glyph name="brokenbar" format="2">
  <advance width="570.16"/>
  <unicode hex="00A6"/>
  <outline>
    <contour>
      <point x="336.88" y="775.0" type="line"/>
      <point x="336.88" y="1535.0" type="line"/>
      <point x="233.28" y="1535.0" type="line"/>
      <point x="233.28" y="775.0" type="line"/>
    </contour>
    <contour>
      <point x="233.28" y="-465.0" type="line"/>
      <point x="336.88" y="-465.0" type="line"/>
      <point x="336.88" y="295.0" type="line"/>
      <point x="233.28" y="295.0" type="line"/>
    </contour>
  </outline>
</glyph>
<glyph name="section" format="2">
	<unicode hex="00A7"/>
	<advance width="1192"/>
	<outline>
		<contour>
			<point x="531.5066666667" y="-243" type="curve" smooth="yes"/>
			<point x="839.6133333333" y="-243"/>
			<point x="970.8533333333" y="-114.1466666667"/>
			<point x="970.8533333333" y="55.3333333333" type="curve" smooth="yes"/>
			<point x="970.8533333333" y="484.5066666667"/>
			<point x="223.5466666667" y="239.7866666667"/>
			<point x="223.5466666667" y="594.8666666667" type="curve" smooth="yes"/>
			<point x="223.5466666667" y="750.6933333333"/>
			<point x="342.5866666667" y="849.5866666667"/>
			<point x="605.0133333333" y="850.7066666667" type="curve"/>
			<point x="574.7733333333" y="886.0533333333" type="line"/>
			<point x="261.1466666667" y="885.68"/>
			<point x="105.2533333333" y="771.0666666667"/>
			<point x="105.2533333333" y="565.08" type="curve" smooth="yes"/>
			<point x="105.2533333333" y="133.2"/>
			<point x="852.68" y="356.36"/>
			<point x="852.68" y="33" type="curve" smooth="yes"/>
			<point x="852.68" y="-75.92"/>
			<point x="769.5466666667" y="-156.12"/>
			<point x="558.6" y="-156.12" type="curve" smooth="yes"/>
			<point x="371.3066666667" y="-156.12"/>
			<point x="288.6" y="-26.9333333333"/>
			<point x="267.6133333333" y="-26.9333333333" type="curve" smooth="yes"/>
			<point x="222.1733333333" y="-26.9333333333"/>
			<point x="181.8666666667" y="-59.2666666667"/>
			<point x="181.8666666667" y="-104.4666666667" type="curve" smooth="yes"/>
			<point x="181.8666666667" y="-180.1333333333"/>
			<point x="264.6133333333" y="-243"/>
		</contour>
		<contour>
			<point x="968.4533333333" y="596.1333333333" type="curve" smooth="yes"/>
			<point x="968.4533333333" y="440.3066666667"/>
			<point x="849.7866666667" y="341.4133333333"/>
			<point x="587.36" y="340.2933333333" type="curve"/>
			<point x="617.2266666667" y="304.9466666667" type="line"/>
			<point x="930.8533333333" y="305.32"/>
			<point x="1086.7466666667" y="419.9333333333"/>
			<point x="1086.7466666667" y="625.92" type="curve" smooth="yes"/>
			<point x="1086.7466666667" y="1057.8"/>
			<point x="339.6933333333" y="834.64"/>
			<point x="339.6933333333" y="1158" type="curve" smooth="yes"/>
			<point x="339.6933333333" y="1266.92"/>
			<point x="422.4533333333" y="1347.12"/>
			<point x="633.4" y="1347.12" type="curve" smooth="yes"/>
			<point x="821.0666666667" y="1347.12"/>
			<point x="903.4" y="1217.9333333333"/>
			<point x="924.3866666667" y="1217.9333333333" type="curve" smooth="yes"/>
			<point x="970.2" y="1217.9333333333"/>
			<point x="1010.1333333333" y="1250.2666666667"/>
			<point x="1010.1333333333" y="1295.4666666667" type="curve" smooth="yes"/>
			<point x="1010.1333333333" y="1371.1333333333"/>
			<point x="927.3866666667" y="1434"/>
			<point x="660.4933333333" y="1434" type="curve" smooth="yes"/>
			<point x="352.3866666667" y="1434"/>
			<point x="221.1466666667" y="1305.1466666667"/>
			<point x="221.1466666667" y="1135.6666666667" type="curve" smooth="yes"/>
			<point x="221.1466666667" y="706.4933333333"/>
			<point x="968.4533333333" y="951.2133333333"/>
		</contour>
	</outline>
</glyph>
<glyph name="copyright" format="2">
	<unicode hex="00A9"/>
	<advance width="1733.52"/>
	<outline>
		<contour>
			<point x="864.2533333333" y="1434" type="curve" smooth="yes"/>
			<point x="415.4" y="1434"/>
			<point x="132.76" y="1168.3733333333"/>
			<point x="132.76" y="708.2533333333" type="curve" smooth="yes"/>
			<point x="132.76" y="246.2533333333"/>
			<point x="415.4" y="-20"/>
			<point x="864.2533333333" y="-20" type="curve" smooth="yes"/>
			<point x="1313.1066666667" y="-20"/>
			<point x="1601.76" y="246.2533333333"/>
			<point x="1601.76" y="708.2533333333" type="curve" smooth="yes"/>
			<point x="1601.76" y="1168.3733333333"/>
			<point x="1313.1066666667" y="1434"/>
		</contour>
		<contour>
			<point x="864.2533333333" y="1354.72" type="curve" smooth="yes"/>
			<point x="1268.0533333333" y="1354.72"/>
			<point x="1515.6133333333" y="1129.44"/>
			<point x="1515.6133333333" y="708.2533333333" type="curve" smooth="yes"/>
			<point x="1515.6133333333" y="285.1866666667"/>
			<point x="1268.0533333333" y="60.5333333333"/>
			<point x="864.2533333333" y="60.5333333333" type="curve" smooth="yes"/>
			<point x="460.8266666667" y="60.5333333333"/>
			<point x="219.5333333333" y="285.1866666667"/>
			<point x="219.5333333333" y="708.2533333333" type="curve" smooth="yes"/>
			<point x="219.5333333333" y="1129.44"/>
			<point x="460.8266666667" y="1354.72"/>
		</contour>
		<contour>
			<point x="931.2266666667" y="381.8133333333" type="curve"/>
			<point x="721.32" y="381.8133333333"/>
			<point x="590.0266666667" y="478.96"/>
			<point x="590.0266666667" y="700.24" type="curve" smooth="yes"/>
			<point x="590.0266666667" y="939.16"/>
			<point x="716.4533333333" y="1039.6933333333"/>
			<point x="913.7466666667" y="1039.6933333333" type="curve" smooth="yes"/>
			<point x="1011.76" y="1039.6933333333"/>
			<point x="1074.3866666667" y="1023.6933333333"/>
			<point x="1147.52" y="981.8133333333" type="curve"/>
			<point x="1104.44" y="1066.4133333333" type="line"/>
			<point x="1136.6533333333" y="862.1733333333" type="line"/>
			<point x="1194.9866666667" y="862.1733333333" type="line"/>
			<point x="1194.9866666667" y="1140" type="line"/>
			<point x="1145.64" y="1140" type="line"/>
			<point x="1115.1733333333" y="1067.88" type="line"/>
			<point x="1167.5333333333" y="1077.24" type="line"/>
			<point x="1099.04" y="1106.7466666667"/>
			<point x="1014.16" y="1123"/>
			<point x="915.52" y="1123" type="curve" smooth="yes"/>
			<point x="647.5733333333" y="1123"/>
			<point x="477.9333333333" y="971.1466666667"/>
			<point x="477.9333333333" y="710.2666666667" type="curve" smooth="yes"/>
			<point x="477.9333333333" y="427"/>
			<point x="637.44" y="301"/>
			<point x="920.1466666667" y="301" type="curve" smooth="yes"/>
			<point x="1010.5066666667" y="301"/>
			<point x="1097.88" y="317.6266666667"/>
			<point x="1167.9866666667" y="343.3733333333" type="curve"/>
			<point x="1200.9866666667" y="546.08" type="line"/>
			<point x="1147.6533333333" y="546.08" type="line"/>
			<point x="1075.1733333333" y="340.84" type="line"/>
			<point x="1129.2533333333" y="420.0666666667" type="line"/>
			<point x="1071.3733333333" y="392.8133333333"/>
			<point x="988.1066666667" y="381.8133333333"/>
		</contour>
	</outline>
</glyph>
<glyph name="ordfeminine" format="2">
	<unicode hex="00AA"/>
	<advance width="985.3333333333"/>
	<outline>
		<contour>
			<point x="168.0266666667" y="532.56" type="line"/>
			<point x="818.92" y="532.56" type="line"/>
			<point x="818.92" y="625.0666666667" type="line"/>
			<point x="168.0266666667" y="625.0666666667" type="line"/>
		</contour>
		<contour>
			<point x="642.9333333333" y="1118.6933333333" type="curve"/>
			<point x="644.1866666667" y="1191.36" type="line"/>
			<point x="233.2533333333" y="1128.12"/>
			<point x="172.9066666667" y="1062.6"/>
			<point x="172.9066666667" y="938.6133333333" type="curve" smooth="yes"/>
			<point x="172.9066666667" y="823.4933333333"/>
			<point x="245.9066666667" y="767.3733333333"/>
			<point x="397.4133333333" y="767.3733333333" type="curve" smooth="yes"/>
			<point x="529.2933333333" y="767.3733333333"/>
			<point x="611.9333333333" y="822.88"/>
			<point x="636.2933333333" y="966.1333333333" type="curve"/>
			<point x="626.3066666667" y="964.2533333333" type="line"/>
			<point x="620.2933333333" y="815.6133333333"/>
			<point x="654.1733333333" y="774.2533333333"/>
			<point x="731.0133333333" y="774.2533333333" type="curve" smooth="yes"/>
			<point x="775.12" y="774.2533333333"/>
			<point x="812.3466666667" y="782.7466666667"/>
			<point x="853.9466666667" y="799.7333333333" type="curve"/>
			<point x="853.9466666667" y="861.1733333333" type="line"/>
			<point x="825.0666666667" y="849.6666666667"/>
			<point x="809.8133333333" y="847.04"/>
			<point x="788.4266666667" y="847.04" type="curve" smooth="yes"/>
			<point x="741.04" y="847.04"/>
			<point x="728.04" y="862.92"/>
			<point x="728.04" y="945.84" type="curve" smooth="yes"/>
			<point x="728.04" y="1209.6266666667" type="line" smooth="yes"/>
			<point x="728.04" y="1363.8666666667"/>
			<point x="670.4133333333" y="1430.6133333333"/>
			<point x="490.9333333333" y="1430.6133333333" type="curve" smooth="yes"/>
			<point x="334.36" y="1430.6133333333"/>
			<point x="180.0266666667" y="1340.88"/>
			<point x="180.0266666667" y="1278.6666666667" type="curve" smooth="yes"/>
			<point x="180.0266666667" y="1256.9333333333"/>
			<point x="197.76" y="1242.44"/>
			<point x="235.2266666667" y="1242.44" type="curve" smooth="yes"/>
			<point x="269.3066666667" y="1242.44"/>
			<point x="285.8" y="1250.4266666667"/>
			<point x="300.2933333333" y="1273.2933333333" type="curve" smooth="yes"/>
			<point x="314.7866666667" y="1296.16"/>
			<point x="326.4133333333" y="1332.28"/>
			<point x="338.7866666667" y="1374.6266666667" type="curve"/>
			<point x="268.16" y="1324.6533333333" type="line"/>
			<point x="342.08" y="1348.5466666667"/>
			<point x="388.9733333333" y="1358.68"/>
			<point x="445.8666666667" y="1358.68" type="curve" smooth="yes"/>
			<point x="580.1733333333" y="1358.68"/>
			<point x="624.44" y="1311.2933333333"/>
			<point x="624.44" y="1199.8666666667" type="curve" smooth="yes"/>
			<point x="624.44" y="994.7466666667" type="line" smooth="yes"/>
			<point x="624.44" y="904.9466666667"/>
			<point x="545.76" y="844.92"/>
			<point x="428.4533333333" y="844.92" type="curve" smooth="yes"/>
			<point x="318.28" y="844.92"/>
			<point x="278.76" y="877.1866666667"/>
			<point x="278.76" y="948.2266666667" type="curve" smooth="yes"/>
			<point x="278.76" y="1031.0133333333"/>
			<point x="332.0266666667" y="1076.0533333333"/>
		</contour>
	</outline>
</glyph>
<glyph name="guillemotleft" format="2">
	<unicode hex="00AB"/>
	<advance width="1105.9066666667"/>
	<outline>
		<contour>
			<point x="220.8933333333" y="547.48" type="line"/>
			<point x="220.8933333333" y="496.52" type="line"/>
			<point x="558.72" y="892.8666666667" type="line"/>
			<point x="501.8133333333" y="948.5333333333" type="line"/>
			<point x="104.5066666667" y="567.32" type="line"/>
			<point x="104.5066666667" y="476.68" type="line"/>
			<point x="501.8133333333" y="95.4666666667" type="line"/>
			<point x="558.72" y="151.1333333333" type="line"/>
		</contour>
		<contour>
			<point x="649.4266666667" y="547.48" type="line"/>
			<point x="649.4266666667" y="496.52" type="line"/>
			<point x="987.2533333333" y="892.8666666667" type="line"/>
			<point x="930.3466666667" y="948.5333333333" type="line"/>
			<point x="533.04" y="567.32" type="line"/>
			<point x="533.04" y="476.68" type="line"/>
			<point x="930.3466666667" y="95.4666666667" type="line"/>
			<point x="987.2533333333" y="151.1333333333" type="line"/>
		</contour>
	</outline>
</glyph>
<glyph name="logicalnot" format="2">
	<unicode hex="00AC"/>
	<advance width="1140"/>
	<outline>
		<contour>
			<point x="144.3733333333" y="759.92" type="line"/>
			<point x="144.3733333333" y="658.5733333333" type="line"/>
			<point x="988.4" y="658.5733333333" type="line"/>
			<point x="988.4" y="759.92" type="line"/>
		</contour>
		<contour>
			<point x="988.4" y="712.5866666667" type="line"/>
			<point x="887.0533333333" y="712.5866666667" type="line"/>
			<point x="887.0533333333" y="255.68" type="line"/>
			<point x="988.4" y="255.68" type="line"/>
		</contour>
	</outline>
</glyph>
<glyph name="registered" format="2">
	<unicode hex="00AE"/>
	<advance width="1142.9466666667"/>
	<outline>
		<contour>
			<point x="568.9733333333" y="1434" type="curve" smooth="yes"/>
			<point x="290.6266666667" y="1434"/>
			<point x="131.3866666667" y="1278.7466666667"/>
			<point x="131.3866666667" y="1007.6266666667" type="curve" smooth="yes"/>
			<point x="131.3866666667" y="735.88"/>
			<point x="290.6266666667" y="580"/>
			<point x="568.9733333333" y="580" type="curve" smooth="yes"/>
			<point x="850.6933333333" y="580"/>
			<point x="1011.56" y="735.88"/>
			<point x="1011.56" y="1007.6266666667" type="curve" smooth="yes"/>
			<point x="1011.56" y="1278.7466666667"/>
			<point x="850.6933333333" y="1434"/>
		</contour>
		<contour>
			<point x="568.9733333333" y="1369.4266666667" type="curve" smooth="yes"/>
			<point x="817.72" y="1369.4266666667"/>
			<point x="940.7466666667" y="1243.9531034483"/>
			<point x="940.7466666667" y="1007.6266666667" type="curve" smooth="yes"/>
			<point x="940.7466666667" y="770.6770413064"/>
			<point x="817.72" y="645.5733333333"/>
			<point x="568.9733333333" y="645.5733333333" type="curve" smooth="yes"/>
			<point x="323.48" y="645.5733333333"/>
			<point x="202.5733333333" y="770.6770413064"/>
			<point x="202.5733333333" y="1007.6266666667" type="curve" smooth="yes"/>
			<point x="202.5733333333" y="1243.9531034483"/>
			<point x="323.48" y="1369.4266666667"/>
		</contour>
		<contour>
			<point x="464.9866666667" y="1038.8666666667" type="line"/>
			<point x="467.2266666667" y="991.3866666667" type="line"/>
			<point x="596.8933333333" y="991.3866666667" type="line" smooth="yes"/>
			<point x="641.7733333333" y="991.3866666667"/>
			<point x="657.16" y="986.64"/>
			<point x="664.16" y="946.0133333333" type="curve" smooth="yes"/>
			<point x="677.04" y="869.7466666667" type="line" smooth="yes"/>
			<point x="687.8423976002" y="805.1920137134"/>
			<point x="713.1383194048" y="790.1435474885"/>
			<point x="813.96" y="797.72" type="curve"/>
			<point x="813.96" y="840.7066666667" type="line"/>
			<point x="769.0666666667" y="840.7066666667"/>
			<point x="761.6933333333" y="847.5866666667"/>
			<point x="756.44" y="881.5866666667" type="curve" smooth="yes"/>
			<point x="745.68" y="946.5066666667" type="line" smooth="yes"/>
			<point x="738.4266666667" y="991.6266666667"/>
			<point x="723.44" y="1015.1333333333"/>
			<point x="665.4533333333" y="1019.1333333333" type="curve"/>
			<point x="659.9466666667" y="1016.5066666667" type="line"/>
			<point x="737.44" y="1027.2666666667"/>
			<point x="767.0533333333" y="1066.52"/>
			<point x="767.0533333333" y="1125.5066666667" type="curve" smooth="yes"/>
			<point x="767.0533333333" y="1197.2533333333"/>
			<point x="723.9333333333" y="1236.64"/>
			<point x="597.64" y="1236.64" type="curve" smooth="yes"/>
			<point x="463.12" y="1236.64" type="line"/>
			<point x="464.9866666667" y="1183.56" type="line"/>
			<point x="573.2933333333" y="1183.56" type="line" smooth="yes"/>
			<point x="664.2533333333" y="1183.56"/>
			<point x="687.1466666667" y="1164.68"/>
			<point x="687.1466666667" y="1116.7866666667" type="curve" smooth="yes"/>
			<point x="687.1466666667" y="1061.6266666667"/>
			<point x="657" y="1038.8666666667"/>
			<point x="590.2" y="1038.8666666667" type="curve" smooth="yes"/>
		</contour>
		<contour>
			<point x="424.8933333333" y="1192.4" type="line"/>
			<point x="424.8933333333" y="841.96" type="line"/>
			<point x="360.7466666667" y="834.72" type="line"/>
			<point x="360.7466666667" y="797.72" type="line"/>
			<point x="573.4666666667" y="797.72" type="line"/>
			<point x="573.4666666667" y="834.72" type="line"/>
			<point x="505.2933333333" y="841.96" type="line"/>
			<point x="505.2933333333" y="1236.64" type="line"/>
			<point x="360.7466666667" y="1236.64" type="line"/>
			<point x="360.7466666667" y="1199.2666666667" type="line"/>
		</contour>
	</outline>
</glyph>
<glyph name="degree" format="2">
	<unicode hex="00B0"/>
	<advance width="818.5466666667"/>
	<outline>
		<contour>
			<point x="408.7733333333" y="1434" type="curve" smooth="yes"/>
			<point x="236.7733333333" y="1434"/>
			<point x="112.7733333333" y="1313"/>
			<point x="112.7733333333" y="1140" type="curve" smooth="yes"/>
			<point x="112.7733333333" y="967"/>
			<point x="236.7733333333" y="846"/>
			<point x="408.7733333333" y="846" type="curve" smooth="yes"/>
			<point x="581.7733333333" y="846"/>
			<point x="705.7733333333" y="967"/>
			<point x="705.7733333333" y="1140" type="curve" smooth="yes"/>
			<point x="705.7733333333" y="1313"/>
			<point x="581.7733333333" y="1434"/>
		</contour>
		<contour>
			<point x="408.7733333333" y="928.1466666667" type="curve" smooth="yes"/>
			<point x="288.2133333333" y="928.1466666667"/>
			<point x="200.92" y="1012.8133333333"/>
			<point x="200.92" y="1140" type="curve" smooth="yes"/>
			<point x="200.92" y="1267.1866666667"/>
			<point x="288.2133333333" y="1351.8533333333"/>
			<point x="408.7733333333" y="1351.8533333333" type="curve" smooth="yes"/>
			<point x="530.3333333333" y="1351.8533333333"/>
			<point x="616.6266666667" y="1267.1866666667"/>
			<point x="616.6266666667" y="1140" type="curve" smooth="yes"/>
			<point x="616.6266666667" y="1012.8133333333"/>
			<point x="530.3333333333" y="928.1466666667"/>
		</contour>
	</outline>
</glyph>
<glyph name="plusminus" format="2">
	<unicode hex="00B1"/>
	<advance width="1140"/>
	<outline>
		<contour>
			<point x="519.8266666667" y="1027.36" type="line"/>
			<point x="519.8266666667" y="188.56" type="line"/>
			<point x="620.5466666667" y="188.56" type="line"/>
			<point x="620.5466666667" y="1027.36" type="line"/>
		</contour>
		<contour>
			<point x="150.7866666667" y="658.32" type="line"/>
			<point x="150.7866666667" y="557.6" type="line"/>
			<point x="989.5866666667" y="557.6" type="line"/>
			<point x="989.5866666667" y="658.32" type="line"/>
		</contour>
		<contour>
			<point x="150.7866666667" y="100.72" type="line"/>
			<point x="150.7866666667" y="0" type="line"/>
			<point x="989.5866666667" y="0" type="line"/>
			<point x="989.5866666667" y="100.72" type="line"/>
		</contour>
	</outline>
</glyph>
<glyph name="uni00B2" format="2">
	<unicode hex="00B2"/>
	<advance width="768.12"/>
	<outline>
		<contour>
			<point x="553.2533333333" y="706.8266666667" type="line"/>
			<point x="625.84" y="757.36" type="line"/>
			<point x="179" y="757.36" type="line"/>
			<point x="191.0133333333" y="711.7733333333" type="line"/>
			<point x="402.7066666667" y="905.6533333333" type="line" smooth="yes"/>
			<point x="577.5066666667" y="1061.7733333333"/>
			<point x="616.3466666667" y="1119.9066666667"/>
			<point x="616.3466666667" y="1228.4" type="curve" smooth="yes"/>
			<point x="616.3466666667" y="1354"/>
			<point x="522" y="1428"/>
			<point x="374.3066666667" y="1428" type="curve" smooth="yes"/>
			<point x="205.9733333333" y="1428"/>
			<point x="118.7772898018" y="1338.9777304195"/>
			<point x="77.52" y="1168.76" type="curve"/>
			<point x="144.3333333333" y="1152.2933333333" type="line"/>
			<point x="179.8266666667" y="1278.4666666667"/>
			<point x="236.0933333333" y="1335.9866666667"/>
			<point x="350.2533333333" y="1335.9866666667" type="curve" smooth="yes"/>
			<point x="455.9066666667" y="1335.9866666667"/>
			<point x="503.04" y="1279.3333333333"/>
			<point x="503.04" y="1205.44" type="curve" smooth="yes"/>
			<point x="503.04" y="1129.0533333333"/>
			<point x="469.9333333333" y="1076.04"/>
			<point x="341.8266666667" y="952.9066666667" type="curve" smooth="yes"/>
			<point x="125.8933333333" y="742.9333333333" type="line"/>
			<point x="125.8933333333" y="662" type="line"/>
			<point x="567.44" y="662" type="line"/>
			<point x="576.7733333333" y="624" type="line"/>
			<point x="636.7466666667" y="624" type="line"/>
			<point x="684.8533333333" y="879.16" type="line"/>
			<point x="619.8" y="879.16" type="line"/>
		</contour>
	</outline>
</glyph>
<glyph name="uni00B3" format="2">
  <advance width="738.2800000000001"/>
  <unicode hex="00B3"/>
  <outline>
    <contour>
      <point x="296.0933333333333" y="652.0" type="curve" smooth="yes"/>
      <point x="523.6266666666667" y="652.0"/>
      <point x="642.5066666666667" y="755.1333333333333"/>
      <point x="642.5066666666667" y="909.8666666666667" type="curve" smooth="yes"/>
      <point x="642.5066666666667" y="1035.48"/>
      <point x="558.5466666666667" y="1103.8666666666668"/>
      <point x="392.56" y="1092.493333333333" type="curve"/>
      <point x="389.78666666666663" y="1086.12" type="line"/>
      <point x="512.1066666666667" y="1098.9866666666667"/>
      <point x="589.0" y="1167.6133333333335"/>
      <point x="589.0" y="1267.506666666667" type="curve" smooth="yes"/>
      <point x="589.0" y="1368.2533333333333"/>
      <point x="515.1333333333333" y="1431.76"/>
      <point x="369.4266666666667" y="1431.76" type="curve" smooth="yes"/>
      <point x="220.36" y="1431.76"/>
      <point x="139.0" y="1364.2666666666667"/>
      <point x="92.01333333333334" y="1230.6666666666667" type="curve"/>
      <point x="155.21333333333334" y="1203.9466666666667" type="line"/>
      <point x="194.09333333333333" y="1301.1066666666666"/>
      <point x="246.97333333333333" y="1345.6133333333332"/>
      <point x="347.50666666666666" y="1345.6133333333332" type="curve" smooth="yes"/>
      <point x="432.65333333333336" y="1345.6133333333332"/>
      <point x="476.5466666666667" y="1300.0933333333332"/>
      <point x="476.5466666666667" y="1234.0666666666666" type="curve" smooth="yes"/>
      <point x="476.5466666666667" y="1150.4133333333334"/>
      <point x="440.41333333333336" y="1101.5066666666667"/>
      <point x="278.52" y="1082.1333333333334" type="curve"/>
      <point x="286.64" y="1014.0666666666666" type="line"/>
      <point x="332.7733333333333" y="1018.6933333333333" type="line" smooth="yes"/>
      <point x="494.68" y="1035.2"/>
      <point x="530.0533333333334" y="980.7866666666666"/>
      <point x="530.0533333333334" y="897.8933333333333" type="curve" smooth="yes"/>
      <point x="530.0533333333334" y="786.9866666666667"/>
      <point x="453.65333333333336" y="726.1733333333334"/>
      <point x="316.71999999999997" y="726.1733333333334" type="curve" smooth="yes"/>
      <point x="209.72" y="726.1733333333334"/>
      <point x="162.08" y="796.2666666666667"/>
      <point x="152.21333333333334" y="796.2666666666667" type="curve" smooth="yes"/>
      <point x="118.74666666666667" y="796.2666666666667"/>
      <point x="95.14666666666666" y="773.4133333333333"/>
      <point x="95.14666666666666" y="739.9466666666667" type="curve" smooth="yes"/>
      <point x="95.14666666666666" y="691.9866666666667"/>
      <point x="143.50666666666666" y="652.0"/>
    </contour>
  </outline>
</glyph>
<glyph name="uni00B5" format="2">
	<unicode hex="00B5"/>
	<advance width="1348.3333333333"/>
	<outline>
		<contour>
			<point x="234.4133333333" y="1024" type="line"/>
			<point x="234.4133333333" y="-453.8666666667" type="line"/>
			<point x="260.88" y="-453.8666666667" type="line"/>
			<point x="388.1866666667" y="-442.76" type="line"/>
			<point x="325.3066666667" y="233.3866666667" type="line"/>
			<point x="311.2133333333" y="219.2" type="line"/>
			<point x="326.7466666667" y="68.2933333333"/>
			<point x="405.56" y="-20"/>
			<point x="554.76" y="-20" type="curve" smooth="yes"/>
			<point x="677.32" y="-20"/>
			<point x="749.0533333333" y="5.16"/>
			<point x="962.4933333333" y="147.56" type="curve"/>
			<point x="956.8933333333" y="189.1733333333" type="line"/>
			<point x="827.88" y="126.2"/>
			<point x="727" y="101.56"/>
			<point x="617.6933333333" y="101.56" type="curve" smooth="yes"/>
			<point x="416.5866666667" y="101.56"/>
			<point x="355.3333333333" y="161.08"/>
			<point x="355.3333333333" y="343.9733333333" type="curve" smooth="yes"/>
			<point x="355.3333333333" y="1024" type="line"/>
		</contour>
		<contour>
			<point x="1066.3066666667" y="256.9866666667" type="curve" smooth="yes"/>
			<point x="1066.3066666667" y="1024" type="line"/>
			<point x="945.3866666667" y="1024" type="line"/>
			<point x="945.3866666667" y="235.5866666667" type="line" smooth="yes"/>
			<point x="945.3866666667" y="54.8133333333"/>
			<point x="1009.72" y="-9.9866666667"/>
			<point x="1121.1866666667" y="-9.9866666667" type="curve" smooth="yes"/>
			<point x="1184.8" y="-9.9866666667"/>
			<point x="1246.2533333333" y="8.9866666667"/>
			<point x="1305.24" y="49.56" type="curve"/>
			<point x="1305.24" y="117" type="line"/>
			<point x="1257.84" y="97.72"/>
			<point x="1225.3466666667" y="90.84"/>
			<point x="1188.4533333333" y="90.84" type="curve" smooth="yes"/>
			<point x="1098.7866666667" y="90.84"/>
			<point x="1066.3066666667" y="122.4666666667"/>
		</contour>
	</outline>
</glyph>
<glyph name="paragraph" format="2">
	<unicode hex="00B6"/>
	<advance width="1359.08"/>
	<outline>
		<contour>
			<point x="719.28" y="1414" type="line"/>
			<point x="497.0533333333" y="1414" type="line" smooth="yes"/>
			<point x="174.12" y="1414"/>
			<point x="64.88" y="1299.88"/>
			<point x="64.88" y="1079.5066666667" type="curve" smooth="yes"/>
			<point x="64.88" y="852.2533333333"/>
			<point x="186.88" y="737.6266666667"/>
			<point x="438.0133333333" y="737.6266666667" type="curve" smooth="yes"/>
			<point x="719.28" y="737.6266666667" type="line"/>
		</contour>
		<contour>
			<point x="761.6133333333" y="-222.6266666667" type="line"/>
			<point x="761.6133333333" y="1329.96" type="line"/>
			<point x="1003.36" y="1329.96" type="line"/>
			<point x="1003.36" y="1414" type="line"/>
			<point x="668.84" y="1414" type="line"/>
			<point x="668.84" y="-222.6266666667" type="line"/>
		</contour>
		<contour>
			<point x="1056.1733333333" y="-222.6266666667" type="line"/>
			<point x="1056.1733333333" y="1328.3333333333" type="line"/>
			<point x="1271.2" y="1348.0666666667" type="line"/>
			<point x="1271.2" y="1414" type="line"/>
			<point x="963.4" y="1414" type="line"/>
			<point x="963.4" y="-222.6266666667" type="line"/>
		</contour>
	</outline>
</glyph>
<glyph name="uni00B9" format="2">
  <advance width="666.0533333333333"/>
  <unicode hex="00B9"/>
  <outline>
    <contour>
      <point x="324.32" y="742.5466666666667" type="line"/>
      <point x="137.50666666666666" y="721.32" type="line"/>
      <point x="137.50666666666666" y="662.0" type="line"/>
      <point x="610.5866666666667" y="662.0" type="line"/>
      <point x="610.5866666666667" y="721.32" type="line"/>
      <point x="434.8933333333333" y="742.5466666666667" type="line"/>
      <point x="434.8933333333333" y="1422.7733333333333" type="line"/>
      <point x="346.64" y="1422.7733333333333" type="line"/>
      <point x="63.77333333333333" y="1272.0266666666666" type="line"/>
      <point x="91.49333333333334" y="1210.72" type="line"/>
      <point x="348.38666666666666" y="1324.2533333333333" type="line"/>
      <point x="324.32" y="1355.52" type="line"/>
    </contour>
  </outline>
</glyph>
<glyph name="ordmasculine" format="2">
	<unicode hex="00BA"/>
	<advance width="1009.72"/>
	<outline>
		<contour>
			<point x="179.4133333333" y="532.56" type="line"/>
			<point x="830.3066666667" y="532.56" type="line"/>
			<point x="830.3066666667" y="625.0666666667" type="line"/>
			<point x="179.4133333333" y="625.0666666667" type="line"/>
		</contour>
		<contour>
			<point x="498.7333333333" y="854.7733333333" type="curve" smooth="yes"/>
			<point x="346.2933333333" y="854.7733333333"/>
			<point x="267.1333333333" y="950.7037362637"/>
			<point x="267.1333333333" y="1102.6266666667" type="curve" smooth="yes"/>
			<point x="267.1333333333" y="1261.6107984791"/>
			<point x="357.1866666667" y="1343.4666666667"/>
			<point x="510.9866666667" y="1343.4666666667" type="curve" smooth="yes"/>
			<point x="663.4266666667" y="1343.4666666667"/>
			<point x="742.5866666667" y="1247.5362637363"/>
			<point x="742.5866666667" y="1095.6133333333" type="curve" smooth="yes"/>
			<point x="742.5866666667" y="936.6292015209"/>
			<point x="652.5333333333" y="854.7733333333"/>
		</contour>
		<contour>
			<point x="500.24" y="768" type="curve" smooth="yes"/>
			<point x="721.2" y="768"/>
			<point x="848.0666666667" y="880"/>
			<point x="848.0666666667" y="1098.8666666667" type="curve" smooth="yes"/>
			<point x="848.0666666667" y="1311.36"/>
			<point x="715.0666666667" y="1430.24"/>
			<point x="509.48" y="1430.24" type="curve" smooth="yes"/>
			<point x="288.52" y="1430.24"/>
			<point x="161.6533333333" y="1318.24"/>
			<point x="161.6533333333" y="1099.3733333333" type="curve" smooth="yes"/>
			<point x="161.6533333333" y="886.88"/>
			<point x="294.6533333333" y="768"/>
		</contour>
	</outline>
</glyph>
<glyph name="guillemotright" format="2">
	<unicode hex="00BB"/>
	<advance width="1127.6533333333"/>
	<outline>
		<contour>
			<point x="463.8533333333" y="496.52" type="line"/>
			<point x="463.8533333333" y="547.48" type="line"/>
			<point x="126.0266666667" y="151.1333333333" type="line"/>
			<point x="182.9333333333" y="95.4666666667" type="line"/>
			<point x="580.24" y="476.68" type="line"/>
			<point x="580.24" y="567.32" type="line"/>
			<point x="182.9333333333" y="948.5333333333" type="line"/>
			<point x="126.0266666667" y="892.8666666667" type="line"/>
		</contour>
		<contour>
			<point x="892.3866666667" y="496.52" type="line"/>
			<point x="892.3866666667" y="547.48" type="line"/>
			<point x="554.56" y="151.1333333333" type="line"/>
			<point x="611.4666666667" y="95.4666666667" type="line"/>
			<point x="1008.7733333333" y="476.68" type="line"/>
			<point x="1008.7733333333" y="567.32" type="line"/>
			<point x="611.4666666667" y="948.5333333333" type="line"/>
			<point x="554.56" y="892.8666666667" type="line"/>
		</contour>
	</outline>
</glyph>
<glyph name="questiondown" format="2">
  <advance width="1050"/>
  <unicode hex="00BF"/>
  <outline>
    <contour>
      <point x="614.4266666666667" y="-410.0" type="curve" smooth="yes"/>
      <point x="907.4666666666667" y="-410.0"/>
      <point x="993.0533333333334" y="-336.5733333333333"/>
      <point x="993.0533333333334" y="-266.37333333333333" type="curve" smooth="yes"/>
      <point x="993.0533333333334" y="-211.04000000000002"/>
      <point x="957.0933333333332" y="-181.57333333333335"/>
      <point x="902.0266666666668" y="-181.57333333333335" type="curve" smooth="yes"/>
      <point x="856.08" y="-181.57333333333335"/>
      <point x="814.76" y="-319.26666666666665"/>
      <point x="591.5333333333333" y="-319.26666666666665" type="curve" smooth="yes"/>
      <point x="338.84000000000003" y="-319.26666666666665"/>
      <point x="220.53333333333336" y="-176.06666666666666"/>
      <point x="220.53333333333336" y="-16.013333333333335" type="curve" smooth="yes"/>
      <point x="220.53333333333336" y="151.88000000000002"/>
      <point x="317.78666666666663" y="239.42666666666668"/>
      <point x="647.7866666666666" y="246.44" type="curve"/>
      <point x="617.2933333333333" y="613.44" type="line"/>
      <point x="543.44" y="613.44" type="line"/>
      <point x="534.8533333333334" y="291.8666666666667" type="line"/>
      <point x="581.0666666666666" y="356.81333333333333" type="line"/>
      <point x="223.77333333333334" y="343.79999999999995"/>
      <point x="97.66666666666667" y="217.48"/>
      <point x="97.66666666666667" y="-15.879999999999999" type="curve" smooth="yes"/>
      <point x="97.66666666666667" y="-226.58666666666667"/>
      <point x="272.7066666666667" y="-410.0"/>
    </contour>
    <contour>
      <point x="580.8666666666667" y="798.9333333333333" type="curve" smooth="yes"/>
      <point x="655.1866666666666" y="798.9333333333333"/>
      <point x="704.0266666666666" y="838.52"/>
      <point x="704.0266666666666" y="918.4666666666667" type="curve" smooth="yes"/>
      <point x="704.0266666666666" y="998.4133333333333"/>
      <point x="655.1866666666666" y="1038.0"/>
      <point x="580.8666666666667" y="1038.0" type="curve" smooth="yes"/>
      <point x="506.5466666666667" y="1038.0"/>
      <point x="457.70666666666665" y="998.4133333333333"/>
      <point x="457.70666666666665" y="918.4666666666667" type="curve" smooth="yes"/>
      <point x="457.70666666666665" y="838.52"/>
      <point x="506.5466666666667" y="798.9333333333333"/>
    </contour>
  </outline>
</glyph>
<glyph name="AE" format="2">
	<unicode hex="00C6"/>
	<advance width="2272.08"/>
	<outline>
		<contour>
			<point x="547.5066666667" y="508.4266666667" type="line"/>
			<point x="1172.2133333333" y="508.4266666667" type="line"/>
			<point x="1172.2133333333" y="609.28" type="line"/>
			<point x="547.5066666667" y="609.28" type="line"/>
		</contour>
		<contour>
			<point x="1079.7466666667" y="1414" type="line"/>
			<point x="189.92" y="98.36" type="line"/>
			<point x="4.3733333333" y="71.5333333333" type="line"/>
			<point x="4.3733333333" y="0" type="line"/>
			<point x="506.88" y="0" type="line"/>
			<point x="506.88" y="71.5333333333" type="line"/>
			<point x="309.6" y="97.7333333333" type="line"/>
			<point x="1160.8533333333" y="1358.56" type="line"/>
			<point x="1160.8533333333" y="1414" type="line"/>
		</contour>
		<contour>
			<point x="786.4533333333" y="1342.4666666667" type="line"/>
			<point x="1074.0533333333" y="1303.2933333333" type="line"/>
			<point x="1094.2133333333" y="1414" type="line"/>
			<point x="786.4533333333" y="1414" type="line"/>
		</contour>
		<contour>
			<point x="1803.7733333333" y="988.7466666667" type="line"/>
			<point x="1723.5333333333" y="988.7466666667" type="line"/>
			<point x="1697.76" y="785.5466666667" type="line"/>
			<point x="1205.2666666667" y="785.5466666667" type="line"/>
			<point x="1205.2666666667" y="684.6933333333" type="line"/>
			<point x="1697.76" y="684.6933333333" type="line"/>
			<point x="1723.5333333333" y="478.12" type="line"/>
			<point x="1803.7733333333" y="478.12" type="line"/>
			<point x="1803.7733333333" y="733.12" type="line"/>
		</contour>
		<contour>
			<point x="2117.1733333333" y="1058.2933333333" type="line"/>
			<point x="2121.56" y="1484" type="line"/>
			<point x="2050.04" y="1484" type="line"/>
			<point x="1996.2266666667" y="1414" type="line"/>
			<point x="1170.8" y="1414" type="line"/>
			<point x="1170.8" y="1313.1466666667" type="line"/>
			<point x="2035.3333333333" y="1313.1466666667" type="line"/>
			<point x="1977.64" y="1379.6" type="line"/>
			<point x="2026.68" y="1058.2933333333" type="line"/>
		</contour>
		<contour>
			<point x="1970.4" y="53.2" type="line"/>
			<point x="2039.0266666667" y="100.8533333333" type="line"/>
			<point x="1170.8" y="100.8533333333" type="line"/>
			<point x="1170.8" y="0" type="line"/>
			<point x="1989.0933333333" y="0" type="line"/>
			<point x="2012.92" y="-72" type="line"/>
			<point x="2101.6933333333" y="-72" type="line"/>
			<point x="2175.1866666667" y="399.4133333333" type="line"/>
			<point x="2088.1866666667" y="399.4133333333" type="line"/>
		</contour>
		<contour>
			<point x="918.1466666667" y="0" type="line"/>
			<point x="1261.3333333333" y="0" type="line"/>
			<point x="1261.3333333333" y="1414" type="line"/>
			<point x="1129.8133333333" y="1414" type="line"/>
			<point x="1129.8133333333" y="98.36" type="line"/>
			<point x="918.1466666667" y="71.5333333333" type="line"/>
		</contour>
	</outline>
	<anchor name="UCtop" x="1195.9466666667" y="1414"/>
	<anchor name="bottom" x="1140.8" y="0"/>
</glyph>
<glyph name="Ccedilla" format="2">
	<unicode hex="00C7"/>
	<advance width="1506"/>
	<outline>
		<contour>
			<point x="905.9333333333" y="82.72" type="curve" smooth="yes"/>
			<point x="517.24" y="82.72"/>
			<point x="264.44" y="278.7066666667"/>
			<point x="269.6666666667" y="704.1466666667" type="curve" smooth="yes"/>
			<point x="274.1466666667" y="1132.9866666667"/>
			<point x="496.56" y="1328.5333333333"/>
			<point x="882.8" y="1328.5333333333" type="curve" smooth="yes"/>
			<point x="1030.6133333333" y="1328.5333333333"/>
			<point x="1138.1733333333" y="1302.1333333333"/>
			<point x="1284.3733333333" y="1222.2" type="curve"/>
			<point x="1220.9733333333" y="1321.12" type="line"/>
			<point x="1275.7866666667" y="979.4266666667" type="line"/>
			<point x="1369.6266666667" y="979.4266666667" type="line"/>
			<point x="1369.6266666667" y="1471.4666666667" type="line"/>
			<point x="1295.8666666667" y="1471.4666666667" type="line"/>
			<point x="1240.0666666667" y="1349.6933333333" type="line"/>
			<point x="1301.4266666667" y="1358.3333333333" type="line"/>
			<point x="1188.2933333333" y="1405.24"/>
			<point x="1055.8533333333" y="1434"/>
			<point x="891.1733333333" y="1434" type="curve" smooth="yes"/>
			<point x="426.6533333333" y="1434"/>
			<point x="132.0133333333" y="1173.6266666667"/>
			<point x="129.7733333333" y="706.2666666667" type="curve" smooth="yes"/>
			<point x="127.5333333333" y="209.84"/>
			<point x="408.52" y="-20"/>
			<point x="906.7066666667" y="-20" type="curve" smooth="yes"/>
			<point x="1062.4933333333" y="-20"/>
			<point x="1223.0666666667" y="12.24"/>
			<point x="1332.96" y="58.7333333333" type="curve"/>
			<point x="1383.6133333333" y="413.2933333333" type="line"/>
			<point x="1296.8666666667" y="413.2933333333" type="line"/>
			<point x="1176.7866666667" y="56.5333333333" type="line"/>
			<point x="1283.32" y="154.2266666667" type="line"/>
			<point x="1173.2" y="105.2133333333"/>
			<point x="1020.7866666667" y="82.72"/>
		</contour>
		<contour>
			<point x="767.2533333333" y="-465" type="curve" smooth="yes"/>
			<point x="910.4533333333" y="-465"/>
			<point x="995.0266666667" y="-395.8533333333"/>
			<point x="995.0266666667" y="-292.6533333333" type="curve" smooth="yes"/>
			<point x="995.0266666667" y="-217.2933333333"/>
			<point x="957.16" y="-159.1866666667"/>
			<point x="770.8533333333" y="-116.68" type="curve"/>
			<point x="783.36" y="-160.9733333333" type="line"/>
			<point x="904.52" y="8.5866666667" type="line"/>
			<point x="827.6" y="8.5866666667" type="line"/>
			<point x="690.04" y="-188.12" type="line"/>
			<point x="690.04" y="-198.84" type="line"/>
			<point x="874.0266666667" y="-235.8533333333"/>
			<point x="898.52" y="-265.4933333333"/>
			<point x="898.52" y="-316.76" type="curve" smooth="yes"/>
			<point x="898.52" y="-371.0266666667"/>
			<point x="862.2533333333" y="-405.68"/>
			<point x="784.9866666667" y="-405.68" type="curve" smooth="yes"/>
			<point x="716.72" y="-405.68"/>
			<point x="686.52" y="-346.3333333333"/>
			<point x="674.9066666667" y="-346.3333333333" type="curve" smooth="yes"/>
			<point x="647.0266666667" y="-346.3333333333"/>
			<point x="625.3066666667" y="-368.2"/>
			<point x="625.3066666667" y="-396.04" type="curve" smooth="yes"/>
			<point x="625.3066666667" y="-435.88"/>
			<point x="655.04" y="-465"/>
		</contour>
	</outline>
</glyph>
<glyph name="multiply" format="2">
	<unicode hex="00D7"/>
	<advance width="1140"/>
	<outline>
		<contour>
			<point x="204.3866666667" y="219.7066666667" type="line"/>
			<point x="276.0266666667" y="148.0666666667" type="line"/>
			<point x="935.6133333333" y="807.6533333333" type="line"/>
			<point x="863.9733333333" y="879.2933333333" type="line"/>
		</contour>
		<contour>
			<point x="204.3866666667" y="807.6533333333" type="line"/>
			<point x="863.9733333333" y="148.0666666667" type="line"/>
			<point x="935.6133333333" y="219.7066666667" type="line"/>
			<point x="276.0266666667" y="879.2933333333" type="line"/>
		</contour>
	</outline>
</glyph>
<glyph name="Oslash" format="2">
	<unicode hex="00D8"/>
	<advance width="1705.8"/>
	<outline>
		<contour>
			<point x="385.7866666667" y="258.12" type="line"/>
			<point x="350.2133333333" y="219.2933333333" type="line"/>
			<point x="152.7866666667" y="0" type="line"/>
			<point x="279.64" y="0" type="line"/>
			<point x="417.6266666667" y="153.36" type="line"/>
			<point x="447.5866666667" y="191.6933333333" type="line"/>
			<point x="1320.0133333333" y="1155.88" type="line"/>
			<point x="1355.5866666667" y="1194.7066666667" type="line"/>
			<point x="1553.0133333333" y="1414" type="line"/>
			<point x="1426.16" y="1414" type="line"/>
			<point x="1288.1733333333" y="1260.64" type="line"/>
			<point x="1258.2133333333" y="1222.3066666667" type="line"/>
		</contour>
		<contour>
			<point x="847.4533333333" y="1434" type="curve" smooth="yes"/>
			<point x="424.8933333333" y="1434"/>
			<point x="152.7866666667" y="1155.3066666667"/>
			<point x="152.7866666667" y="706.2533333333" type="curve" smooth="yes"/>
			<point x="152.7866666667" y="260.8266666667"/>
			<point x="414.9866666667" y="-20"/>
			<point x="858.3466666667" y="-20" type="curve" smooth="yes"/>
			<point x="1280.9066666667" y="-20"/>
			<point x="1553.0133333333" y="258.6933333333"/>
			<point x="1553.0133333333" y="707.7466666667" type="curve" smooth="yes"/>
			<point x="1553.0133333333" y="1153.1733333333"/>
			<point x="1290.8133333333" y="1434"/>
		</contour>
		<contour>
			<point x="861.5866666667" y="86.2133333333" type="curve" smooth="yes"/>
			<point x="495.3866666667" y="86.2133333333"/>
			<point x="289.8" y="309.0933333333"/>
			<point x="289.8" y="719.5733333333" type="curve" smooth="yes"/>
			<point x="289.8" y="1099.96"/>
			<point x="478.1066666667" y="1327.7866666667"/>
			<point x="844.2133333333" y="1327.7866666667" type="curve" smooth="yes"/>
			<point x="1210.4133333333" y="1327.7866666667"/>
			<point x="1416" y="1104.9066666667"/>
			<point x="1416" y="694.4266666667" type="curve" smooth="yes"/>
			<point x="1416" y="314.04"/>
			<point x="1227.6933333333" y="86.2133333333"/>
		</contour>
	</outline>
	<anchor name="UCtop" x="853.2133333333" y="1414"/>
	<anchor name="bottom" x="853.2133333333" y="0"/>
</glyph>
<glyph name="Thorn" format="2">
	<unicode hex="00DE"/>
	<advance width="1377.2266666667"/>
	<outline>
		<contour>
			<point x="1128.0666666667" y="723.7866666667" type="curve" smooth="yes"/>
			<point x="1128.0666666667" y="499.4533333333"/>
			<point x="1011.04" y="406.04"/>
			<point x="802.2266666667" y="406.04" type="curve" smooth="yes"/>
			<point x="388.04" y="406.04" type="line"/>
			<point x="388.04" y="305.1866666667" type="line"/>
			<point x="795.0533333333" y="305.1866666667" type="line" smooth="yes"/>
			<point x="1119.9466666667" y="305.1866666667"/>
			<point x="1263.08" y="457.8666666667"/>
			<point x="1263.08" y="722.1466666667" type="curve" smooth="yes"/>
			<point x="1263.08" y="981.5333333333"/>
			<point x="1131.9733333333" y="1127.36"/>
			<point x="731.6" y="1127.36" type="curve" smooth="yes"/>
			<point x="381.1466666667" y="1127.36" type="line"/>
			<point x="381.1466666667" y="1026.5066666667" type="line"/>
			<point x="697.3066666667" y="1026.5066666667" type="line" smooth="yes"/>
			<point x="1037.04" y="1026.5066666667"/>
			<point x="1128.0666666667" y="925.72"/>
		</contour>
		<contour>
			<point x="661.0933333333" y="71.5333333333" type="line"/>
			<point x="449.4266666667" y="98.36" type="line"/>
			<point x="449.4266666667" y="1315.64" type="line"/>
			<point x="661.0933333333" y="1342.4666666667" type="line"/>
			<point x="661.0933333333" y="1414" type="line"/>
			<point x="106.24" y="1414" type="line"/>
			<point x="106.24" y="1342.4666666667" type="line"/>
			<point x="317.9066666667" y="1315.64" type="line"/>
			<point x="317.9066666667" y="98.36" type="line"/>
			<point x="106.24" y="71.5333333333" type="line"/>
			<point x="106.24" y="0" type="line"/>
			<point x="661.0933333333" y="0" type="line"/>
		</contour>
	</outline>
</glyph>
<glyph name="germandbls" format="2">
	<unicode hex="00DF"/>
	<advance width="1436.16"/>
	<outline>
		<contour>
			<point x="274.4" y="1077.3333333333" type="curve" smooth="yes"/>
			<point x="274.4" y="90.88" type="line"/>
			<point x="107.4" y="65.92" type="line"/>
			<point x="107.4" y="0" type="line"/>
			<point x="562.32" y="0" type="line"/>
			<point x="562.32" y="65.92" type="line"/>
			<point x="395.32" y="90.88" type="line"/>
			<point x="395.32" y="1095.0666666667" type="line" smooth="yes"/>
			<point x="395.32" y="1312.3066666667"/>
			<point x="528.3169230769" y="1397.3733333333"/>
			<point x="770.3066666667" y="1397.3733333333" type="curve" smooth="yes"/>
			<point x="977.6008219178" y="1397.3733333333"/>
			<point x="1057.7466666667" y="1311.0933333333"/>
			<point x="1057.7466666667" y="1209.1066666667" type="curve" smooth="yes"/>
			<point x="1057.7466666667" y="1016.8533333333"/>
			<point x="740.6266666667" y="998.7733333333"/>
			<point x="740.6266666667" y="766.9066666667" type="curve" smooth="yes"/>
			<point x="740.6266666667" y="431.9333333333"/>
			<point x="1234.8266666667" y="599.9733333333"/>
			<point x="1234.8266666667" y="282.5066666667" type="curve" smooth="yes"/>
			<point x="1234.8266666667" y="142.04"/>
			<point x="1152.7866666667" y="70.88"/>
			<point x="964.4933333333" y="70.88" type="curve" smooth="yes"/>
			<point x="884.2133333333" y="70.88"/>
			<point x="794.9333333333" y="84.1466666667"/>
			<point x="733.1866666667" y="112.5333333333" type="curve"/>
			<point x="817.1066666667" y="43.2533333333" type="line"/>
			<point x="728.3866666667" y="321.24" type="line"/>
			<point x="645.04" y="321.24" type="line"/>
			<point x="679.8933333333" y="36" type="line"/>
			<point x="751.2666666667" y="0.7466666667"/>
			<point x="867.7466666667" y="-16"/>
			<point x="957.6133333333" y="-16" type="curve" smooth="yes"/>
			<point x="1217.8" y="-16"/>
			<point x="1347.2666666667" y="95.9733333333"/>
			<point x="1347.2666666667" y="305.08" type="curve" smooth="yes"/>
			<point x="1347.2666666667" y="691.7066666667"/>
			<point x="853.2" y="555.12"/>
			<point x="853.2" y="791.4666666667" type="curve" smooth="yes"/>
			<point x="853.2" y="975.7866666667"/>
			<point x="1184.28" y="995.5066666667"/>
			<point x="1184.28" y="1227.7866666667" type="curve" smooth="yes"/>
			<point x="1184.28" y="1382.9866666667"/>
			<point x="1066.9757710065" y="1484"/>
			<point x="783.7866666667" y="1484" type="curve" smooth="yes"/>
			<point x="491.9229254571" y="1484"/>
			<point x="274.4" y="1357.9066666667"/>
		</contour>
		<contour>
			<point x="291.0266666667" y="1035.4666666667" type="line"/>
			<point x="60.3466666667" y="993.8" type="line"/>
			<point x="60.3466666667" y="949.2266666667" type="line"/>
			<point x="276.28" y="912.68" type="line"/>
		</contour>
	</outline>
</glyph>
<glyph name="ae" format="2">
	<unicode hex="00E6"/>
	<advance width="1837.8266666667"/>
	<outline>
		<contour>
			<point x="530.72" y="954.5066666667" type="curve" smooth="yes"/>
			<point x="738.0666666667" y="954.5066666667"/>
			<point x="813.3733333333" y="874.0933333333"/>
			<point x="813.3733333333" y="691.0133333333" type="curve" smooth="yes"/>
			<point x="813.3733333333" y="348.0933333333" type="line" smooth="yes"/>
			<point x="813.3733333333" y="184.6533333333"/>
			<point x="676.5466666667" y="83.84"/>
			<point x="494.4266666667" y="83.84" type="curve" smooth="yes"/>
			<point x="330.32" y="83.84"/>
			<point x="259.6666666667" y="144.4933333333"/>
			<point x="259.6666666667" y="266.56" type="curve" smooth="yes"/>
			<point x="259.6666666667" y="404.0532532533"/>
			<point x="339.9048945957" y="476.8380538282"/>
			<point x="861.52" y="551.1866666667" type="curve"/>
			<point x="880.9466666667" y="636.8133333333" type="line"/>
			<point x="225.6480596509" y="544.3580088744"/>
			<point x="126.7733333333" y="440.8985390428"/>
			<point x="126.7733333333" y="249.7333333333" type="curve" smooth="yes"/>
			<point x="126.7733333333" y="71.2266666667"/>
			<point x="237.0133333333" y="-20"/>
			<point x="455.5466666667" y="-20" type="curve" smooth="yes"/>
			<point x="667.6647322971" y="-20"/>
			<point x="832.0933333333" y="84.2266666667"/>
			<point x="842.9733333333" y="317.3866666667" type="curve"/>
			<point x="821.5066666667" y="312.5333333333" type="line"/>
			<point x="888.48" y="89.4933333333"/>
			<point x="1054.0191980791" y="-20"/>
			<point x="1301.56" y="-20" type="curve" smooth="yes"/>
			<point x="1442.6133333333" y="-20"/>
			<point x="1563" y="15.0666666667"/>
			<point x="1711.04" y="100.1866666667" type="curve"/>
			<point x="1711.04" y="174.8533333333" type="line"/>
			<point x="1591.4666666667" y="118.4266666667"/>
			<point x="1486.7333333333" y="89.4533333333"/>
			<point x="1350.9733333333" y="89.4533333333" type="curve" smooth="yes"/>
			<point x="1067.44" y="89.4533333333"/>
			<point x="933.92" y="216.1066666667"/>
			<point x="933.92" y="526.68" type="curve" smooth="yes"/>
			<point x="933.92" y="821.3066666667"/>
			<point x="1076.2666666667" y="954.76"/>
			<point x="1293.48" y="954.76" type="curve" smooth="yes"/>
			<point x="1501.1333333333" y="954.76"/>
			<point x="1598.6533333333" y="821"/>
			<point x="1596.76" y="583.08" type="curve"/>
			<point x="1650.3733333333" y="621.6266666667" type="line"/>
			<point x="912.96" y="621.6266666667" type="line"/>
			<point x="921.4666666667" y="530.7466666667" type="line"/>
			<point x="1727.8133333333" y="530.7466666667" type="line"/>
			<point x="1727.8783940943" y="868.6037842279"/>
			<point x="1604.3066666667" y="1044"/>
			<point x="1294.0933333333" y="1044" type="curve" smooth="yes"/>
			<point x="1096.8925603865" y="1044"/>
			<point x="944.0967700233" y="943.8718259039"/>
			<point x="866.2" y="774.6666666667" type="curve"/>
			<point x="928.0666666667" y="774.6666666667" type="line"/>
			<point x="912.0751541044" y="942.9414641843"/>
			<point x="814.7903267974" y="1042.7466666667"/>
			<point x="563.0266666667" y="1042.7466666667" type="curve" smooth="yes"/>
			<point x="305.7333333333" y="1042.7466666667"/>
			<point x="130.1733333333" y="905.2933333333"/>
			<point x="130.1733333333" y="830.2133333333" type="curve" smooth="yes"/>
			<point x="130.1733333333" y="798.12"/>
			<point x="158.1333333333" y="772.7733333333"/>
			<point x="218.2" y="772.7733333333" type="curve" smooth="yes"/>
			<point x="252.7733333333" y="772.7733333333"/>
			<point x="282.1333333333" y="780.4"/>
			<point x="298.8666666667" y="818.6133333333" type="curve" smooth="yes"/>
			<point x="315.6" y="856.8266666667"/>
			<point x="332.48" y="905.5866666667"/>
			<point x="349.9733333333" y="968.28" type="curve"/>
			<point x="300.2933333333" y="919.72" type="line"/>
			<point x="368.6933333333" y="944"/>
			<point x="436.5733333333" y="954.5066666667"/>
		</contour>
	</outline>
	<anchor name="top" x="922.44" y="1024"/>
	<anchor name="bottom" x="922.44" y="0"/>
</glyph>
<glyph name="ccedilla" format="2">
	<unicode hex="00E7"/>
	<advance width="1091.6133333333"/>
	<outline>
		<contour>
			<point x="678.0666666667" y="1044" type="curve" smooth="yes"/>
			<point x="314.8" y="1044"/>
			<point x="110.7733333333" y="833.2"/>
			<point x="110.7733333333" y="504.2666666667" type="curve" smooth="yes"/>
			<point x="110.7733333333" y="150.72"/>
			<point x="290.72" y="-20"/>
			<point x="594.12" y="-20" type="curve" smooth="yes"/>
			<point x="734.4266666667" y="-20"/>
			<point x="849.5866666667" y="14.6933333333"/>
			<point x="996.5066666667" y="100.1866666667" type="curve"/>
			<point x="996.5066666667" y="174.8533333333" type="line"/>
			<point x="866.8533333333" y="113.5733333333"/>
			<point x="762.8666666667" y="89.4533333333"/>
			<point x="638.68" y="89.4533333333" type="curve" smooth="yes"/>
			<point x="367.0933333333" y="89.4533333333"/>
			<point x="232.8266666667" y="222.4533333333"/>
			<point x="232.8266666667" y="526.3066666667" type="curve" smooth="yes"/>
			<point x="232.8266666667" y="814.7066666667"/>
			<point x="396.5333333333" y="950.5066666667"/>
			<point x="637.0533333333" y="950.5066666667" type="curve" smooth="yes"/>
			<point x="771.9866666667" y="950.5066666667"/>
			<point x="889.32" y="800.68"/>
			<point x="906.1733333333" y="800.68" type="curve" smooth="yes"/>
			<point x="959.8533333333" y="800.68"/>
			<point x="1003.2" y="843.4933333333"/>
			<point x="1003.2" y="900.32" type="curve" smooth="yes"/>
			<point x="1003.2" y="957.6533333333"/>
			<point x="934.96" y="1044"/>
		</contour>
		<contour>
			<point x="534.4933333333" y="-465" type="curve" smooth="yes"/>
			<point x="677.6933333333" y="-465"/>
			<point x="762.2666666667" y="-395.8533333333"/>
			<point x="762.2666666667" y="-292.6533333333" type="curve" smooth="yes"/>
			<point x="762.2666666667" y="-217.2933333333"/>
			<point x="724.4" y="-159.1866666667"/>
			<point x="538.0933333333" y="-116.68" type="curve"/>
			<point x="550.6" y="-160.9733333333" type="line"/>
			<point x="671.76" y="8.5866666667" type="line"/>
			<point x="594.84" y="8.5866666667" type="line"/>
			<point x="457.28" y="-188.12" type="line"/>
			<point x="457.28" y="-198.84" type="line"/>
			<point x="641.2666666667" y="-235.8533333333"/>
			<point x="665.76" y="-265.4933333333"/>
			<point x="665.76" y="-316.76" type="curve" smooth="yes"/>
			<point x="665.76" y="-371.0266666667"/>
			<point x="629.4933333333" y="-405.68"/>
			<point x="552.2266666667" y="-405.68" type="curve" smooth="yes"/>
			<point x="483.96" y="-405.68"/>
			<point x="453.76" y="-346.3333333333"/>
			<point x="442.1466666667" y="-346.3333333333" type="curve" smooth="yes"/>
			<point x="414.2666666667" y="-346.3333333333"/>
			<point x="392.5466666667" y="-368.2"/>
			<point x="392.5466666667" y="-396.04" type="curve" smooth="yes"/>
			<point x="392.5466666667" y="-435.88"/>
			<point x="422.28" y="-465"/>
		</contour>
	</outline>
</glyph>
<glyph name="eth" format="2">
	<unicode hex="00F0"/>
	<advance width="1269.2"/>
	<outline>
		<contour>
			<point x="619.6133333333" y="-20" type="curve" smooth="yes"/>
			<point x="946.0933333333" y="-20"/>
			<point x="1143.0666666667" y="160.6"/>
			<point x="1143.0666666667" y="536.4666666667" type="curve" smooth="yes"/>
			<point x="1143.0666666667" y="1003.12"/>
			<point x="954.08" y="1300.1466666667"/>
			<point x="306.8266666667" y="1471.4666666667" type="curve"/>
			<point x="276.9866666667" y="1394.2" type="line"/>
			<point x="713.2430494852" y="1277.9516781273"/>
			<point x="996.9866666667" y="1044.8"/>
			<point x="1016.4" y="657.3866666667" type="curve"/>
			<point x="1030.2666666667" y="655.52" type="line"/>
			<point x="1017.2266666667" y="820.6933333333"/>
			<point x="879.32" y="1012"/>
			<point x="615.56" y="1012" type="curve" smooth="yes"/>
			<point x="307.7466666667" y="1012"/>
			<point x="110.7733333333" y="826.92"/>
			<point x="110.7733333333" y="497.2533333333" type="curve" smooth="yes"/>
			<point x="110.7733333333" y="173.6"/>
			<point x="309.9066666667" y="-20"/>
		</contour>
		<contour>
			<point x="616.36" y="76.1066666667" type="curve" smooth="yes"/>
			<point x="363.0133333333" y="76.1066666667"/>
			<point x="237.44" y="242.0717557252"/>
			<point x="237.44" y="509.6" type="curve" smooth="yes"/>
			<point x="237.44" y="781.4144061303"/>
			<point x="385.4" y="915.64"/>
			<point x="637.48" y="915.64" type="curve" smooth="yes"/>
			<point x="890.8266666667" y="915.64"/>
			<point x="1016.4" y="749.9307614213"/>
			<point x="1016.4" y="482.4" type="curve" smooth="yes"/>
			<point x="1016.4" y="209.961882805"/>
			<point x="868.44" y="76.1066666667"/>
		</contour>
		<contour>
			<point x="415.84" y="1064.08" type="line"/>
			<point x="920.2533333333" y="1417.1866666667" type="line"/>
			<point x="872.8" y="1484" type="line"/>
			<point x="368.3866666667" y="1130.8933333333" type="line"/>
		</contour>
	</outline>
</glyph>
<glyph name="divide" format="2">
	<unicode hex="00F7"/>
	<advance width="1140"/>
	<outline>
		<contour>
			<point x="570.1866666667" y="264.8266666667" type="curve" smooth="yes"/>
			<point x="499.2266666667" y="264.8266666667"/>
			<point x="453.3733333333" y="227.8533333333"/>
			<point x="453.3733333333" y="153.1333333333" type="curve" smooth="yes"/>
			<point x="453.3733333333" y="78.4133333333"/>
			<point x="499.2266666667" y="41.0666666667"/>
			<point x="570.1866666667" y="41.0666666667" type="curve" smooth="yes"/>
			<point x="640.7733333333" y="41.0666666667"/>
			<point x="686.6266666667" y="78.4133333333"/>
			<point x="686.6266666667" y="153.1333333333" type="curve" smooth="yes"/>
			<point x="686.6266666667" y="227.8533333333"/>
			<point x="640.7733333333" y="264.8266666667"/>
		</contour>
		<contour>
			<point x="570.1866666667" y="986.92" type="curve" smooth="yes"/>
			<point x="499.2266666667" y="986.92"/>
			<point x="453.3733333333" y="949.9466666667"/>
			<point x="453.3733333333" y="875.2266666667" type="curve" smooth="yes"/>
			<point x="453.3733333333" y="800.5066666667"/>
			<point x="499.2266666667" y="763.5333333333"/>
			<point x="570.1866666667" y="763.5333333333" type="curve" smooth="yes"/>
			<point x="640.7733333333" y="763.5333333333"/>
			<point x="686.6266666667" y="800.5066666667"/>
			<point x="686.6266666667" y="875.2266666667" type="curve" smooth="yes"/>
			<point x="686.6266666667" y="949.9466666667"/>
			<point x="640.7733333333" y="986.92"/>
		</contour>
		<contour>
			<point x="150.6" y="564.04" type="line"/>
			<point x="150.6" y="463.32" type="line"/>
			<point x="989.4" y="463.32" type="line"/>
			<point x="989.4" y="564.04" type="line"/>
		</contour>
	</outline>
</glyph>
<glyph name="oslash" format="2">
	<unicode hex="00F8"/>
	<advance width="1291.2"/>
	<outline>
		<contour>
			<point x="118.44" y="0" type="line"/>
			<point x="239.4266666667" y="0" type="line"/>
			<point x="338.0266666667" y="107.8533333333" type="line"/>
			<point x="357.8933333333" y="134.84" type="line"/>
			<point x="994.48" y="829.4666666667" type="line"/>
			<point x="1017.2266666667" y="853.72" type="line"/>
			<point x="1173.1333333333" y="1024" type="line"/>
			<point x="1052.1466666667" y="1024" type="line"/>
			<point x="953.5466666667" y="916.1466666667" type="line"/>
			<point x="933.68" y="888.5333333333" type="line"/>
			<point x="297.0933333333" y="193.9066666667" type="line"/>
			<point x="274.3466666667" y="170.28" type="line"/>
		</contour>
		<contour>
			<point x="635.2266666667" y="76.1066666667" type="curve" smooth="yes"/>
			<point x="381.88" y="76.1066666667"/>
			<point x="256.3066666667" y="248.8266666667"/>
			<point x="256.3066666667" y="525.9733333333" type="curve" smooth="yes"/>
			<point x="256.3066666667" y="808.32"/>
			<point x="404.2666666667" y="947.8933333333"/>
			<point x="656.3466666667" y="947.8933333333" type="curve" smooth="yes"/>
			<point x="909.6933333333" y="947.8933333333"/>
			<point x="1035.2666666667" y="775.8"/>
			<point x="1035.2666666667" y="498.0266666667" type="curve" smooth="yes"/>
			<point x="1035.2666666667" y="215.68"/>
			<point x="887.3066666667" y="76.1066666667"/>
		</contour>
		<contour>
			<point x="638.48" y="-20" type="curve" smooth="yes"/>
			<point x="964.96" y="-20"/>
			<point x="1161.9333333333" y="170.4533333333"/>
			<point x="1161.9333333333" y="510.7466666667" type="curve" smooth="yes"/>
			<point x="1161.9333333333" y="844.4"/>
			<point x="962.8" y="1044"/>
			<point x="653.0933333333" y="1044" type="curve" smooth="yes"/>
			<point x="326.6133333333" y="1044"/>
			<point x="129.64" y="853.5466666667"/>
			<point x="129.64" y="513.2533333333" type="curve" smooth="yes"/>
			<point x="129.64" y="179.6"/>
			<point x="328.7733333333" y="-20"/>
		</contour>
	</outline>
	<anchor name="top" x="645.9733333333" y="1024"/>
	<anchor name="bottom" x="645.9733333333" y="0"/>
</glyph>
<glyph name="thorn" format="2">
	<unicode hex="00FE"/>
	<advance width="1271.7733333333"/>
	<outline>
		<contour>
			<point x="190.6533333333" y="1331.5733333333" type="curve"/>
			<point x="190.6533333333" y="-354.12" type="line"/>
			<point x="21.7866666667" y="-379.08" type="line"/>
			<point x="21.7866666667" y="-445" type="line"/>
			<point x="499.6933333333" y="-445" type="line"/>
			<point x="499.6933333333" y="-379.08" type="line"/>
			<point x="311.2" y="-354.8666666667" type="line"/>
			<point x="311.2" y="288.5466666667" type="line"/>
			<point x="297.96" y="288.5466666667" type="line"/>
			<point x="304.8266666667" y="115.24"/>
			<point x="434.92" y="-20"/>
			<point x="657.88" y="-20" type="curve" smooth="yes"/>
			<point x="937.8666666667" y="-20"/>
			<point x="1160" y="182.5866666667"/>
			<point x="1160" y="548.8666666667" type="curve" smooth="yes"/>
			<point x="1160" y="869.5333333333"/>
			<point x="1000.6533333333" y="1044"/>
			<point x="681.5066666667" y="1044" type="curve" smooth="yes"/>
			<point x="595.8933333333" y="1044"/>
			<point x="516.6133333333" y="1019.9066666667"/>
			<point x="262.88" y="890.24" type="curve"/>
			<point x="262.88" y="822.4666666667" type="line"/>
			<point x="411.8666666667" y="904.68"/>
			<point x="528.8666666667" y="935.8133333333"/>
			<point x="646.24" y="935.8133333333" type="curve" smooth="yes"/>
			<point x="902.2266666667" y="935.8133333333"/>
			<point x="1030.2266666667" y="787.48"/>
			<point x="1030.2266666667" y="532.5866666667" type="curve" smooth="yes"/>
			<point x="1030.2266666667" y="236.4266666667"/>
			<point x="878.7733333333" y="69.24"/>
			<point x="637.56" y="69.24" type="curve" smooth="yes"/>
			<point x="439.4533333333" y="69.24"/>
			<point x="311.5733333333" y="180.32"/>
			<point x="311.5733333333" y="428.8133333333" type="curve" smooth="yes"/>
			<point x="311.5733333333" y="1348.8133333333" type="line"/>
			<point x="325.3066666667" y="1484" type="line"/>
			<point x="298.9733333333" y="1484" type="line"/>
			<point x="-24.84" y="1434.0533333333" type="line"/>
			<point x="-24.84" y="1380.12" type="line"/>
			<point x="53.16" y="1362.5859190031"/>
			<point x="164.6533333333" y="1337.2935825545"/>
		</contour>
	</outline>
</glyph>
